%TF.GenerationSoftware,KiCad,Pcbnew,7.0.9*%
%TF.CreationDate,2024-01-29T23:24:25+02:00*%
%TF.ProjectId,TheftShield_Tracker,54686566-7453-4686-9965-6c645f547261,rev?*%
%TF.SameCoordinates,Original*%
%TF.FileFunction,Copper,L3,Inr*%
%TF.FilePolarity,Positive*%
%FSLAX46Y46*%
G04 Gerber Fmt 4.6, Leading zero omitted, Abs format (unit mm)*
G04 Created by KiCad (PCBNEW 7.0.9) date 2024-01-29 23:24:25*
%MOMM*%
%LPD*%
G01*
G04 APERTURE LIST*
G04 Aperture macros list*
%AMRoundRect*
0 Rectangle with rounded corners*
0 $1 Rounding radius*
0 $2 $3 $4 $5 $6 $7 $8 $9 X,Y pos of 4 corners*
0 Add a 4 corners polygon primitive as box body*
4,1,4,$2,$3,$4,$5,$6,$7,$8,$9,$2,$3,0*
0 Add four circle primitives for the rounded corners*
1,1,$1+$1,$2,$3*
1,1,$1+$1,$4,$5*
1,1,$1+$1,$6,$7*
1,1,$1+$1,$8,$9*
0 Add four rect primitives between the rounded corners*
20,1,$1+$1,$2,$3,$4,$5,0*
20,1,$1+$1,$4,$5,$6,$7,0*
20,1,$1+$1,$6,$7,$8,$9,0*
20,1,$1+$1,$8,$9,$2,$3,0*%
G04 Aperture macros list end*
%TA.AperFunction,ComponentPad*%
%ADD10R,1.700000X1.700000*%
%TD*%
%TA.AperFunction,ComponentPad*%
%ADD11O,1.700000X1.700000*%
%TD*%
%TA.AperFunction,ComponentPad*%
%ADD12C,4.400000*%
%TD*%
%TA.AperFunction,ComponentPad*%
%ADD13RoundRect,0.250000X-0.600000X-0.725000X0.600000X-0.725000X0.600000X0.725000X-0.600000X0.725000X0*%
%TD*%
%TA.AperFunction,ComponentPad*%
%ADD14O,1.700000X1.950000*%
%TD*%
%TA.AperFunction,ViaPad*%
%ADD15C,0.800000*%
%TD*%
%ADD16C,0.350000*%
G04 APERTURE END LIST*
D10*
%TO.N,GND*%
%TO.C,J2*%
X175153400Y-93358800D03*
D11*
%TO.N,/STM32F401RCT6/USART1_RX*%
X175153400Y-90818800D03*
%TO.N,/STM32F401RCT6/USART1_TX*%
X175153400Y-88278800D03*
%TO.N,+3.3V*%
X175153400Y-85738800D03*
%TD*%
D12*
%TO.N,GND*%
%TO.C,H1*%
X173000126Y-81112074D03*
%TD*%
%TO.N,GND*%
%TO.C,H2*%
X173013400Y-123238800D03*
%TD*%
D10*
%TO.N,GND*%
%TO.C,J3*%
X152442600Y-78994600D03*
D11*
%TO.N,/STM32F401RCT6/NRST*%
X149902600Y-78994600D03*
%TO.N,/STM32F401RCT6/BOOT0*%
X147362600Y-78994600D03*
%TO.N,+3.3V*%
X144822600Y-78994600D03*
%TD*%
D13*
%TO.N,+MAIN_VCC*%
%TO.C,J4*%
X162117400Y-123274600D03*
D14*
%TO.N,GND*%
X164617400Y-123274600D03*
%TO.N,/ADC1_IN6*%
X167117400Y-123274600D03*
%TD*%
D10*
%TO.N,GND*%
%TO.C,J1*%
X160215000Y-78969200D03*
D11*
%TO.N,/STM32F401RCT6/SWCLK*%
X162755000Y-78969200D03*
%TO.N,/STM32F401RCT6/SWDIO*%
X165295000Y-78969200D03*
%TO.N,+3.3V*%
X167835000Y-78969200D03*
%TD*%
D12*
%TO.N,GND*%
%TO.C,H3*%
X132883400Y-81108800D03*
%TD*%
%TO.N,GND*%
%TO.C,H4*%
X132883400Y-123228800D03*
%TD*%
D15*
%TO.N,GND*%
X147726400Y-100584000D03*
X144195800Y-111455200D03*
X156455800Y-97282600D03*
X161747200Y-100914200D03*
X147345400Y-106883200D03*
X146659600Y-87020400D03*
X135991600Y-109474000D03*
X151511000Y-122555000D03*
X158140400Y-79171800D03*
X152425400Y-123164600D03*
X142189200Y-80772000D03*
X132198800Y-107823600D03*
X144475200Y-95427800D03*
X170408600Y-112674400D03*
X152715955Y-100800963D03*
X153568899Y-110820699D03*
X171234697Y-89191503D03*
X174980600Y-115493800D03*
X149758400Y-110744000D03*
X138955200Y-124562200D03*
X171300000Y-85700000D03*
X170561000Y-92456000D03*
X174828200Y-117779800D03*
X141554200Y-117373400D03*
X170230800Y-110667800D03*
X160401000Y-101523800D03*
X160223200Y-111988600D03*
X149377400Y-95986600D03*
X166979600Y-111277400D03*
X141579600Y-108686600D03*
X159199000Y-96800000D03*
X141732000Y-115290600D03*
X143222400Y-125603600D03*
X167894000Y-108356400D03*
X145719800Y-102692200D03*
X131521200Y-118973600D03*
X162636200Y-112979200D03*
X171627800Y-109169200D03*
X150843679Y-119561036D03*
X156083000Y-114198400D03*
X175971200Y-97282000D03*
X131470400Y-85877400D03*
X175641000Y-120142000D03*
X148793200Y-119380000D03*
X146659600Y-95504000D03*
X143078200Y-106705400D03*
X156083000Y-115316000D03*
X132198800Y-106807600D03*
X156159200Y-120929400D03*
X149851800Y-91008800D03*
X159689800Y-114249200D03*
X138320200Y-123825600D03*
X165599800Y-102057800D03*
X155399000Y-123113800D03*
%TO.N,+BCKUP_BATT*%
X132334000Y-111455200D03*
X133172200Y-112496600D03*
X150952200Y-96113600D03*
X134874000Y-86995000D03*
%TO.N,+3.3V*%
X163550600Y-96799400D03*
X170505901Y-91368099D03*
X150029600Y-92837600D03*
X130319200Y-119685400D03*
X173507400Y-109220000D03*
X170904253Y-84035547D03*
X154703200Y-81966400D03*
X130352800Y-103124000D03*
X174828200Y-110643000D03*
X136491400Y-113094600D03*
X139216800Y-106756800D03*
%TO.N,/STM32F401RCT6/NRST*%
X157310500Y-91076100D03*
%TO.N,/SIM800C/SIM_DATA*%
X141655800Y-110871000D03*
%TO.N,/SIM800C/SIM_CLK*%
X141681200Y-111963200D03*
%TO.N,/SIM800C/SIM_RST*%
X138835900Y-113080800D03*
%TO.N,/SIM800C/SIM_VDD*%
X138728979Y-114145181D03*
%TO.N,/STM32F401RCT6/USART1_RX*%
X164795200Y-80707900D03*
%TO.N,/STM32F401RCT6/BOOT0*%
X152120600Y-87934800D03*
%TO.N,/NEO-6M/PWR_CNTR*%
X162229800Y-84302600D03*
X135358900Y-102463600D03*
%TO.N,Net-(U4-TIMEPULSE)*%
X138201400Y-82296000D03*
X134874000Y-94970600D03*
%TO.N,/NEO-6M/UART_RXD1*%
X149098000Y-94488000D03*
X161467800Y-85598000D03*
%TO.N,/STM32F401RCT6/PA4*%
X149733000Y-98729800D03*
X163118800Y-90652600D03*
%TO.N,/STM32F401RCT6/PA6*%
X174701200Y-100203000D03*
X166725600Y-89662000D03*
%TO.N,/ADC1_IN6*%
X174675800Y-105994200D03*
%TD*%
%TA.AperFunction,Conductor*%
%TO.N,+3.3V*%
G36*
X172991652Y-77562649D02*
G01*
X173334013Y-77579471D01*
X173340071Y-77580068D01*
X173677628Y-77630141D01*
X173683599Y-77631329D01*
X173879817Y-77680479D01*
X174014642Y-77714252D01*
X174020433Y-77716008D01*
X174341776Y-77830988D01*
X174347367Y-77833304D01*
X174553294Y-77930701D01*
X174655878Y-77979220D01*
X174661244Y-77982088D01*
X174896671Y-78123199D01*
X174953941Y-78157525D01*
X174959003Y-78160907D01*
X175233110Y-78364199D01*
X175237814Y-78368059D01*
X175490680Y-78597244D01*
X175494955Y-78601519D01*
X175642478Y-78764285D01*
X175724138Y-78854383D01*
X175728000Y-78859089D01*
X175931292Y-79133196D01*
X175934674Y-79138258D01*
X176110109Y-79430952D01*
X176112979Y-79436321D01*
X176258890Y-79744820D01*
X176261215Y-79750433D01*
X176376186Y-80071753D01*
X176377950Y-80077567D01*
X176460870Y-80408600D01*
X176462058Y-80414571D01*
X176512131Y-80752120D01*
X176512728Y-80758178D01*
X176529551Y-81100564D01*
X176529626Y-81103607D01*
X176529626Y-81168069D01*
X176529678Y-81168779D01*
X176532673Y-84961578D01*
X176513041Y-85028633D01*
X176460274Y-85074430D01*
X176391123Y-85084428D01*
X176327544Y-85055453D01*
X176307098Y-85032799D01*
X176191513Y-84867726D01*
X176191508Y-84867720D01*
X176024482Y-84700694D01*
X175830978Y-84565199D01*
X175616892Y-84465370D01*
X175616886Y-84465367D01*
X175403400Y-84408164D01*
X175403400Y-85303298D01*
X175295715Y-85254120D01*
X175189163Y-85238800D01*
X175117637Y-85238800D01*
X175011085Y-85254120D01*
X174903400Y-85303298D01*
X174903400Y-84408164D01*
X174903399Y-84408164D01*
X174689913Y-84465367D01*
X174689907Y-84465370D01*
X174475822Y-84565199D01*
X174475820Y-84565200D01*
X174282326Y-84700686D01*
X174282320Y-84700691D01*
X174115291Y-84867720D01*
X174115286Y-84867726D01*
X173979800Y-85061220D01*
X173979799Y-85061222D01*
X173879970Y-85275307D01*
X173879967Y-85275313D01*
X173822764Y-85488799D01*
X173822764Y-85488800D01*
X174719714Y-85488800D01*
X174693907Y-85528956D01*
X174653400Y-85666911D01*
X174653400Y-85810689D01*
X174693907Y-85948644D01*
X174719714Y-85988800D01*
X173822764Y-85988800D01*
X173879967Y-86202286D01*
X173879970Y-86202292D01*
X173979799Y-86416378D01*
X174115294Y-86609882D01*
X174282317Y-86776905D01*
X174467995Y-86906919D01*
X174511619Y-86961496D01*
X174518812Y-87030995D01*
X174487290Y-87093349D01*
X174467995Y-87110069D01*
X174281994Y-87240308D01*
X174114905Y-87407397D01*
X173979365Y-87600969D01*
X173979364Y-87600971D01*
X173879498Y-87815135D01*
X173879494Y-87815144D01*
X173818338Y-88043386D01*
X173818336Y-88043396D01*
X173797741Y-88278799D01*
X173797741Y-88278800D01*
X173818336Y-88514203D01*
X173818338Y-88514213D01*
X173879494Y-88742455D01*
X173879496Y-88742459D01*
X173879497Y-88742463D01*
X173917157Y-88823225D01*
X173979365Y-88956630D01*
X173979367Y-88956634D01*
X174087681Y-89111321D01*
X174114901Y-89150196D01*
X174114906Y-89150202D01*
X174281997Y-89317293D01*
X174282003Y-89317298D01*
X174467558Y-89447225D01*
X174511183Y-89501802D01*
X174518377Y-89571300D01*
X174486854Y-89633655D01*
X174467558Y-89650375D01*
X174281997Y-89780305D01*
X174114905Y-89947397D01*
X173979365Y-90140969D01*
X173979364Y-90140971D01*
X173879498Y-90355135D01*
X173879494Y-90355144D01*
X173818338Y-90583386D01*
X173818336Y-90583396D01*
X173797741Y-90818799D01*
X173797741Y-90818800D01*
X173818336Y-91054203D01*
X173818338Y-91054213D01*
X173879494Y-91282455D01*
X173879496Y-91282459D01*
X173879497Y-91282463D01*
X173951443Y-91436751D01*
X173979365Y-91496630D01*
X173979367Y-91496634D01*
X174048144Y-91594857D01*
X174114901Y-91690196D01*
X174114906Y-91690202D01*
X174236830Y-91812126D01*
X174270315Y-91873449D01*
X174265331Y-91943141D01*
X174223459Y-91999074D01*
X174192483Y-92015989D01*
X174061069Y-92065003D01*
X174061064Y-92065006D01*
X173945855Y-92151252D01*
X173945852Y-92151255D01*
X173859606Y-92266464D01*
X173859602Y-92266471D01*
X173809308Y-92401317D01*
X173802901Y-92460916D01*
X173802900Y-92460935D01*
X173802900Y-94256670D01*
X173802901Y-94256676D01*
X173809308Y-94316283D01*
X173859602Y-94451128D01*
X173859606Y-94451135D01*
X173945852Y-94566344D01*
X173945855Y-94566347D01*
X174061064Y-94652593D01*
X174061071Y-94652597D01*
X174195917Y-94702891D01*
X174195916Y-94702891D01*
X174202844Y-94703635D01*
X174255527Y-94709300D01*
X176051272Y-94709299D01*
X176110883Y-94702891D01*
X176245731Y-94652596D01*
X176342040Y-94580498D01*
X176407501Y-94556082D01*
X176475774Y-94570933D01*
X176525180Y-94620337D01*
X176540349Y-94679668D01*
X176541675Y-96359231D01*
X176522043Y-96426286D01*
X176469275Y-96472083D01*
X176400125Y-96482081D01*
X176367239Y-96472608D01*
X176251007Y-96420857D01*
X176251002Y-96420855D01*
X176105201Y-96389865D01*
X176065846Y-96381500D01*
X175876554Y-96381500D01*
X175844097Y-96388398D01*
X175691397Y-96420855D01*
X175691392Y-96420857D01*
X175518470Y-96497848D01*
X175518465Y-96497851D01*
X175365329Y-96609111D01*
X175238666Y-96749785D01*
X175144021Y-96913715D01*
X175144018Y-96913722D01*
X175085527Y-97093740D01*
X175085526Y-97093744D01*
X175065740Y-97282000D01*
X175085526Y-97470256D01*
X175085527Y-97470259D01*
X175144018Y-97650277D01*
X175144021Y-97650284D01*
X175238667Y-97814216D01*
X175357009Y-97945648D01*
X175365329Y-97954888D01*
X175518465Y-98066148D01*
X175518470Y-98066151D01*
X175691392Y-98143142D01*
X175691397Y-98143144D01*
X175876554Y-98182500D01*
X175876555Y-98182500D01*
X176065844Y-98182500D01*
X176065846Y-98182500D01*
X176251003Y-98143144D01*
X176323006Y-98111086D01*
X176368697Y-98090743D01*
X176437947Y-98081458D01*
X176501224Y-98111086D01*
X176538437Y-98170221D01*
X176543133Y-98203924D01*
X176559949Y-119493691D01*
X176540317Y-119560746D01*
X176487550Y-119606543D01*
X176418399Y-119616541D01*
X176354820Y-119587566D01*
X176343799Y-119576761D01*
X176246870Y-119469111D01*
X176093734Y-119357851D01*
X176093729Y-119357848D01*
X175920807Y-119280857D01*
X175920802Y-119280855D01*
X175775001Y-119249865D01*
X175735646Y-119241500D01*
X175546354Y-119241500D01*
X175513897Y-119248398D01*
X175361197Y-119280855D01*
X175361192Y-119280857D01*
X175188270Y-119357848D01*
X175188265Y-119357851D01*
X175035129Y-119469111D01*
X174908466Y-119609785D01*
X174813821Y-119773715D01*
X174813818Y-119773722D01*
X174755327Y-119953740D01*
X174755326Y-119953744D01*
X174735540Y-120142000D01*
X174755326Y-120330256D01*
X174755327Y-120330259D01*
X174813818Y-120510277D01*
X174813821Y-120510284D01*
X174908467Y-120674216D01*
X174998102Y-120773765D01*
X175035129Y-120814888D01*
X175188265Y-120926148D01*
X175188270Y-120926151D01*
X175361192Y-121003142D01*
X175361197Y-121003144D01*
X175546354Y-121042500D01*
X175546355Y-121042500D01*
X175735644Y-121042500D01*
X175735646Y-121042500D01*
X175920803Y-121003144D01*
X176093730Y-120926151D01*
X176246871Y-120814888D01*
X176344825Y-120706098D01*
X176404308Y-120669453D01*
X176474165Y-120670782D01*
X176532213Y-120709669D01*
X176560024Y-120773765D01*
X176560972Y-120788975D01*
X176562898Y-123227245D01*
X176562824Y-123230337D01*
X176546004Y-123572690D01*
X176545408Y-123578749D01*
X176495335Y-123916309D01*
X176494148Y-123922280D01*
X176411231Y-124253302D01*
X176409464Y-124259128D01*
X176294498Y-124580438D01*
X176292168Y-124586063D01*
X176146260Y-124894559D01*
X176143390Y-124899928D01*
X175967956Y-125192622D01*
X175964574Y-125197684D01*
X175761281Y-125471791D01*
X175757419Y-125476497D01*
X175653408Y-125591256D01*
X175559929Y-125694395D01*
X175528251Y-125729346D01*
X175523950Y-125733646D01*
X175496603Y-125758433D01*
X175271097Y-125962819D01*
X175266391Y-125966681D01*
X174992284Y-126169974D01*
X174987222Y-126173356D01*
X174694528Y-126348790D01*
X174689159Y-126351660D01*
X174380663Y-126497568D01*
X174375038Y-126499898D01*
X174053728Y-126614864D01*
X174047902Y-126616631D01*
X173716880Y-126699548D01*
X173710909Y-126700735D01*
X173373347Y-126750808D01*
X173367289Y-126751404D01*
X173024897Y-126768225D01*
X173021854Y-126768300D01*
X172961552Y-126768300D01*
X172961334Y-126768315D01*
X132894940Y-126778299D01*
X132891882Y-126778225D01*
X132549509Y-126761404D01*
X132543450Y-126760808D01*
X132205890Y-126710735D01*
X132199922Y-126709548D01*
X132100574Y-126684663D01*
X131868897Y-126626631D01*
X131863071Y-126624864D01*
X131541761Y-126509898D01*
X131536136Y-126507568D01*
X131227640Y-126361660D01*
X131222276Y-126358792D01*
X130929577Y-126183356D01*
X130924515Y-126179974D01*
X130650408Y-125976681D01*
X130645702Y-125972819D01*
X130626778Y-125955667D01*
X130392838Y-125743636D01*
X130388563Y-125739361D01*
X130159378Y-125486495D01*
X130155518Y-125481791D01*
X129952225Y-125207684D01*
X129948843Y-125202622D01*
X129773402Y-124909916D01*
X129770539Y-124904559D01*
X129765809Y-124894559D01*
X129624630Y-124596062D01*
X129622301Y-124590438D01*
X129616289Y-124573635D01*
X129507334Y-124269126D01*
X129505568Y-124263302D01*
X129422647Y-123932261D01*
X129421464Y-123926309D01*
X129419716Y-123914522D01*
X129371390Y-123588740D01*
X129370795Y-123582690D01*
X129353975Y-123240311D01*
X129353900Y-123237269D01*
X129353900Y-123228800D01*
X130177964Y-123228800D01*
X130197689Y-123554899D01*
X130256578Y-123876252D01*
X130353766Y-124188142D01*
X130353770Y-124188154D01*
X130353773Y-124188161D01*
X130487855Y-124486079D01*
X130629720Y-124720751D01*
X130656873Y-124765668D01*
X130858354Y-125022839D01*
X131089360Y-125253845D01*
X131346531Y-125455326D01*
X131346534Y-125455328D01*
X131346537Y-125455330D01*
X131626121Y-125624345D01*
X131924039Y-125758427D01*
X131924052Y-125758431D01*
X131924057Y-125758433D01*
X132235947Y-125855621D01*
X132557296Y-125914510D01*
X132883400Y-125934236D01*
X133209504Y-125914510D01*
X133530853Y-125855621D01*
X133779415Y-125778166D01*
X133842742Y-125758433D01*
X133842742Y-125758432D01*
X133842761Y-125758427D01*
X134140679Y-125624345D01*
X134174995Y-125603600D01*
X142316940Y-125603600D01*
X142336726Y-125791856D01*
X142336727Y-125791859D01*
X142395218Y-125971877D01*
X142395221Y-125971884D01*
X142489867Y-126135816D01*
X142616529Y-126276488D01*
X142769665Y-126387748D01*
X142769670Y-126387751D01*
X142942592Y-126464742D01*
X142942597Y-126464744D01*
X143127754Y-126504100D01*
X143127755Y-126504100D01*
X143317044Y-126504100D01*
X143317046Y-126504100D01*
X143502203Y-126464744D01*
X143675130Y-126387751D01*
X143828271Y-126276488D01*
X143954933Y-126135816D01*
X144049579Y-125971884D01*
X144108074Y-125791856D01*
X144127860Y-125603600D01*
X144108074Y-125415344D01*
X144049579Y-125235316D01*
X144045520Y-125228285D01*
X159663140Y-125228285D01*
X159673155Y-125413006D01*
X159673155Y-125413011D01*
X159722644Y-125591256D01*
X159722647Y-125591262D01*
X159809298Y-125754702D01*
X159903514Y-125865621D01*
X159929063Y-125895700D01*
X160076336Y-126007654D01*
X160244233Y-126085332D01*
X160244234Y-126085332D01*
X160244236Y-126085333D01*
X160299048Y-126097397D01*
X160424903Y-126125100D01*
X160424906Y-126125100D01*
X160563507Y-126125100D01*
X160563513Y-126125100D01*
X160701310Y-126110114D01*
X160876621Y-126051044D01*
X161035136Y-125955670D01*
X161169441Y-125828449D01*
X161273258Y-125675330D01*
X161289588Y-125634346D01*
X161341730Y-125503477D01*
X161341729Y-125503477D01*
X161341731Y-125503475D01*
X161371660Y-125320917D01*
X161361645Y-125136193D01*
X161350046Y-125094416D01*
X161312155Y-124957943D01*
X161312154Y-124957941D01*
X161295462Y-124926457D01*
X161281451Y-124858006D01*
X161306671Y-124792847D01*
X161363116Y-124751667D01*
X161417618Y-124745015D01*
X161467391Y-124750100D01*
X162767408Y-124750099D01*
X162870197Y-124739599D01*
X163036734Y-124684414D01*
X163186056Y-124592312D01*
X163310112Y-124468256D01*
X163402214Y-124318934D01*
X163402214Y-124318931D01*
X163405578Y-124313479D01*
X163457526Y-124266754D01*
X163526488Y-124255531D01*
X163590570Y-124283374D01*
X163598798Y-124290894D01*
X163745999Y-124438095D01*
X163814520Y-124486074D01*
X163939565Y-124573632D01*
X163939567Y-124573633D01*
X163939570Y-124573635D01*
X164153737Y-124673503D01*
X164381992Y-124734663D01*
X164558434Y-124750100D01*
X164617399Y-124755259D01*
X164617400Y-124755259D01*
X164617401Y-124755259D01*
X164676366Y-124750100D01*
X164852808Y-124734663D01*
X165081063Y-124673503D01*
X165295229Y-124573635D01*
X165488801Y-124438095D01*
X165655895Y-124271001D01*
X165765826Y-124114001D01*
X165820401Y-124070378D01*
X165889900Y-124063184D01*
X165952255Y-124094706D01*
X165968971Y-124113998D01*
X166024907Y-124193884D01*
X166078906Y-124271003D01*
X166165718Y-124357814D01*
X166245999Y-124438095D01*
X166314520Y-124486074D01*
X166439565Y-124573632D01*
X166439567Y-124573633D01*
X166439570Y-124573635D01*
X166653737Y-124673503D01*
X166881992Y-124734663D01*
X167058434Y-124750100D01*
X167117399Y-124755259D01*
X167117400Y-124755259D01*
X167117401Y-124755259D01*
X167176366Y-124750100D01*
X167352808Y-124734663D01*
X167581063Y-124673503D01*
X167795229Y-124573635D01*
X167988801Y-124438095D01*
X168155895Y-124271001D01*
X168291435Y-124077429D01*
X168391303Y-123863263D01*
X168452463Y-123635008D01*
X168467900Y-123458566D01*
X168467900Y-123238800D01*
X170307964Y-123238800D01*
X170327689Y-123564899D01*
X170386578Y-123886252D01*
X170483766Y-124198142D01*
X170483770Y-124198154D01*
X170483773Y-124198161D01*
X170617855Y-124496079D01*
X170768343Y-124745015D01*
X170786873Y-124775668D01*
X170988354Y-125032839D01*
X171219360Y-125263845D01*
X171476531Y-125465326D01*
X171476534Y-125465328D01*
X171476537Y-125465330D01*
X171756121Y-125634345D01*
X172054039Y-125768427D01*
X172054052Y-125768431D01*
X172054057Y-125768433D01*
X172246657Y-125828449D01*
X172365947Y-125865621D01*
X172687296Y-125924510D01*
X173013400Y-125944236D01*
X173339504Y-125924510D01*
X173660853Y-125865621D01*
X173972761Y-125768427D01*
X174270679Y-125634345D01*
X174550263Y-125465330D01*
X174807436Y-125263848D01*
X175038448Y-125032836D01*
X175239930Y-124775663D01*
X175408945Y-124496079D01*
X175543027Y-124198161D01*
X175640221Y-123886253D01*
X175699110Y-123564904D01*
X175718836Y-123238800D01*
X175699110Y-122912696D01*
X175640221Y-122591347D01*
X175593344Y-122440912D01*
X175543033Y-122279457D01*
X175543031Y-122279452D01*
X175543027Y-122279439D01*
X175408945Y-121981521D01*
X175239930Y-121701937D01*
X175239928Y-121701934D01*
X175239926Y-121701931D01*
X175038445Y-121444760D01*
X174807439Y-121213754D01*
X174550268Y-121012273D01*
X174533721Y-121002270D01*
X174270679Y-120843255D01*
X173972761Y-120709173D01*
X173972754Y-120709170D01*
X173972742Y-120709166D01*
X173660852Y-120611978D01*
X173339499Y-120553089D01*
X173013400Y-120533364D01*
X172687300Y-120553089D01*
X172365947Y-120611978D01*
X172054057Y-120709166D01*
X172054041Y-120709172D01*
X172054039Y-120709173D01*
X171876726Y-120788975D01*
X171756125Y-120843253D01*
X171756123Y-120843254D01*
X171476531Y-121012273D01*
X171219360Y-121213754D01*
X170988354Y-121444760D01*
X170786873Y-121701931D01*
X170688424Y-121864786D01*
X170621455Y-121975567D01*
X170617854Y-121981523D01*
X170617853Y-121981525D01*
X170573109Y-122080942D01*
X170488273Y-122269442D01*
X170483772Y-122279442D01*
X170483766Y-122279457D01*
X170386578Y-122591347D01*
X170327689Y-122912700D01*
X170307964Y-123238800D01*
X168467900Y-123238800D01*
X168467900Y-123090634D01*
X168452463Y-122914192D01*
X168391303Y-122685937D01*
X168291435Y-122471771D01*
X168279336Y-122454491D01*
X168155894Y-122278197D01*
X167988802Y-122111106D01*
X167988795Y-122111101D01*
X167795234Y-121975567D01*
X167795230Y-121975565D01*
X167755177Y-121956888D01*
X167581063Y-121875697D01*
X167581059Y-121875696D01*
X167581055Y-121875694D01*
X167352813Y-121814538D01*
X167352803Y-121814536D01*
X167117401Y-121793941D01*
X167117399Y-121793941D01*
X166881996Y-121814536D01*
X166881986Y-121814538D01*
X166653744Y-121875694D01*
X166653735Y-121875698D01*
X166439571Y-121975564D01*
X166439569Y-121975565D01*
X166245997Y-122111105D01*
X166078905Y-122278197D01*
X165968975Y-122435195D01*
X165914398Y-122478820D01*
X165844900Y-122486014D01*
X165782545Y-122454491D01*
X165765825Y-122435195D01*
X165655894Y-122278197D01*
X165488802Y-122111106D01*
X165488795Y-122111101D01*
X165295234Y-121975567D01*
X165295230Y-121975565D01*
X165255177Y-121956888D01*
X165081063Y-121875697D01*
X165081059Y-121875696D01*
X165081055Y-121875694D01*
X164852813Y-121814538D01*
X164852803Y-121814536D01*
X164617401Y-121793941D01*
X164617399Y-121793941D01*
X164381996Y-121814536D01*
X164381986Y-121814538D01*
X164153744Y-121875694D01*
X164153735Y-121875698D01*
X163939571Y-121975564D01*
X163939569Y-121975565D01*
X163745997Y-122111105D01*
X163598798Y-122258305D01*
X163537475Y-122291790D01*
X163467783Y-122286806D01*
X163411850Y-122244934D01*
X163405578Y-122235720D01*
X163310112Y-122080944D01*
X163186057Y-121956889D01*
X163186056Y-121956888D01*
X163064824Y-121882112D01*
X163036736Y-121864787D01*
X163036731Y-121864785D01*
X163035262Y-121864298D01*
X162870197Y-121809601D01*
X162870195Y-121809600D01*
X162767410Y-121799100D01*
X161467398Y-121799100D01*
X161467381Y-121799101D01*
X161364603Y-121809600D01*
X161364600Y-121809601D01*
X161198068Y-121864785D01*
X161198063Y-121864787D01*
X161048742Y-121956889D01*
X160924689Y-122080942D01*
X160832587Y-122230263D01*
X160832585Y-122230268D01*
X160808333Y-122303456D01*
X160777401Y-122396803D01*
X160777401Y-122396804D01*
X160777400Y-122396804D01*
X160766900Y-122499583D01*
X160766900Y-124049601D01*
X160766901Y-124049618D01*
X160777400Y-124152396D01*
X160777401Y-124152399D01*
X160819111Y-124278270D01*
X160821513Y-124348098D01*
X160785781Y-124408140D01*
X160723261Y-124439333D01*
X160674749Y-124438375D01*
X160609897Y-124424100D01*
X160471287Y-124424100D01*
X160471283Y-124424100D01*
X160333488Y-124439086D01*
X160158176Y-124498157D01*
X160158174Y-124498158D01*
X159999662Y-124593531D01*
X159999661Y-124593532D01*
X159865359Y-124720749D01*
X159761538Y-124873876D01*
X159693069Y-125045722D01*
X159693069Y-125045725D01*
X159668157Y-125197684D01*
X159663140Y-125228285D01*
X144045520Y-125228285D01*
X143954933Y-125071384D01*
X143828271Y-124930712D01*
X143828270Y-124930711D01*
X143675134Y-124819451D01*
X143675129Y-124819448D01*
X143502207Y-124742457D01*
X143502202Y-124742455D01*
X143356401Y-124711465D01*
X143317046Y-124703100D01*
X143127754Y-124703100D01*
X143095297Y-124709998D01*
X142942597Y-124742455D01*
X142942592Y-124742457D01*
X142769670Y-124819448D01*
X142769665Y-124819451D01*
X142616529Y-124930711D01*
X142489866Y-125071385D01*
X142395221Y-125235315D01*
X142395218Y-125235322D01*
X142337485Y-125413007D01*
X142336726Y-125415344D01*
X142316940Y-125603600D01*
X134174995Y-125603600D01*
X134420263Y-125455330D01*
X134677436Y-125253848D01*
X134908448Y-125022836D01*
X135109930Y-124765663D01*
X135278945Y-124486079D01*
X135413027Y-124188161D01*
X135510221Y-123876253D01*
X135519503Y-123825600D01*
X137414740Y-123825600D01*
X137434526Y-124013856D01*
X137434527Y-124013859D01*
X137493018Y-124193877D01*
X137493021Y-124193884D01*
X137587667Y-124357816D01*
X137683157Y-124463868D01*
X137714329Y-124498488D01*
X137867465Y-124609748D01*
X137867470Y-124609751D01*
X137999894Y-124668711D01*
X138053131Y-124713961D01*
X138065995Y-124744770D01*
X138067518Y-124744276D01*
X138128018Y-124930477D01*
X138128021Y-124930484D01*
X138222667Y-125094416D01*
X138322455Y-125205241D01*
X138349329Y-125235088D01*
X138502465Y-125346348D01*
X138502470Y-125346351D01*
X138675392Y-125423342D01*
X138675397Y-125423344D01*
X138860554Y-125462700D01*
X138860555Y-125462700D01*
X139049844Y-125462700D01*
X139049846Y-125462700D01*
X139235003Y-125423344D01*
X139407930Y-125346351D01*
X139561071Y-125235088D01*
X139687733Y-125094416D01*
X139782379Y-124930484D01*
X139840874Y-124750456D01*
X139860660Y-124562200D01*
X139840874Y-124373944D01*
X139782379Y-124193916D01*
X139687733Y-124029984D01*
X139561071Y-123889312D01*
X139556861Y-123886253D01*
X139407934Y-123778051D01*
X139407932Y-123778050D01*
X139275504Y-123719088D01*
X139222268Y-123673837D01*
X139209418Y-123643025D01*
X139207882Y-123643525D01*
X139205872Y-123637340D01*
X139155427Y-123482084D01*
X139147381Y-123457321D01*
X139147378Y-123457315D01*
X139052733Y-123293384D01*
X138926071Y-123152712D01*
X138926070Y-123152711D01*
X138772934Y-123041451D01*
X138772929Y-123041448D01*
X138600007Y-122964457D01*
X138600002Y-122964455D01*
X138454201Y-122933465D01*
X138414846Y-122925100D01*
X138225554Y-122925100D01*
X138193097Y-122931998D01*
X138040397Y-122964455D01*
X138040392Y-122964457D01*
X137867470Y-123041448D01*
X137867465Y-123041451D01*
X137714329Y-123152711D01*
X137587666Y-123293385D01*
X137493021Y-123457315D01*
X137493018Y-123457322D01*
X137435285Y-123635008D01*
X137434526Y-123637344D01*
X137414740Y-123825600D01*
X135519503Y-123825600D01*
X135569110Y-123554904D01*
X135588836Y-123228800D01*
X135569110Y-122902696D01*
X135510221Y-122581347D01*
X135502011Y-122555000D01*
X150605540Y-122555000D01*
X150625326Y-122743256D01*
X150625327Y-122743259D01*
X150683818Y-122923277D01*
X150683821Y-122923284D01*
X150778467Y-123087216D01*
X150863106Y-123181217D01*
X150905129Y-123227888D01*
X151058265Y-123339148D01*
X151058270Y-123339151D01*
X151231192Y-123416142D01*
X151231197Y-123416144D01*
X151416354Y-123455500D01*
X151483241Y-123455500D01*
X151550280Y-123475185D01*
X151596035Y-123527989D01*
X151596519Y-123529061D01*
X151598219Y-123532880D01*
X151598221Y-123532884D01*
X151692867Y-123696816D01*
X151808825Y-123825600D01*
X151819529Y-123837488D01*
X151972665Y-123948748D01*
X151972670Y-123948751D01*
X152145592Y-124025742D01*
X152145597Y-124025744D01*
X152330754Y-124065100D01*
X152330755Y-124065100D01*
X152520044Y-124065100D01*
X152520046Y-124065100D01*
X152705203Y-124025744D01*
X152878130Y-123948751D01*
X153031271Y-123837488D01*
X153157933Y-123696816D01*
X153252579Y-123532884D01*
X153311074Y-123352856D01*
X153330860Y-123164600D01*
X153325521Y-123113800D01*
X154493540Y-123113800D01*
X154513326Y-123302056D01*
X154513327Y-123302059D01*
X154571818Y-123482077D01*
X154571821Y-123482084D01*
X154666467Y-123646016D01*
X154732262Y-123719088D01*
X154793129Y-123786688D01*
X154946265Y-123897948D01*
X154946270Y-123897951D01*
X155119192Y-123974942D01*
X155119197Y-123974944D01*
X155304354Y-124014300D01*
X155304355Y-124014300D01*
X155493644Y-124014300D01*
X155493646Y-124014300D01*
X155678803Y-123974944D01*
X155851730Y-123897951D01*
X156004871Y-123786688D01*
X156131533Y-123646016D01*
X156226179Y-123482084D01*
X156284674Y-123302056D01*
X156304460Y-123113800D01*
X156284674Y-122925544D01*
X156226179Y-122745516D01*
X156131533Y-122581584D01*
X156004871Y-122440912D01*
X156004870Y-122440911D01*
X155851734Y-122329651D01*
X155851729Y-122329648D01*
X155678807Y-122252657D01*
X155678802Y-122252655D01*
X155533001Y-122221665D01*
X155493646Y-122213300D01*
X155304354Y-122213300D01*
X155271897Y-122220198D01*
X155119197Y-122252655D01*
X155119192Y-122252657D01*
X154946270Y-122329648D01*
X154946265Y-122329651D01*
X154793129Y-122440911D01*
X154666466Y-122581585D01*
X154571821Y-122745515D01*
X154571818Y-122745522D01*
X154514060Y-122923284D01*
X154513326Y-122925544D01*
X154493540Y-123113800D01*
X153325521Y-123113800D01*
X153311074Y-122976344D01*
X153252579Y-122796316D01*
X153157933Y-122632384D01*
X153031271Y-122491712D01*
X153031270Y-122491711D01*
X152878134Y-122380451D01*
X152878129Y-122380448D01*
X152705207Y-122303457D01*
X152705202Y-122303455D01*
X152545164Y-122269439D01*
X152520046Y-122264100D01*
X152520045Y-122264100D01*
X152453159Y-122264100D01*
X152386120Y-122244415D01*
X152340365Y-122191611D01*
X152339881Y-122190539D01*
X152338181Y-122186722D01*
X152338179Y-122186716D01*
X152243533Y-122022784D01*
X152116871Y-121882112D01*
X152108043Y-121875698D01*
X151963734Y-121770851D01*
X151963729Y-121770848D01*
X151790807Y-121693857D01*
X151790802Y-121693855D01*
X151645001Y-121662865D01*
X151605646Y-121654500D01*
X151416354Y-121654500D01*
X151383897Y-121661398D01*
X151231197Y-121693855D01*
X151231192Y-121693857D01*
X151058270Y-121770848D01*
X151058265Y-121770851D01*
X150905129Y-121882111D01*
X150778466Y-122022785D01*
X150683821Y-122186715D01*
X150683818Y-122186722D01*
X150645889Y-122303457D01*
X150625326Y-122366744D01*
X150605540Y-122555000D01*
X135502011Y-122555000D01*
X135484745Y-122499591D01*
X135413033Y-122269457D01*
X135413031Y-122269452D01*
X135413027Y-122269439D01*
X135278945Y-121971521D01*
X135109930Y-121691937D01*
X135109928Y-121691934D01*
X135109926Y-121691931D01*
X134908445Y-121434760D01*
X134677439Y-121203754D01*
X134420268Y-121002273D01*
X134412706Y-120997701D01*
X134299722Y-120929400D01*
X155253740Y-120929400D01*
X155273526Y-121117656D01*
X155273527Y-121117659D01*
X155332018Y-121297677D01*
X155332021Y-121297684D01*
X155426667Y-121461616D01*
X155553329Y-121602288D01*
X155706465Y-121713548D01*
X155706470Y-121713551D01*
X155879392Y-121790542D01*
X155879397Y-121790544D01*
X156064554Y-121829900D01*
X156064555Y-121829900D01*
X156253844Y-121829900D01*
X156253846Y-121829900D01*
X156439003Y-121790544D01*
X156611930Y-121713551D01*
X156765071Y-121602288D01*
X156891733Y-121461616D01*
X156986379Y-121297684D01*
X157044874Y-121117656D01*
X157064660Y-120929400D01*
X157044874Y-120741144D01*
X156986379Y-120561116D01*
X156891733Y-120397184D01*
X156765071Y-120256512D01*
X156743916Y-120241142D01*
X156611934Y-120145251D01*
X156611929Y-120145248D01*
X156439007Y-120068257D01*
X156439002Y-120068255D01*
X156293201Y-120037265D01*
X156253846Y-120028900D01*
X156064554Y-120028900D01*
X156032097Y-120035798D01*
X155879397Y-120068255D01*
X155879392Y-120068257D01*
X155706470Y-120145248D01*
X155706465Y-120145251D01*
X155553329Y-120256511D01*
X155426666Y-120397185D01*
X155332021Y-120561115D01*
X155332018Y-120561122D01*
X155273527Y-120741140D01*
X155273526Y-120741144D01*
X155253740Y-120929400D01*
X134299722Y-120929400D01*
X134140679Y-120833255D01*
X133842761Y-120699173D01*
X133842754Y-120699170D01*
X133842742Y-120699166D01*
X133530852Y-120601978D01*
X133209499Y-120543089D01*
X132883400Y-120523364D01*
X132557300Y-120543089D01*
X132235947Y-120601978D01*
X131924057Y-120699166D01*
X131924041Y-120699172D01*
X131924039Y-120699173D01*
X131626121Y-120833255D01*
X131609581Y-120843254D01*
X131346531Y-121002273D01*
X131089360Y-121203754D01*
X130858354Y-121434760D01*
X130656873Y-121691931D01*
X130595206Y-121793941D01*
X130496701Y-121956889D01*
X130487854Y-121971523D01*
X130487853Y-121971525D01*
X130464783Y-122022784D01*
X130361327Y-122252656D01*
X130353772Y-122269442D01*
X130353766Y-122269457D01*
X130256578Y-122581347D01*
X130197689Y-122902700D01*
X130177964Y-123228800D01*
X129353900Y-123228800D01*
X129353900Y-123172415D01*
X129353867Y-123171982D01*
X129351874Y-118973600D01*
X130615740Y-118973600D01*
X130635526Y-119161856D01*
X130635527Y-119161859D01*
X130694018Y-119341877D01*
X130694021Y-119341884D01*
X130788667Y-119505816D01*
X130888365Y-119616541D01*
X130915329Y-119646488D01*
X131068465Y-119757748D01*
X131068470Y-119757751D01*
X131241392Y-119834742D01*
X131241397Y-119834744D01*
X131426554Y-119874100D01*
X131426555Y-119874100D01*
X131615844Y-119874100D01*
X131615846Y-119874100D01*
X131801003Y-119834744D01*
X131973930Y-119757751D01*
X132127071Y-119646488D01*
X132253733Y-119505816D01*
X132326373Y-119380000D01*
X147887740Y-119380000D01*
X147907526Y-119568256D01*
X147907527Y-119568259D01*
X147966018Y-119748277D01*
X147966021Y-119748284D01*
X148060667Y-119912216D01*
X148165730Y-120028900D01*
X148187329Y-120052888D01*
X148340465Y-120164148D01*
X148340470Y-120164151D01*
X148513392Y-120241142D01*
X148513397Y-120241144D01*
X148698554Y-120280500D01*
X148698555Y-120280500D01*
X148887844Y-120280500D01*
X148887846Y-120280500D01*
X149073003Y-120241144D01*
X149245930Y-120164151D01*
X149399071Y-120052888D01*
X149525733Y-119912216D01*
X149620379Y-119748284D01*
X149678874Y-119568256D01*
X149679633Y-119561036D01*
X149938219Y-119561036D01*
X149958005Y-119749292D01*
X149958006Y-119749295D01*
X150016497Y-119929313D01*
X150016500Y-119929320D01*
X150111146Y-120093252D01*
X150174984Y-120164151D01*
X150237808Y-120233924D01*
X150390944Y-120345184D01*
X150390949Y-120345187D01*
X150563871Y-120422178D01*
X150563876Y-120422180D01*
X150749033Y-120461536D01*
X150749034Y-120461536D01*
X150938323Y-120461536D01*
X150938325Y-120461536D01*
X151123482Y-120422180D01*
X151296409Y-120345187D01*
X151449550Y-120233924D01*
X151576212Y-120093252D01*
X151670858Y-119929320D01*
X151729353Y-119749292D01*
X151749139Y-119561036D01*
X151729353Y-119372780D01*
X151670858Y-119192752D01*
X151576212Y-119028820D01*
X151449550Y-118888148D01*
X151449549Y-118888147D01*
X151296413Y-118776887D01*
X151296408Y-118776884D01*
X151123486Y-118699893D01*
X151123481Y-118699891D01*
X150977680Y-118668901D01*
X150938325Y-118660536D01*
X150749033Y-118660536D01*
X150716576Y-118667434D01*
X150563876Y-118699891D01*
X150563871Y-118699893D01*
X150390949Y-118776884D01*
X150390944Y-118776887D01*
X150237808Y-118888147D01*
X150111145Y-119028821D01*
X150016500Y-119192751D01*
X150016497Y-119192758D01*
X149958006Y-119372776D01*
X149958005Y-119372780D01*
X149938219Y-119561036D01*
X149679633Y-119561036D01*
X149698660Y-119380000D01*
X149678874Y-119191744D01*
X149620379Y-119011716D01*
X149525733Y-118847784D01*
X149399071Y-118707112D01*
X149389135Y-118699893D01*
X149245934Y-118595851D01*
X149245929Y-118595848D01*
X149073007Y-118518857D01*
X149073002Y-118518855D01*
X148927201Y-118487865D01*
X148887846Y-118479500D01*
X148698554Y-118479500D01*
X148666097Y-118486398D01*
X148513397Y-118518855D01*
X148513392Y-118518857D01*
X148340470Y-118595848D01*
X148340465Y-118595851D01*
X148187329Y-118707111D01*
X148060666Y-118847785D01*
X147966021Y-119011715D01*
X147966018Y-119011722D01*
X147917237Y-119161856D01*
X147907526Y-119191744D01*
X147887740Y-119380000D01*
X132326373Y-119380000D01*
X132348379Y-119341884D01*
X132406874Y-119161856D01*
X132426660Y-118973600D01*
X132406874Y-118785344D01*
X132348379Y-118605316D01*
X132253733Y-118441384D01*
X132127071Y-118300712D01*
X132127070Y-118300711D01*
X131973934Y-118189451D01*
X131973929Y-118189448D01*
X131801007Y-118112457D01*
X131801002Y-118112455D01*
X131655201Y-118081465D01*
X131615846Y-118073100D01*
X131426554Y-118073100D01*
X131394097Y-118079998D01*
X131241397Y-118112455D01*
X131241392Y-118112457D01*
X131068470Y-118189448D01*
X131068465Y-118189451D01*
X130915329Y-118300711D01*
X130788666Y-118441385D01*
X130694021Y-118605315D01*
X130694018Y-118605322D01*
X130638274Y-118776887D01*
X130635526Y-118785344D01*
X130615740Y-118973600D01*
X129351874Y-118973600D01*
X129351114Y-117373400D01*
X140648740Y-117373400D01*
X140668526Y-117561656D01*
X140668527Y-117561659D01*
X140727018Y-117741677D01*
X140727021Y-117741684D01*
X140821667Y-117905616D01*
X140948329Y-118046288D01*
X141101465Y-118157548D01*
X141101470Y-118157551D01*
X141274392Y-118234542D01*
X141274397Y-118234544D01*
X141459554Y-118273900D01*
X141459555Y-118273900D01*
X141648844Y-118273900D01*
X141648846Y-118273900D01*
X141834003Y-118234544D01*
X142006930Y-118157551D01*
X142160071Y-118046288D01*
X142286733Y-117905616D01*
X142359373Y-117779800D01*
X173922740Y-117779800D01*
X173942526Y-117968056D01*
X173942527Y-117968059D01*
X174001018Y-118148077D01*
X174001021Y-118148084D01*
X174095667Y-118312016D01*
X174212151Y-118441384D01*
X174222329Y-118452688D01*
X174375465Y-118563948D01*
X174375470Y-118563951D01*
X174548392Y-118640942D01*
X174548397Y-118640944D01*
X174733554Y-118680300D01*
X174733555Y-118680300D01*
X174922844Y-118680300D01*
X174922846Y-118680300D01*
X175108003Y-118640944D01*
X175280930Y-118563951D01*
X175434071Y-118452688D01*
X175560733Y-118312016D01*
X175655379Y-118148084D01*
X175713874Y-117968056D01*
X175733660Y-117779800D01*
X175713874Y-117591544D01*
X175655379Y-117411516D01*
X175560733Y-117247584D01*
X175434071Y-117106912D01*
X175434070Y-117106911D01*
X175280934Y-116995651D01*
X175280929Y-116995648D01*
X175108007Y-116918657D01*
X175108002Y-116918655D01*
X174962201Y-116887665D01*
X174922846Y-116879300D01*
X174733554Y-116879300D01*
X174701097Y-116886198D01*
X174548397Y-116918655D01*
X174548392Y-116918657D01*
X174375470Y-116995648D01*
X174375465Y-116995651D01*
X174222329Y-117106911D01*
X174095666Y-117247585D01*
X174001021Y-117411515D01*
X174001018Y-117411522D01*
X173952237Y-117561656D01*
X173942526Y-117591544D01*
X173922740Y-117779800D01*
X142359373Y-117779800D01*
X142381379Y-117741684D01*
X142439874Y-117561656D01*
X142459660Y-117373400D01*
X142439874Y-117185144D01*
X142381379Y-117005116D01*
X142286733Y-116841184D01*
X142160071Y-116700512D01*
X142160070Y-116700511D01*
X142006934Y-116589251D01*
X142006929Y-116589248D01*
X141834007Y-116512257D01*
X141834002Y-116512255D01*
X141688201Y-116481265D01*
X141648846Y-116472900D01*
X141459554Y-116472900D01*
X141427097Y-116479798D01*
X141274397Y-116512255D01*
X141274392Y-116512257D01*
X141101470Y-116589248D01*
X141101465Y-116589251D01*
X140948329Y-116700511D01*
X140821666Y-116841185D01*
X140727021Y-117005115D01*
X140727018Y-117005122D01*
X140693945Y-117106912D01*
X140668526Y-117185144D01*
X140648740Y-117373400D01*
X129351114Y-117373400D01*
X129350125Y-115290600D01*
X140826540Y-115290600D01*
X140846326Y-115478856D01*
X140846327Y-115478859D01*
X140904818Y-115658877D01*
X140904821Y-115658884D01*
X140999467Y-115822816D01*
X141126129Y-115963488D01*
X141279265Y-116074748D01*
X141279270Y-116074751D01*
X141452192Y-116151742D01*
X141452197Y-116151744D01*
X141637354Y-116191100D01*
X141637355Y-116191100D01*
X141826644Y-116191100D01*
X141826646Y-116191100D01*
X142011803Y-116151744D01*
X142184730Y-116074751D01*
X142337871Y-115963488D01*
X142464533Y-115822816D01*
X142559179Y-115658884D01*
X142617674Y-115478856D01*
X142634790Y-115316000D01*
X155177540Y-115316000D01*
X155197326Y-115504256D01*
X155197327Y-115504259D01*
X155255818Y-115684277D01*
X155255821Y-115684284D01*
X155350467Y-115848216D01*
X155454259Y-115963488D01*
X155477129Y-115988888D01*
X155630265Y-116100148D01*
X155630270Y-116100151D01*
X155803192Y-116177142D01*
X155803197Y-116177144D01*
X155988354Y-116216500D01*
X155988355Y-116216500D01*
X156177644Y-116216500D01*
X156177646Y-116216500D01*
X156362803Y-116177144D01*
X156535730Y-116100151D01*
X156688871Y-115988888D01*
X156815533Y-115848216D01*
X156910179Y-115684284D01*
X156968674Y-115504256D01*
X156969773Y-115493800D01*
X174075140Y-115493800D01*
X174094926Y-115682056D01*
X174094927Y-115682059D01*
X174153418Y-115862077D01*
X174153421Y-115862084D01*
X174248067Y-116026016D01*
X174314816Y-116100148D01*
X174374729Y-116166688D01*
X174527865Y-116277948D01*
X174527870Y-116277951D01*
X174700792Y-116354942D01*
X174700797Y-116354944D01*
X174885954Y-116394300D01*
X174885955Y-116394300D01*
X175075244Y-116394300D01*
X175075246Y-116394300D01*
X175260403Y-116354944D01*
X175433330Y-116277951D01*
X175586471Y-116166688D01*
X175713133Y-116026016D01*
X175807779Y-115862084D01*
X175866274Y-115682056D01*
X175886060Y-115493800D01*
X175866274Y-115305544D01*
X175807779Y-115125516D01*
X175713133Y-114961584D01*
X175586471Y-114820912D01*
X175584115Y-114819200D01*
X175433334Y-114709651D01*
X175433329Y-114709648D01*
X175260407Y-114632657D01*
X175260402Y-114632655D01*
X175114601Y-114601665D01*
X175075246Y-114593300D01*
X174885954Y-114593300D01*
X174853497Y-114600198D01*
X174700797Y-114632655D01*
X174700792Y-114632657D01*
X174527870Y-114709648D01*
X174527865Y-114709651D01*
X174374729Y-114820911D01*
X174248066Y-114961585D01*
X174153421Y-115125515D01*
X174153418Y-115125522D01*
X174094927Y-115305540D01*
X174094926Y-115305544D01*
X174075140Y-115493800D01*
X156969773Y-115493800D01*
X156988460Y-115316000D01*
X156968674Y-115127744D01*
X156910179Y-114947716D01*
X156835979Y-114819198D01*
X156819507Y-114751300D01*
X156835980Y-114695200D01*
X156910179Y-114566684D01*
X156968674Y-114386656D01*
X156983121Y-114249200D01*
X158784340Y-114249200D01*
X158804126Y-114437456D01*
X158804127Y-114437459D01*
X158862618Y-114617477D01*
X158862621Y-114617484D01*
X158957267Y-114781416D01*
X159083929Y-114922088D01*
X159237065Y-115033348D01*
X159237070Y-115033351D01*
X159409992Y-115110342D01*
X159409997Y-115110344D01*
X159595154Y-115149700D01*
X159595155Y-115149700D01*
X159784444Y-115149700D01*
X159784446Y-115149700D01*
X159969603Y-115110344D01*
X160142530Y-115033351D01*
X160295671Y-114922088D01*
X160422333Y-114781416D01*
X160516979Y-114617484D01*
X160575474Y-114437456D01*
X160595260Y-114249200D01*
X160575474Y-114060944D01*
X160516979Y-113880916D01*
X160422333Y-113716984D01*
X160295671Y-113576312D01*
X160293728Y-113574900D01*
X160142534Y-113465051D01*
X160142529Y-113465048D01*
X159969607Y-113388057D01*
X159969602Y-113388055D01*
X159823801Y-113357065D01*
X159784446Y-113348700D01*
X159595154Y-113348700D01*
X159562697Y-113355598D01*
X159409997Y-113388055D01*
X159409992Y-113388057D01*
X159237070Y-113465048D01*
X159237065Y-113465051D01*
X159083929Y-113576311D01*
X158957266Y-113716985D01*
X158862621Y-113880915D01*
X158862618Y-113880922D01*
X158820633Y-114010140D01*
X158804126Y-114060944D01*
X158784340Y-114249200D01*
X156983121Y-114249200D01*
X156988460Y-114198400D01*
X156968674Y-114010144D01*
X156910179Y-113830116D01*
X156815533Y-113666184D01*
X156688871Y-113525512D01*
X156688870Y-113525511D01*
X156535734Y-113414251D01*
X156535729Y-113414248D01*
X156362807Y-113337257D01*
X156362802Y-113337255D01*
X156217001Y-113306265D01*
X156177646Y-113297900D01*
X155988354Y-113297900D01*
X155955897Y-113304798D01*
X155803197Y-113337255D01*
X155803192Y-113337257D01*
X155630270Y-113414248D01*
X155630265Y-113414251D01*
X155477129Y-113525511D01*
X155350466Y-113666185D01*
X155255821Y-113830115D01*
X155255818Y-113830122D01*
X155197327Y-114010140D01*
X155197326Y-114010144D01*
X155177540Y-114198400D01*
X155197326Y-114386656D01*
X155197327Y-114386659D01*
X155255818Y-114566677D01*
X155255820Y-114566681D01*
X155255821Y-114566684D01*
X155315373Y-114669832D01*
X155330020Y-114695201D01*
X155346492Y-114763101D01*
X155330020Y-114819199D01*
X155255820Y-114947718D01*
X155255818Y-114947722D01*
X155198050Y-115125515D01*
X155197326Y-115127744D01*
X155177540Y-115316000D01*
X142634790Y-115316000D01*
X142637460Y-115290600D01*
X142617674Y-115102344D01*
X142559179Y-114922316D01*
X142464533Y-114758384D01*
X142337871Y-114617712D01*
X142337870Y-114617711D01*
X142184734Y-114506451D01*
X142184729Y-114506448D01*
X142011807Y-114429457D01*
X142011802Y-114429455D01*
X141866001Y-114398465D01*
X141826646Y-114390100D01*
X141637354Y-114390100D01*
X141604897Y-114396998D01*
X141452197Y-114429455D01*
X141452192Y-114429457D01*
X141279270Y-114506448D01*
X141279265Y-114506451D01*
X141126129Y-114617711D01*
X140999466Y-114758385D01*
X140904821Y-114922315D01*
X140904818Y-114922322D01*
X140868744Y-115033348D01*
X140846326Y-115102344D01*
X140826540Y-115290600D01*
X129350125Y-115290600D01*
X129349581Y-114145181D01*
X137823519Y-114145181D01*
X137843305Y-114333437D01*
X137843306Y-114333440D01*
X137901797Y-114513458D01*
X137901800Y-114513465D01*
X137996446Y-114677397D01*
X138092238Y-114783784D01*
X138123108Y-114818069D01*
X138276244Y-114929329D01*
X138276249Y-114929332D01*
X138449171Y-115006323D01*
X138449176Y-115006325D01*
X138634333Y-115045681D01*
X138634334Y-115045681D01*
X138823623Y-115045681D01*
X138823625Y-115045681D01*
X139008782Y-115006325D01*
X139181709Y-114929332D01*
X139334850Y-114818069D01*
X139461512Y-114677397D01*
X139556158Y-114513465D01*
X139614653Y-114333437D01*
X139634439Y-114145181D01*
X139614653Y-113956925D01*
X139556158Y-113776897D01*
X139548348Y-113763370D01*
X139531875Y-113695473D01*
X139554726Y-113629446D01*
X139563578Y-113618407D01*
X139568433Y-113613016D01*
X139663079Y-113449084D01*
X139721574Y-113269056D01*
X139741360Y-113080800D01*
X139730682Y-112979200D01*
X161730740Y-112979200D01*
X161750526Y-113167456D01*
X161750527Y-113167459D01*
X161809018Y-113347477D01*
X161809021Y-113347484D01*
X161903667Y-113511416D01*
X161999990Y-113618393D01*
X162030329Y-113652088D01*
X162183465Y-113763348D01*
X162183470Y-113763351D01*
X162356392Y-113840342D01*
X162356397Y-113840344D01*
X162541554Y-113879700D01*
X162541555Y-113879700D01*
X162730844Y-113879700D01*
X162730846Y-113879700D01*
X162916003Y-113840344D01*
X163088930Y-113763351D01*
X163242071Y-113652088D01*
X163368733Y-113511416D01*
X163463379Y-113347484D01*
X163521874Y-113167456D01*
X163541660Y-112979200D01*
X163521874Y-112790944D01*
X163463379Y-112610916D01*
X163368733Y-112446984D01*
X163242071Y-112306312D01*
X163242070Y-112306311D01*
X163088934Y-112195051D01*
X163088929Y-112195048D01*
X162916007Y-112118057D01*
X162916002Y-112118055D01*
X162770201Y-112087065D01*
X162730846Y-112078700D01*
X162541554Y-112078700D01*
X162509097Y-112085598D01*
X162356397Y-112118055D01*
X162356392Y-112118057D01*
X162183470Y-112195048D01*
X162183465Y-112195051D01*
X162030329Y-112306311D01*
X161903666Y-112446985D01*
X161809021Y-112610915D01*
X161809018Y-112610922D01*
X161764691Y-112747348D01*
X161750526Y-112790944D01*
X161730740Y-112979200D01*
X139730682Y-112979200D01*
X139721574Y-112892544D01*
X139663079Y-112712516D01*
X139568433Y-112548584D01*
X139441771Y-112407912D01*
X139371537Y-112356884D01*
X139288634Y-112296651D01*
X139288629Y-112296648D01*
X139115707Y-112219657D01*
X139115702Y-112219655D01*
X138969901Y-112188665D01*
X138930546Y-112180300D01*
X138741254Y-112180300D01*
X138708797Y-112187198D01*
X138556097Y-112219655D01*
X138556092Y-112219657D01*
X138383170Y-112296648D01*
X138383165Y-112296651D01*
X138230029Y-112407911D01*
X138103366Y-112548585D01*
X138008721Y-112712515D01*
X138008718Y-112712522D01*
X137959213Y-112864884D01*
X137950226Y-112892544D01*
X137930440Y-113080800D01*
X137950226Y-113269056D01*
X137950227Y-113269059D01*
X138008720Y-113449082D01*
X138016531Y-113462612D01*
X138033001Y-113530513D01*
X138010148Y-113596539D01*
X138001296Y-113607578D01*
X137996447Y-113612963D01*
X137996443Y-113612968D01*
X137901800Y-113776896D01*
X137901797Y-113776903D01*
X137843306Y-113956921D01*
X137843305Y-113956925D01*
X137823519Y-114145181D01*
X129349581Y-114145181D01*
X129348304Y-111455200D01*
X131428540Y-111455200D01*
X131448326Y-111643456D01*
X131448327Y-111643459D01*
X131506818Y-111823477D01*
X131506821Y-111823484D01*
X131601467Y-111987416D01*
X131668216Y-112061548D01*
X131728129Y-112128088D01*
X131881265Y-112239348D01*
X131881270Y-112239351D01*
X132054192Y-112316342D01*
X132054193Y-112316342D01*
X132054197Y-112316344D01*
X132171415Y-112341259D01*
X132232897Y-112374451D01*
X132266674Y-112435614D01*
X132268956Y-112475506D01*
X132266864Y-112495416D01*
X132266740Y-112496600D01*
X132286526Y-112684856D01*
X132286527Y-112684859D01*
X132345018Y-112864877D01*
X132345021Y-112864884D01*
X132439667Y-113028816D01*
X132486474Y-113080800D01*
X132566329Y-113169488D01*
X132719465Y-113280748D01*
X132719470Y-113280751D01*
X132892392Y-113357742D01*
X132892397Y-113357744D01*
X133077554Y-113397100D01*
X133077555Y-113397100D01*
X133266844Y-113397100D01*
X133266846Y-113397100D01*
X133452003Y-113357744D01*
X133624930Y-113280751D01*
X133778071Y-113169488D01*
X133904733Y-113028816D01*
X133999379Y-112864884D01*
X134057874Y-112684856D01*
X134077660Y-112496600D01*
X134057874Y-112308344D01*
X133999379Y-112128316D01*
X133904733Y-111964384D01*
X133778071Y-111823712D01*
X133778070Y-111823711D01*
X133624934Y-111712451D01*
X133624929Y-111712448D01*
X133452007Y-111635457D01*
X133452002Y-111635455D01*
X133334783Y-111610540D01*
X133273301Y-111577348D01*
X133239525Y-111516185D01*
X133237243Y-111476291D01*
X133239460Y-111455200D01*
X133219674Y-111266944D01*
X133161179Y-111086916D01*
X133066533Y-110922984D01*
X133019726Y-110871000D01*
X140750340Y-110871000D01*
X140770126Y-111059256D01*
X140770127Y-111059259D01*
X140828618Y-111239277D01*
X140828619Y-111239279D01*
X140828621Y-111239284D01*
X140872746Y-111315711D01*
X140908187Y-111377097D01*
X140924659Y-111444997D01*
X140908187Y-111501095D01*
X140854020Y-111594916D01*
X140806782Y-111740302D01*
X140795526Y-111774944D01*
X140775740Y-111963200D01*
X140795526Y-112151456D01*
X140795527Y-112151459D01*
X140854018Y-112331477D01*
X140854021Y-112331484D01*
X140948667Y-112495416D01*
X141075329Y-112636088D01*
X141228465Y-112747348D01*
X141228470Y-112747351D01*
X141401392Y-112824342D01*
X141401397Y-112824344D01*
X141586554Y-112863700D01*
X141586555Y-112863700D01*
X141775844Y-112863700D01*
X141775846Y-112863700D01*
X141961003Y-112824344D01*
X142133930Y-112747351D01*
X142287071Y-112636088D01*
X142413733Y-112495416D01*
X142508379Y-112331484D01*
X142566874Y-112151456D01*
X142586660Y-111963200D01*
X142566874Y-111774944D01*
X142508379Y-111594916D01*
X142428811Y-111457101D01*
X142428350Y-111455200D01*
X143290340Y-111455200D01*
X143310126Y-111643456D01*
X143310127Y-111643459D01*
X143368618Y-111823477D01*
X143368621Y-111823484D01*
X143463267Y-111987416D01*
X143530016Y-112061548D01*
X143589929Y-112128088D01*
X143743065Y-112239348D01*
X143743070Y-112239351D01*
X143915992Y-112316342D01*
X143915997Y-112316344D01*
X144101154Y-112355700D01*
X144101155Y-112355700D01*
X144290444Y-112355700D01*
X144290446Y-112355700D01*
X144475603Y-112316344D01*
X144648530Y-112239351D01*
X144801671Y-112128088D01*
X144927267Y-111988600D01*
X159317740Y-111988600D01*
X159337526Y-112176856D01*
X159337527Y-112176859D01*
X159396018Y-112356877D01*
X159396021Y-112356884D01*
X159490667Y-112520816D01*
X159571793Y-112610915D01*
X159617329Y-112661488D01*
X159770465Y-112772748D01*
X159770470Y-112772751D01*
X159943392Y-112849742D01*
X159943397Y-112849744D01*
X160128554Y-112889100D01*
X160128555Y-112889100D01*
X160317844Y-112889100D01*
X160317846Y-112889100D01*
X160503003Y-112849744D01*
X160675930Y-112772751D01*
X160829071Y-112661488D01*
X160955733Y-112520816D01*
X161050379Y-112356884D01*
X161108874Y-112176856D01*
X161128660Y-111988600D01*
X161108874Y-111800344D01*
X161050379Y-111620316D01*
X160955733Y-111456384D01*
X160829071Y-111315712D01*
X160829070Y-111315711D01*
X160776340Y-111277400D01*
X166074140Y-111277400D01*
X166093926Y-111465656D01*
X166093927Y-111465659D01*
X166152418Y-111645677D01*
X166152421Y-111645684D01*
X166247067Y-111809616D01*
X166373729Y-111950288D01*
X166526865Y-112061548D01*
X166526870Y-112061551D01*
X166699792Y-112138542D01*
X166699797Y-112138544D01*
X166884954Y-112177900D01*
X166884955Y-112177900D01*
X167074244Y-112177900D01*
X167074246Y-112177900D01*
X167259403Y-112138544D01*
X167432330Y-112061551D01*
X167585471Y-111950288D01*
X167712133Y-111809616D01*
X167806779Y-111645684D01*
X167865274Y-111465656D01*
X167885060Y-111277400D01*
X167865274Y-111089144D01*
X167806779Y-110909116D01*
X167712133Y-110745184D01*
X167642456Y-110667800D01*
X169325340Y-110667800D01*
X169345126Y-110856056D01*
X169345127Y-110856059D01*
X169403618Y-111036077D01*
X169403621Y-111036084D01*
X169498267Y-111200016D01*
X169618098Y-111333101D01*
X169624929Y-111340688D01*
X169778065Y-111451948D01*
X169778070Y-111451951D01*
X169950992Y-111528942D01*
X169950993Y-111528942D01*
X169950997Y-111528944D01*
X170136154Y-111568300D01*
X170136158Y-111568300D01*
X170138063Y-111568705D01*
X170199545Y-111601897D01*
X170233322Y-111663060D01*
X170228670Y-111732774D01*
X170187066Y-111788907D01*
X170138072Y-111811284D01*
X170128795Y-111813256D01*
X170128792Y-111813257D01*
X169955870Y-111890248D01*
X169955865Y-111890251D01*
X169802729Y-112001511D01*
X169676066Y-112142185D01*
X169581421Y-112306115D01*
X169581418Y-112306122D01*
X169522927Y-112486140D01*
X169522926Y-112486144D01*
X169503140Y-112674400D01*
X169522926Y-112862656D01*
X169522927Y-112862659D01*
X169581418Y-113042677D01*
X169581421Y-113042684D01*
X169676067Y-113206616D01*
X169742816Y-113280748D01*
X169802729Y-113347288D01*
X169955865Y-113458548D01*
X169955870Y-113458551D01*
X170128792Y-113535542D01*
X170128797Y-113535544D01*
X170313954Y-113574900D01*
X170313955Y-113574900D01*
X170503244Y-113574900D01*
X170503246Y-113574900D01*
X170688403Y-113535544D01*
X170861330Y-113458551D01*
X171014471Y-113347288D01*
X171141133Y-113206616D01*
X171235779Y-113042684D01*
X171294274Y-112862656D01*
X171314060Y-112674400D01*
X171294274Y-112486144D01*
X171235779Y-112306116D01*
X171141133Y-112142184D01*
X171014471Y-112001512D01*
X171014470Y-112001511D01*
X170861334Y-111890251D01*
X170861329Y-111890248D01*
X170688407Y-111813257D01*
X170688402Y-111813255D01*
X170538025Y-111781292D01*
X170503246Y-111773900D01*
X170503245Y-111773900D01*
X170501335Y-111773494D01*
X170439853Y-111740302D01*
X170406077Y-111679139D01*
X170410729Y-111609424D01*
X170452334Y-111553292D01*
X170501332Y-111530914D01*
X170510603Y-111528944D01*
X170510607Y-111528942D01*
X170510608Y-111528942D01*
X170628871Y-111476287D01*
X170683530Y-111451951D01*
X170836671Y-111340688D01*
X170963333Y-111200016D01*
X171057979Y-111036084D01*
X171116474Y-110856056D01*
X171136260Y-110667800D01*
X171116474Y-110479544D01*
X171057979Y-110299516D01*
X170970392Y-110147810D01*
X170963335Y-110135587D01*
X170963334Y-110135586D01*
X170963333Y-110135584D01*
X170877737Y-110040520D01*
X170855240Y-109993641D01*
X170823669Y-109985021D01*
X170815825Y-109979766D01*
X170683534Y-109883651D01*
X170683529Y-109883648D01*
X170510607Y-109806657D01*
X170510602Y-109806655D01*
X170364801Y-109775665D01*
X170325446Y-109767300D01*
X170136154Y-109767300D01*
X170103697Y-109774198D01*
X169950997Y-109806655D01*
X169950992Y-109806657D01*
X169778070Y-109883648D01*
X169778065Y-109883651D01*
X169624929Y-109994911D01*
X169498266Y-110135585D01*
X169403621Y-110299515D01*
X169403618Y-110299522D01*
X169345127Y-110479540D01*
X169345126Y-110479544D01*
X169325340Y-110667800D01*
X167642456Y-110667800D01*
X167585471Y-110604512D01*
X167571081Y-110594057D01*
X167432334Y-110493251D01*
X167432329Y-110493248D01*
X167259407Y-110416257D01*
X167259402Y-110416255D01*
X167113601Y-110385265D01*
X167074246Y-110376900D01*
X166884954Y-110376900D01*
X166852497Y-110383798D01*
X166699797Y-110416255D01*
X166699792Y-110416257D01*
X166526870Y-110493248D01*
X166526865Y-110493251D01*
X166373729Y-110604511D01*
X166247066Y-110745185D01*
X166152421Y-110909115D01*
X166152418Y-110909122D01*
X166111166Y-111036084D01*
X166093926Y-111089144D01*
X166074140Y-111277400D01*
X160776340Y-111277400D01*
X160675934Y-111204451D01*
X160675929Y-111204448D01*
X160503007Y-111127457D01*
X160503002Y-111127455D01*
X160357201Y-111096465D01*
X160317846Y-111088100D01*
X160128554Y-111088100D01*
X160096097Y-111094998D01*
X159943397Y-111127455D01*
X159943392Y-111127457D01*
X159770470Y-111204448D01*
X159770465Y-111204451D01*
X159617329Y-111315711D01*
X159490666Y-111456385D01*
X159396021Y-111620315D01*
X159396018Y-111620322D01*
X159346250Y-111773494D01*
X159337526Y-111800344D01*
X159317740Y-111988600D01*
X144927267Y-111988600D01*
X144928333Y-111987416D01*
X145022979Y-111823484D01*
X145081474Y-111643456D01*
X145101260Y-111455200D01*
X145081474Y-111266944D01*
X145022979Y-111086916D01*
X144928333Y-110922984D01*
X144801671Y-110782312D01*
X144801670Y-110782311D01*
X144748940Y-110744000D01*
X148852940Y-110744000D01*
X148872726Y-110932256D01*
X148872727Y-110932259D01*
X148931218Y-111112277D01*
X148931221Y-111112284D01*
X149025867Y-111276216D01*
X149140219Y-111403216D01*
X149152529Y-111416888D01*
X149305665Y-111528148D01*
X149305670Y-111528151D01*
X149478592Y-111605142D01*
X149478597Y-111605144D01*
X149663754Y-111644500D01*
X149663755Y-111644500D01*
X149853044Y-111644500D01*
X149853046Y-111644500D01*
X150038203Y-111605144D01*
X150211130Y-111528151D01*
X150364271Y-111416888D01*
X150490933Y-111276216D01*
X150585579Y-111112284D01*
X150644074Y-110932256D01*
X150655799Y-110820699D01*
X152663439Y-110820699D01*
X152683225Y-111008955D01*
X152683226Y-111008958D01*
X152741717Y-111188976D01*
X152741720Y-111188983D01*
X152836366Y-111352915D01*
X152947451Y-111476287D01*
X152963028Y-111493587D01*
X153116164Y-111604847D01*
X153116169Y-111604850D01*
X153289091Y-111681841D01*
X153289096Y-111681843D01*
X153474253Y-111721199D01*
X153474254Y-111721199D01*
X153663543Y-111721199D01*
X153663545Y-111721199D01*
X153848702Y-111681843D01*
X154021629Y-111604850D01*
X154174770Y-111493587D01*
X154301432Y-111352915D01*
X154396078Y-111188983D01*
X154454573Y-111008955D01*
X154474359Y-110820699D01*
X154454573Y-110632443D01*
X154396078Y-110452415D01*
X154301432Y-110288483D01*
X154174770Y-110147811D01*
X154173500Y-110146888D01*
X154021633Y-110036550D01*
X154021628Y-110036547D01*
X153848706Y-109959556D01*
X153848701Y-109959554D01*
X153702900Y-109928564D01*
X153663545Y-109920199D01*
X153474253Y-109920199D01*
X153441796Y-109927097D01*
X153289096Y-109959554D01*
X153289091Y-109959556D01*
X153116169Y-110036547D01*
X153116164Y-110036550D01*
X152963028Y-110147810D01*
X152836365Y-110288484D01*
X152741720Y-110452414D01*
X152741717Y-110452421D01*
X152692300Y-110604512D01*
X152683225Y-110632443D01*
X152663439Y-110820699D01*
X150655799Y-110820699D01*
X150663860Y-110744000D01*
X150644074Y-110555744D01*
X150585579Y-110375716D01*
X150490933Y-110211784D01*
X150364271Y-110071112D01*
X150362328Y-110069700D01*
X150211134Y-109959851D01*
X150211129Y-109959848D01*
X150038207Y-109882857D01*
X150038202Y-109882855D01*
X149892401Y-109851865D01*
X149853046Y-109843500D01*
X149663754Y-109843500D01*
X149631297Y-109850398D01*
X149478597Y-109882855D01*
X149478592Y-109882857D01*
X149305670Y-109959848D01*
X149305665Y-109959851D01*
X149152529Y-110071111D01*
X149025866Y-110211785D01*
X148931221Y-110375715D01*
X148931218Y-110375722D01*
X148873065Y-110554700D01*
X148872726Y-110555744D01*
X148852940Y-110744000D01*
X144748940Y-110744000D01*
X144648534Y-110671051D01*
X144648529Y-110671048D01*
X144475607Y-110594057D01*
X144475602Y-110594055D01*
X144329801Y-110563065D01*
X144290446Y-110554700D01*
X144101154Y-110554700D01*
X144068697Y-110561598D01*
X143915997Y-110594055D01*
X143915992Y-110594057D01*
X143743070Y-110671048D01*
X143743065Y-110671051D01*
X143589929Y-110782311D01*
X143463266Y-110922985D01*
X143368621Y-111086915D01*
X143368618Y-111086922D01*
X143319115Y-111239279D01*
X143310126Y-111266944D01*
X143290340Y-111455200D01*
X142428350Y-111455200D01*
X142412339Y-111389202D01*
X142428810Y-111333106D01*
X142482979Y-111239284D01*
X142541474Y-111059256D01*
X142561260Y-110871000D01*
X142541474Y-110682744D01*
X142482979Y-110502716D01*
X142388333Y-110338784D01*
X142261671Y-110198112D01*
X142261670Y-110198111D01*
X142108534Y-110086851D01*
X142108529Y-110086848D01*
X141935607Y-110009857D01*
X141935602Y-110009855D01*
X141789801Y-109978865D01*
X141750446Y-109970500D01*
X141561154Y-109970500D01*
X141528697Y-109977398D01*
X141375997Y-110009855D01*
X141375992Y-110009857D01*
X141203070Y-110086848D01*
X141203065Y-110086851D01*
X141049929Y-110198111D01*
X140923266Y-110338785D01*
X140828621Y-110502715D01*
X140828618Y-110502722D01*
X140773926Y-110671048D01*
X140770126Y-110682744D01*
X140750340Y-110871000D01*
X133019726Y-110871000D01*
X132939871Y-110782312D01*
X132939870Y-110782311D01*
X132786734Y-110671051D01*
X132786729Y-110671048D01*
X132613807Y-110594057D01*
X132613802Y-110594055D01*
X132468001Y-110563065D01*
X132428646Y-110554700D01*
X132239354Y-110554700D01*
X132206897Y-110561598D01*
X132054197Y-110594055D01*
X132054192Y-110594057D01*
X131881270Y-110671048D01*
X131881265Y-110671051D01*
X131728129Y-110782311D01*
X131601466Y-110922985D01*
X131506821Y-111086915D01*
X131506818Y-111086922D01*
X131457315Y-111239279D01*
X131448326Y-111266944D01*
X131428540Y-111455200D01*
X129348304Y-111455200D01*
X129347363Y-109474000D01*
X135086140Y-109474000D01*
X135105926Y-109662256D01*
X135105927Y-109662259D01*
X135164418Y-109842277D01*
X135164421Y-109842284D01*
X135259067Y-110006216D01*
X135375551Y-110135584D01*
X135385729Y-110146888D01*
X135538865Y-110258148D01*
X135538870Y-110258151D01*
X135711792Y-110335142D01*
X135711797Y-110335144D01*
X135896954Y-110374500D01*
X135896955Y-110374500D01*
X136086244Y-110374500D01*
X136086246Y-110374500D01*
X136271403Y-110335144D01*
X136444330Y-110258151D01*
X136597471Y-110146888D01*
X136724133Y-110006216D01*
X136818779Y-109842284D01*
X136877274Y-109662256D01*
X136897060Y-109474000D01*
X136877274Y-109285744D01*
X136818779Y-109105716D01*
X136724133Y-108941784D01*
X136597471Y-108801112D01*
X136597470Y-108801111D01*
X136444334Y-108689851D01*
X136444329Y-108689848D01*
X136437034Y-108686600D01*
X140674140Y-108686600D01*
X140693926Y-108874856D01*
X140693927Y-108874859D01*
X140752418Y-109054877D01*
X140752421Y-109054884D01*
X140847067Y-109218816D01*
X140971899Y-109357456D01*
X140973729Y-109359488D01*
X141126865Y-109470748D01*
X141126870Y-109470751D01*
X141299792Y-109547742D01*
X141299797Y-109547744D01*
X141484954Y-109587100D01*
X141484955Y-109587100D01*
X141674244Y-109587100D01*
X141674246Y-109587100D01*
X141859403Y-109547744D01*
X142032330Y-109470751D01*
X142185471Y-109359488D01*
X142312133Y-109218816D01*
X142406779Y-109054884D01*
X142465274Y-108874856D01*
X142485060Y-108686600D01*
X142465274Y-108498344D01*
X142419153Y-108356400D01*
X166988540Y-108356400D01*
X167008326Y-108544656D01*
X167008327Y-108544659D01*
X167066818Y-108724677D01*
X167066821Y-108724684D01*
X167161467Y-108888616D01*
X167209340Y-108941784D01*
X167288129Y-109029288D01*
X167441265Y-109140548D01*
X167441270Y-109140551D01*
X167614192Y-109217542D01*
X167614197Y-109217544D01*
X167799354Y-109256900D01*
X167799355Y-109256900D01*
X167988644Y-109256900D01*
X167988646Y-109256900D01*
X168173803Y-109217544D01*
X168282384Y-109169200D01*
X170722340Y-109169200D01*
X170742126Y-109357456D01*
X170742127Y-109357459D01*
X170800618Y-109537477D01*
X170800621Y-109537484D01*
X170895267Y-109701416D01*
X170980860Y-109796476D01*
X171003358Y-109843357D01*
X171034930Y-109851978D01*
X171042774Y-109857233D01*
X171175065Y-109953348D01*
X171175070Y-109953351D01*
X171347992Y-110030342D01*
X171347997Y-110030344D01*
X171533154Y-110069700D01*
X171533155Y-110069700D01*
X171722444Y-110069700D01*
X171722446Y-110069700D01*
X171907603Y-110030344D01*
X172080530Y-109953351D01*
X172233671Y-109842088D01*
X172360333Y-109701416D01*
X172454979Y-109537484D01*
X172513474Y-109357456D01*
X172533260Y-109169200D01*
X172513474Y-108980944D01*
X172454979Y-108800916D01*
X172360333Y-108636984D01*
X172233671Y-108496312D01*
X172233670Y-108496311D01*
X172080534Y-108385051D01*
X172080529Y-108385048D01*
X171907607Y-108308057D01*
X171907602Y-108308055D01*
X171761801Y-108277065D01*
X171722446Y-108268700D01*
X171533154Y-108268700D01*
X171500697Y-108275598D01*
X171347997Y-108308055D01*
X171347992Y-108308057D01*
X171175070Y-108385048D01*
X171175065Y-108385051D01*
X171021929Y-108496311D01*
X170895266Y-108636985D01*
X170800621Y-108800915D01*
X170800618Y-108800922D01*
X170742127Y-108980940D01*
X170742126Y-108980944D01*
X170722340Y-109169200D01*
X168282384Y-109169200D01*
X168346730Y-109140551D01*
X168499871Y-109029288D01*
X168626533Y-108888616D01*
X168721179Y-108724684D01*
X168779674Y-108544656D01*
X168799460Y-108356400D01*
X168779674Y-108168144D01*
X168721179Y-107988116D01*
X168626533Y-107824184D01*
X168499871Y-107683512D01*
X168499870Y-107683511D01*
X168346734Y-107572251D01*
X168346729Y-107572248D01*
X168173807Y-107495257D01*
X168173802Y-107495255D01*
X168028001Y-107464265D01*
X167988646Y-107455900D01*
X167799354Y-107455900D01*
X167766897Y-107462798D01*
X167614197Y-107495255D01*
X167614192Y-107495257D01*
X167441270Y-107572248D01*
X167441265Y-107572251D01*
X167288129Y-107683511D01*
X167161466Y-107824185D01*
X167066821Y-107988115D01*
X167066818Y-107988122D01*
X167008327Y-108168140D01*
X167008326Y-108168144D01*
X166988540Y-108356400D01*
X142419153Y-108356400D01*
X142406779Y-108318316D01*
X142312133Y-108154384D01*
X142185471Y-108013712D01*
X142182921Y-108011859D01*
X142032334Y-107902451D01*
X142032329Y-107902448D01*
X141859407Y-107825457D01*
X141859402Y-107825455D01*
X141713601Y-107794465D01*
X141674246Y-107786100D01*
X141484954Y-107786100D01*
X141452497Y-107792998D01*
X141299797Y-107825455D01*
X141299792Y-107825457D01*
X141126870Y-107902448D01*
X141126865Y-107902451D01*
X140973729Y-108013711D01*
X140847066Y-108154385D01*
X140752421Y-108318315D01*
X140752418Y-108318322D01*
X140694586Y-108496312D01*
X140693926Y-108498344D01*
X140674140Y-108686600D01*
X136437034Y-108686600D01*
X136271407Y-108612857D01*
X136271402Y-108612855D01*
X136125601Y-108581865D01*
X136086246Y-108573500D01*
X135896954Y-108573500D01*
X135864497Y-108580398D01*
X135711797Y-108612855D01*
X135711792Y-108612857D01*
X135538870Y-108689848D01*
X135538865Y-108689851D01*
X135385729Y-108801111D01*
X135259066Y-108941785D01*
X135164421Y-109105715D01*
X135164418Y-109105722D01*
X135127672Y-109218816D01*
X135105926Y-109285744D01*
X135086140Y-109474000D01*
X129347363Y-109474000D01*
X129346580Y-107823600D01*
X131293340Y-107823600D01*
X131313126Y-108011856D01*
X131313127Y-108011859D01*
X131371618Y-108191877D01*
X131371621Y-108191884D01*
X131466267Y-108355816D01*
X131592770Y-108496311D01*
X131592929Y-108496488D01*
X131746065Y-108607748D01*
X131746070Y-108607751D01*
X131918992Y-108684742D01*
X131918997Y-108684744D01*
X132104154Y-108724100D01*
X132104155Y-108724100D01*
X132293444Y-108724100D01*
X132293446Y-108724100D01*
X132478603Y-108684744D01*
X132651530Y-108607751D01*
X132804671Y-108496488D01*
X132931333Y-108355816D01*
X133025979Y-108191884D01*
X133084474Y-108011856D01*
X133104260Y-107823600D01*
X133084474Y-107635344D01*
X133025979Y-107455316D01*
X132981108Y-107377597D01*
X132964636Y-107309700D01*
X132981109Y-107253601D01*
X133025979Y-107175884D01*
X133084474Y-106995856D01*
X133104260Y-106807600D01*
X133093519Y-106705400D01*
X142172740Y-106705400D01*
X142192526Y-106893656D01*
X142192527Y-106893659D01*
X142251018Y-107073677D01*
X142251021Y-107073684D01*
X142345667Y-107237616D01*
X142421198Y-107321501D01*
X142472329Y-107378288D01*
X142625465Y-107489548D01*
X142625470Y-107489551D01*
X142798392Y-107566542D01*
X142798397Y-107566544D01*
X142983554Y-107605900D01*
X142983555Y-107605900D01*
X143172844Y-107605900D01*
X143172846Y-107605900D01*
X143358003Y-107566544D01*
X143530930Y-107489551D01*
X143684071Y-107378288D01*
X143810733Y-107237616D01*
X143905379Y-107073684D01*
X143963874Y-106893656D01*
X143964973Y-106883200D01*
X146439940Y-106883200D01*
X146459726Y-107071456D01*
X146459727Y-107071459D01*
X146518218Y-107251477D01*
X146518221Y-107251484D01*
X146612867Y-107415416D01*
X146739529Y-107556088D01*
X146892665Y-107667348D01*
X146892670Y-107667351D01*
X147065592Y-107744342D01*
X147065597Y-107744344D01*
X147250754Y-107783700D01*
X147250755Y-107783700D01*
X147440044Y-107783700D01*
X147440046Y-107783700D01*
X147625203Y-107744344D01*
X147798130Y-107667351D01*
X147951271Y-107556088D01*
X148077933Y-107415416D01*
X148172579Y-107251484D01*
X148231074Y-107071456D01*
X148250860Y-106883200D01*
X148231074Y-106694944D01*
X148172579Y-106514916D01*
X148077933Y-106350984D01*
X147951271Y-106210312D01*
X147951270Y-106210311D01*
X147798134Y-106099051D01*
X147798129Y-106099048D01*
X147625207Y-106022057D01*
X147625202Y-106022055D01*
X147494150Y-105994200D01*
X173770340Y-105994200D01*
X173790126Y-106182456D01*
X173790127Y-106182459D01*
X173848618Y-106362477D01*
X173848621Y-106362484D01*
X173943267Y-106526416D01*
X174026940Y-106619344D01*
X174069929Y-106667088D01*
X174223065Y-106778348D01*
X174223070Y-106778351D01*
X174395992Y-106855342D01*
X174395997Y-106855344D01*
X174581154Y-106894700D01*
X174581155Y-106894700D01*
X174770444Y-106894700D01*
X174770446Y-106894700D01*
X174955603Y-106855344D01*
X175128530Y-106778351D01*
X175281671Y-106667088D01*
X175408333Y-106526416D01*
X175502979Y-106362484D01*
X175561474Y-106182456D01*
X175581260Y-105994200D01*
X175561474Y-105805944D01*
X175502979Y-105625916D01*
X175408333Y-105461984D01*
X175281671Y-105321312D01*
X175281670Y-105321311D01*
X175128534Y-105210051D01*
X175128529Y-105210048D01*
X174955607Y-105133057D01*
X174955602Y-105133055D01*
X174809801Y-105102065D01*
X174770446Y-105093700D01*
X174581154Y-105093700D01*
X174548697Y-105100598D01*
X174395997Y-105133055D01*
X174395992Y-105133057D01*
X174223070Y-105210048D01*
X174223065Y-105210051D01*
X174069929Y-105321311D01*
X173943266Y-105461985D01*
X173848621Y-105625915D01*
X173848618Y-105625922D01*
X173790465Y-105804900D01*
X173790126Y-105805944D01*
X173770340Y-105994200D01*
X147494150Y-105994200D01*
X147479401Y-105991065D01*
X147440046Y-105982700D01*
X147250754Y-105982700D01*
X147218297Y-105989598D01*
X147065597Y-106022055D01*
X147065592Y-106022057D01*
X146892670Y-106099048D01*
X146892665Y-106099051D01*
X146739529Y-106210311D01*
X146612866Y-106350985D01*
X146518221Y-106514915D01*
X146518218Y-106514922D01*
X146468777Y-106667088D01*
X146459726Y-106694944D01*
X146439940Y-106883200D01*
X143964973Y-106883200D01*
X143983660Y-106705400D01*
X143963874Y-106517144D01*
X143905379Y-106337116D01*
X143810733Y-106173184D01*
X143684071Y-106032512D01*
X143671597Y-106023449D01*
X143530934Y-105921251D01*
X143530929Y-105921248D01*
X143358007Y-105844257D01*
X143358002Y-105844255D01*
X143212201Y-105813265D01*
X143172846Y-105804900D01*
X142983554Y-105804900D01*
X142951097Y-105811798D01*
X142798397Y-105844255D01*
X142798392Y-105844257D01*
X142625470Y-105921248D01*
X142625465Y-105921251D01*
X142472329Y-106032511D01*
X142345666Y-106173185D01*
X142251021Y-106337115D01*
X142251018Y-106337122D01*
X142193250Y-106514915D01*
X142192526Y-106517144D01*
X142172740Y-106705400D01*
X133093519Y-106705400D01*
X133084474Y-106619344D01*
X133025979Y-106439316D01*
X132931333Y-106275384D01*
X132804671Y-106134712D01*
X132755588Y-106099051D01*
X132651534Y-106023451D01*
X132651529Y-106023448D01*
X132478607Y-105946457D01*
X132478602Y-105946455D01*
X132332801Y-105915465D01*
X132293446Y-105907100D01*
X132104154Y-105907100D01*
X132071697Y-105913998D01*
X131918997Y-105946455D01*
X131918992Y-105946457D01*
X131746070Y-106023448D01*
X131746065Y-106023451D01*
X131592929Y-106134711D01*
X131466266Y-106275385D01*
X131371621Y-106439315D01*
X131371618Y-106439322D01*
X131343320Y-106526416D01*
X131313126Y-106619344D01*
X131293340Y-106807600D01*
X131313126Y-106995856D01*
X131313127Y-106995859D01*
X131371620Y-107175883D01*
X131416490Y-107253601D01*
X131432962Y-107321501D01*
X131416490Y-107377599D01*
X131371620Y-107455316D01*
X131333626Y-107572251D01*
X131313126Y-107635344D01*
X131293340Y-107823600D01*
X129346580Y-107823600D01*
X129344035Y-102463600D01*
X134453440Y-102463600D01*
X134473226Y-102651856D01*
X134473227Y-102651859D01*
X134531718Y-102831877D01*
X134531721Y-102831884D01*
X134626367Y-102995816D01*
X134753029Y-103136488D01*
X134906165Y-103247748D01*
X134906170Y-103247751D01*
X135079092Y-103324742D01*
X135079097Y-103324744D01*
X135264254Y-103364100D01*
X135264255Y-103364100D01*
X135453544Y-103364100D01*
X135453546Y-103364100D01*
X135638703Y-103324744D01*
X135811630Y-103247751D01*
X135964771Y-103136488D01*
X136091433Y-102995816D01*
X136186079Y-102831884D01*
X136231465Y-102692200D01*
X144814340Y-102692200D01*
X144834126Y-102880456D01*
X144834127Y-102880459D01*
X144892618Y-103060477D01*
X144892621Y-103060484D01*
X144987267Y-103224416D01*
X145077601Y-103324742D01*
X145113929Y-103365088D01*
X145267065Y-103476348D01*
X145267070Y-103476351D01*
X145439992Y-103553342D01*
X145439997Y-103553344D01*
X145625154Y-103592700D01*
X145625155Y-103592700D01*
X145814444Y-103592700D01*
X145814446Y-103592700D01*
X145999603Y-103553344D01*
X146172530Y-103476351D01*
X146325671Y-103365088D01*
X146452333Y-103224416D01*
X146546979Y-103060484D01*
X146605474Y-102880456D01*
X146625260Y-102692200D01*
X146605474Y-102503944D01*
X146546979Y-102323916D01*
X146452333Y-102159984D01*
X146325671Y-102019312D01*
X146325670Y-102019311D01*
X146172534Y-101908051D01*
X146172529Y-101908048D01*
X145999607Y-101831057D01*
X145999602Y-101831055D01*
X145853801Y-101800065D01*
X145814446Y-101791700D01*
X145625154Y-101791700D01*
X145592697Y-101798598D01*
X145439997Y-101831055D01*
X145439992Y-101831057D01*
X145267070Y-101908048D01*
X145267065Y-101908051D01*
X145113929Y-102019311D01*
X144987266Y-102159985D01*
X144892621Y-102323915D01*
X144892618Y-102323922D01*
X144834127Y-102503940D01*
X144834126Y-102503944D01*
X144814340Y-102692200D01*
X136231465Y-102692200D01*
X136244574Y-102651856D01*
X136264360Y-102463600D01*
X136244574Y-102275344D01*
X136186079Y-102095316D01*
X136091433Y-101931384D01*
X135964771Y-101790712D01*
X135912956Y-101753066D01*
X135811634Y-101679451D01*
X135811629Y-101679448D01*
X135638707Y-101602457D01*
X135638702Y-101602455D01*
X135492901Y-101571465D01*
X135453546Y-101563100D01*
X135264254Y-101563100D01*
X135231797Y-101569998D01*
X135079097Y-101602455D01*
X135079092Y-101602457D01*
X134906170Y-101679448D01*
X134906165Y-101679451D01*
X134753029Y-101790711D01*
X134626366Y-101931385D01*
X134531721Y-102095315D01*
X134531718Y-102095322D01*
X134482742Y-102246056D01*
X134473226Y-102275344D01*
X134453440Y-102463600D01*
X129344035Y-102463600D01*
X129343142Y-100584000D01*
X146820940Y-100584000D01*
X146840726Y-100772256D01*
X146840727Y-100772259D01*
X146899218Y-100952277D01*
X146899221Y-100952284D01*
X146993867Y-101116216D01*
X147066295Y-101196655D01*
X147120529Y-101256888D01*
X147273665Y-101368148D01*
X147273670Y-101368151D01*
X147446592Y-101445142D01*
X147446597Y-101445144D01*
X147631754Y-101484500D01*
X147631755Y-101484500D01*
X147821044Y-101484500D01*
X147821046Y-101484500D01*
X148006203Y-101445144D01*
X148179130Y-101368151D01*
X148332271Y-101256888D01*
X148458933Y-101116216D01*
X148553579Y-100952284D01*
X148602746Y-100800963D01*
X151810495Y-100800963D01*
X151830281Y-100989219D01*
X151830282Y-100989222D01*
X151888773Y-101169240D01*
X151888776Y-101169247D01*
X151983422Y-101333179D01*
X152110084Y-101473851D01*
X152263220Y-101585111D01*
X152263225Y-101585114D01*
X152436147Y-101662105D01*
X152436152Y-101662107D01*
X152621309Y-101701463D01*
X152621310Y-101701463D01*
X152810599Y-101701463D01*
X152810601Y-101701463D01*
X152995758Y-101662107D01*
X153168685Y-101585114D01*
X153253077Y-101523800D01*
X159495540Y-101523800D01*
X159515326Y-101712056D01*
X159515327Y-101712059D01*
X159573818Y-101892077D01*
X159573821Y-101892084D01*
X159668467Y-102056016D01*
X159795129Y-102196688D01*
X159948265Y-102307948D01*
X159948270Y-102307951D01*
X160121192Y-102384942D01*
X160121197Y-102384944D01*
X160306354Y-102424300D01*
X160306355Y-102424300D01*
X160495644Y-102424300D01*
X160495646Y-102424300D01*
X160680803Y-102384944D01*
X160853730Y-102307951D01*
X161006871Y-102196688D01*
X161131927Y-102057800D01*
X164694340Y-102057800D01*
X164714126Y-102246056D01*
X164714127Y-102246059D01*
X164772618Y-102426077D01*
X164772621Y-102426084D01*
X164867267Y-102590016D01*
X164922951Y-102651859D01*
X164993929Y-102730688D01*
X165147065Y-102841948D01*
X165147070Y-102841951D01*
X165319992Y-102918942D01*
X165319997Y-102918944D01*
X165505154Y-102958300D01*
X165505155Y-102958300D01*
X165694444Y-102958300D01*
X165694446Y-102958300D01*
X165879603Y-102918944D01*
X166052530Y-102841951D01*
X166205671Y-102730688D01*
X166332333Y-102590016D01*
X166426979Y-102426084D01*
X166485474Y-102246056D01*
X166505260Y-102057800D01*
X166485474Y-101869544D01*
X166426979Y-101689516D01*
X166332333Y-101525584D01*
X166205671Y-101384912D01*
X166205670Y-101384911D01*
X166052534Y-101273651D01*
X166052529Y-101273648D01*
X165879607Y-101196657D01*
X165879602Y-101196655D01*
X165733801Y-101165665D01*
X165694446Y-101157300D01*
X165505154Y-101157300D01*
X165472697Y-101164198D01*
X165319997Y-101196655D01*
X165319992Y-101196657D01*
X165147070Y-101273648D01*
X165147065Y-101273651D01*
X164993929Y-101384911D01*
X164867266Y-101525585D01*
X164772621Y-101689515D01*
X164772618Y-101689522D01*
X164726631Y-101831057D01*
X164714126Y-101869544D01*
X164694340Y-102057800D01*
X161131927Y-102057800D01*
X161133533Y-102056016D01*
X161228179Y-101892084D01*
X161248992Y-101828027D01*
X161288429Y-101770352D01*
X161352787Y-101743153D01*
X161417359Y-101753066D01*
X161467392Y-101775342D01*
X161467397Y-101775344D01*
X161652554Y-101814700D01*
X161652555Y-101814700D01*
X161841844Y-101814700D01*
X161841846Y-101814700D01*
X162027003Y-101775344D01*
X162199930Y-101698351D01*
X162353071Y-101587088D01*
X162479733Y-101446416D01*
X162574379Y-101282484D01*
X162632874Y-101102456D01*
X162652660Y-100914200D01*
X162632874Y-100725944D01*
X162574379Y-100545916D01*
X162479733Y-100381984D01*
X162353071Y-100241312D01*
X162353070Y-100241311D01*
X162300340Y-100203000D01*
X173795740Y-100203000D01*
X173815526Y-100391256D01*
X173815527Y-100391259D01*
X173874018Y-100571277D01*
X173874021Y-100571284D01*
X173968667Y-100735216D01*
X174095329Y-100875888D01*
X174248465Y-100987148D01*
X174248470Y-100987151D01*
X174421392Y-101064142D01*
X174421397Y-101064144D01*
X174606554Y-101103500D01*
X174606555Y-101103500D01*
X174795844Y-101103500D01*
X174795846Y-101103500D01*
X174981003Y-101064144D01*
X175153930Y-100987151D01*
X175307071Y-100875888D01*
X175433733Y-100735216D01*
X175528379Y-100571284D01*
X175586874Y-100391256D01*
X175606660Y-100203000D01*
X175586874Y-100014744D01*
X175528379Y-99834716D01*
X175433733Y-99670784D01*
X175307071Y-99530112D01*
X175307070Y-99530111D01*
X175153934Y-99418851D01*
X175153929Y-99418848D01*
X174981007Y-99341857D01*
X174981002Y-99341855D01*
X174835201Y-99310865D01*
X174795846Y-99302500D01*
X174606554Y-99302500D01*
X174574097Y-99309398D01*
X174421397Y-99341855D01*
X174421392Y-99341857D01*
X174248470Y-99418848D01*
X174248465Y-99418851D01*
X174095329Y-99530111D01*
X173968666Y-99670785D01*
X173874021Y-99834715D01*
X173874018Y-99834722D01*
X173839870Y-99939820D01*
X173815526Y-100014744D01*
X173795740Y-100203000D01*
X162300340Y-100203000D01*
X162199934Y-100130051D01*
X162199929Y-100130048D01*
X162027007Y-100053057D01*
X162027002Y-100053055D01*
X161856496Y-100016814D01*
X161841846Y-100013700D01*
X161652554Y-100013700D01*
X161637904Y-100016814D01*
X161467397Y-100053055D01*
X161467392Y-100053057D01*
X161294470Y-100130048D01*
X161294465Y-100130051D01*
X161141329Y-100241311D01*
X161014666Y-100381985D01*
X160920021Y-100545915D01*
X160920019Y-100545919D01*
X160899207Y-100609973D01*
X160859769Y-100667648D01*
X160795410Y-100694846D01*
X160730841Y-100684934D01*
X160680802Y-100662655D01*
X160535001Y-100631665D01*
X160495646Y-100623300D01*
X160306354Y-100623300D01*
X160273897Y-100630198D01*
X160121197Y-100662655D01*
X160121192Y-100662657D01*
X159948270Y-100739648D01*
X159948265Y-100739651D01*
X159795129Y-100850911D01*
X159668466Y-100991585D01*
X159573821Y-101155515D01*
X159573818Y-101155522D01*
X159532566Y-101282484D01*
X159515326Y-101335544D01*
X159495540Y-101523800D01*
X153253077Y-101523800D01*
X153321826Y-101473851D01*
X153448488Y-101333179D01*
X153543134Y-101169247D01*
X153601629Y-100989219D01*
X153621415Y-100800963D01*
X153601629Y-100612707D01*
X153543134Y-100432679D01*
X153448488Y-100268747D01*
X153321826Y-100128075D01*
X153321825Y-100128074D01*
X153168689Y-100016814D01*
X153168684Y-100016811D01*
X152995762Y-99939820D01*
X152995757Y-99939818D01*
X152849956Y-99908828D01*
X152810601Y-99900463D01*
X152621309Y-99900463D01*
X152588852Y-99907361D01*
X152436152Y-99939818D01*
X152436147Y-99939820D01*
X152263225Y-100016811D01*
X152263220Y-100016814D01*
X152110084Y-100128074D01*
X151983421Y-100268748D01*
X151888776Y-100432678D01*
X151888773Y-100432685D01*
X151831169Y-100609973D01*
X151830281Y-100612707D01*
X151810495Y-100800963D01*
X148602746Y-100800963D01*
X148612074Y-100772256D01*
X148631860Y-100584000D01*
X148612074Y-100395744D01*
X148553579Y-100215716D01*
X148458933Y-100051784D01*
X148332271Y-99911112D01*
X148317614Y-99900463D01*
X148179134Y-99799851D01*
X148179129Y-99799848D01*
X148006207Y-99722857D01*
X148006202Y-99722855D01*
X147860401Y-99691865D01*
X147821046Y-99683500D01*
X147631754Y-99683500D01*
X147599297Y-99690398D01*
X147446597Y-99722855D01*
X147446592Y-99722857D01*
X147273670Y-99799848D01*
X147273665Y-99799851D01*
X147120529Y-99911111D01*
X146993866Y-100051785D01*
X146899221Y-100215715D01*
X146899218Y-100215722D01*
X146842184Y-100391256D01*
X146840726Y-100395744D01*
X146820940Y-100584000D01*
X129343142Y-100584000D01*
X129342262Y-98729800D01*
X148827540Y-98729800D01*
X148847326Y-98918056D01*
X148847327Y-98918059D01*
X148905818Y-99098077D01*
X148905821Y-99098084D01*
X149000467Y-99262016D01*
X149127129Y-99402688D01*
X149280265Y-99513948D01*
X149280270Y-99513951D01*
X149453192Y-99590942D01*
X149453197Y-99590944D01*
X149638354Y-99630300D01*
X149638355Y-99630300D01*
X149827644Y-99630300D01*
X149827646Y-99630300D01*
X150012803Y-99590944D01*
X150185730Y-99513951D01*
X150338871Y-99402688D01*
X150465533Y-99262016D01*
X150560179Y-99098084D01*
X150618674Y-98918056D01*
X150638460Y-98729800D01*
X150618674Y-98541544D01*
X150560179Y-98361516D01*
X150465533Y-98197584D01*
X150338871Y-98056912D01*
X150338870Y-98056911D01*
X150185734Y-97945651D01*
X150185729Y-97945648D01*
X150012807Y-97868657D01*
X150012802Y-97868655D01*
X149867001Y-97837665D01*
X149827646Y-97829300D01*
X149638354Y-97829300D01*
X149605897Y-97836198D01*
X149453197Y-97868655D01*
X149453192Y-97868657D01*
X149280270Y-97945648D01*
X149280265Y-97945651D01*
X149127129Y-98056911D01*
X149000466Y-98197585D01*
X148905821Y-98361515D01*
X148905818Y-98361522D01*
X148847327Y-98541540D01*
X148847326Y-98541544D01*
X148827540Y-98729800D01*
X129342262Y-98729800D01*
X129341575Y-97282600D01*
X155550340Y-97282600D01*
X155570126Y-97470856D01*
X155570127Y-97470859D01*
X155628618Y-97650877D01*
X155628621Y-97650884D01*
X155723267Y-97814816D01*
X155771744Y-97868655D01*
X155849929Y-97955488D01*
X156003065Y-98066748D01*
X156003070Y-98066751D01*
X156175992Y-98143742D01*
X156175997Y-98143744D01*
X156361154Y-98183100D01*
X156361155Y-98183100D01*
X156550444Y-98183100D01*
X156550446Y-98183100D01*
X156735603Y-98143744D01*
X156908530Y-98066751D01*
X157061671Y-97955488D01*
X157188333Y-97814816D01*
X157282979Y-97650884D01*
X157341474Y-97470856D01*
X157361260Y-97282600D01*
X157341474Y-97094344D01*
X157282979Y-96914316D01*
X157216979Y-96800000D01*
X158293540Y-96800000D01*
X158313326Y-96988256D01*
X158313327Y-96988259D01*
X158371818Y-97168277D01*
X158371821Y-97168284D01*
X158466467Y-97332216D01*
X158590759Y-97470256D01*
X158593129Y-97472888D01*
X158746265Y-97584148D01*
X158746270Y-97584151D01*
X158919192Y-97661142D01*
X158919197Y-97661144D01*
X159104354Y-97700500D01*
X159104355Y-97700500D01*
X159293644Y-97700500D01*
X159293646Y-97700500D01*
X159478803Y-97661144D01*
X159651730Y-97584151D01*
X159804871Y-97472888D01*
X159931533Y-97332216D01*
X160026179Y-97168284D01*
X160084674Y-96988256D01*
X160104460Y-96800000D01*
X160084674Y-96611744D01*
X160026179Y-96431716D01*
X159931533Y-96267784D01*
X159804871Y-96127112D01*
X159804870Y-96127111D01*
X159651734Y-96015851D01*
X159651729Y-96015848D01*
X159478807Y-95938857D01*
X159478802Y-95938855D01*
X159333001Y-95907865D01*
X159293646Y-95899500D01*
X159104354Y-95899500D01*
X159071897Y-95906398D01*
X158919197Y-95938855D01*
X158919192Y-95938857D01*
X158746270Y-96015848D01*
X158746265Y-96015851D01*
X158593129Y-96127111D01*
X158466466Y-96267785D01*
X158371821Y-96431715D01*
X158371818Y-96431722D01*
X158313986Y-96609712D01*
X158313326Y-96611744D01*
X158293540Y-96800000D01*
X157216979Y-96800000D01*
X157188333Y-96750384D01*
X157061671Y-96609712D01*
X157061670Y-96609711D01*
X156908534Y-96498451D01*
X156908529Y-96498448D01*
X156735607Y-96421457D01*
X156735602Y-96421455D01*
X156589801Y-96390465D01*
X156550446Y-96382100D01*
X156361154Y-96382100D01*
X156328697Y-96388998D01*
X156175997Y-96421455D01*
X156175992Y-96421457D01*
X156003070Y-96498448D01*
X156003065Y-96498451D01*
X155849929Y-96609711D01*
X155723266Y-96750385D01*
X155628621Y-96914315D01*
X155628618Y-96914322D01*
X155570322Y-97093740D01*
X155570126Y-97094344D01*
X155550340Y-97282600D01*
X129341575Y-97282600D01*
X129340477Y-94970600D01*
X133968540Y-94970600D01*
X133988326Y-95158856D01*
X133988327Y-95158859D01*
X134046818Y-95338877D01*
X134046821Y-95338884D01*
X134141467Y-95502816D01*
X134268129Y-95643488D01*
X134421265Y-95754748D01*
X134421270Y-95754751D01*
X134594192Y-95831742D01*
X134594197Y-95831744D01*
X134779354Y-95871100D01*
X134779355Y-95871100D01*
X134968644Y-95871100D01*
X134968646Y-95871100D01*
X135153803Y-95831744D01*
X135326730Y-95754751D01*
X135479871Y-95643488D01*
X135606533Y-95502816D01*
X135649843Y-95427800D01*
X143569740Y-95427800D01*
X143589526Y-95616056D01*
X143589527Y-95616059D01*
X143648018Y-95796077D01*
X143648021Y-95796084D01*
X143742667Y-95960016D01*
X143811278Y-96036216D01*
X143869329Y-96100688D01*
X144022465Y-96211948D01*
X144022470Y-96211951D01*
X144195392Y-96288942D01*
X144195397Y-96288944D01*
X144380554Y-96328300D01*
X144380555Y-96328300D01*
X144569844Y-96328300D01*
X144569846Y-96328300D01*
X144755003Y-96288944D01*
X144927930Y-96211951D01*
X145081071Y-96100688D01*
X145207733Y-95960016D01*
X145302379Y-95796084D01*
X145360874Y-95616056D01*
X145372651Y-95504000D01*
X145754140Y-95504000D01*
X145773926Y-95692256D01*
X145773927Y-95692259D01*
X145832418Y-95872277D01*
X145832421Y-95872284D01*
X145927067Y-96036216D01*
X146051899Y-96174856D01*
X146053729Y-96176888D01*
X146206865Y-96288148D01*
X146206870Y-96288151D01*
X146379792Y-96365142D01*
X146379797Y-96365144D01*
X146564954Y-96404500D01*
X146564955Y-96404500D01*
X146754244Y-96404500D01*
X146754246Y-96404500D01*
X146939403Y-96365144D01*
X147112330Y-96288151D01*
X147265471Y-96176888D01*
X147392133Y-96036216D01*
X147486779Y-95872284D01*
X147545274Y-95692256D01*
X147565060Y-95504000D01*
X147545274Y-95315744D01*
X147486779Y-95135716D01*
X147392133Y-94971784D01*
X147265471Y-94831112D01*
X147265470Y-94831111D01*
X147112334Y-94719851D01*
X147112329Y-94719848D01*
X146939407Y-94642857D01*
X146939402Y-94642855D01*
X146793601Y-94611865D01*
X146754246Y-94603500D01*
X146564954Y-94603500D01*
X146532497Y-94610398D01*
X146379797Y-94642855D01*
X146379792Y-94642857D01*
X146206870Y-94719848D01*
X146206865Y-94719851D01*
X146053729Y-94831111D01*
X145927066Y-94971785D01*
X145832421Y-95135715D01*
X145832418Y-95135722D01*
X145774586Y-95313712D01*
X145773926Y-95315744D01*
X145754140Y-95504000D01*
X145372651Y-95504000D01*
X145380660Y-95427800D01*
X145360874Y-95239544D01*
X145302379Y-95059516D01*
X145207733Y-94895584D01*
X145081071Y-94754912D01*
X145081070Y-94754911D01*
X144927934Y-94643651D01*
X144927929Y-94643648D01*
X144755007Y-94566657D01*
X144755002Y-94566655D01*
X144609201Y-94535665D01*
X144569846Y-94527300D01*
X144380554Y-94527300D01*
X144348097Y-94534198D01*
X144195397Y-94566655D01*
X144195392Y-94566657D01*
X144022470Y-94643648D01*
X144022465Y-94643651D01*
X143869329Y-94754911D01*
X143742666Y-94895585D01*
X143648021Y-95059515D01*
X143648018Y-95059522D01*
X143601579Y-95202449D01*
X143589526Y-95239544D01*
X143569740Y-95427800D01*
X135649843Y-95427800D01*
X135701179Y-95338884D01*
X135759674Y-95158856D01*
X135779460Y-94970600D01*
X135759674Y-94782344D01*
X135701179Y-94602316D01*
X135635179Y-94488000D01*
X148192540Y-94488000D01*
X148212326Y-94676256D01*
X148212327Y-94676259D01*
X148270818Y-94856277D01*
X148270821Y-94856284D01*
X148365467Y-95020216D01*
X148482710Y-95150427D01*
X148492129Y-95160888D01*
X148632804Y-95263094D01*
X148675470Y-95318424D01*
X148681449Y-95388037D01*
X148652074Y-95446379D01*
X148644866Y-95454385D01*
X148550221Y-95618315D01*
X148550218Y-95618322D01*
X148492460Y-95796084D01*
X148491726Y-95798344D01*
X148471940Y-95986600D01*
X148491726Y-96174856D01*
X148491727Y-96174859D01*
X148550218Y-96354877D01*
X148550221Y-96354884D01*
X148644867Y-96518816D01*
X148728540Y-96611744D01*
X148771529Y-96659488D01*
X148924665Y-96770748D01*
X148924670Y-96770751D01*
X149097592Y-96847742D01*
X149097597Y-96847744D01*
X149282754Y-96887100D01*
X149282755Y-96887100D01*
X149472044Y-96887100D01*
X149472046Y-96887100D01*
X149657203Y-96847744D01*
X149830130Y-96770751D01*
X149983271Y-96659488D01*
X150017917Y-96621009D01*
X150077402Y-96584362D01*
X150147259Y-96585691D01*
X150205307Y-96624577D01*
X150217453Y-96641981D01*
X150219667Y-96645816D01*
X150346329Y-96786488D01*
X150499465Y-96897748D01*
X150499470Y-96897751D01*
X150672392Y-96974742D01*
X150672397Y-96974744D01*
X150857554Y-97014100D01*
X150857555Y-97014100D01*
X151046844Y-97014100D01*
X151046846Y-97014100D01*
X151232003Y-96974744D01*
X151404930Y-96897751D01*
X151558071Y-96786488D01*
X151684733Y-96645816D01*
X151779379Y-96481884D01*
X151837874Y-96301856D01*
X151857660Y-96113600D01*
X151837874Y-95925344D01*
X151779379Y-95745316D01*
X151684733Y-95581384D01*
X151558071Y-95440712D01*
X151558070Y-95440711D01*
X151404934Y-95329451D01*
X151404929Y-95329448D01*
X151232007Y-95252457D01*
X151232002Y-95252455D01*
X151086201Y-95221465D01*
X151046846Y-95213100D01*
X150857554Y-95213100D01*
X150825097Y-95219998D01*
X150672397Y-95252455D01*
X150672392Y-95252457D01*
X150499470Y-95329448D01*
X150499465Y-95329451D01*
X150346331Y-95440710D01*
X150346329Y-95440711D01*
X150346329Y-95440712D01*
X150334020Y-95454383D01*
X150311682Y-95479191D01*
X150252194Y-95515838D01*
X150182337Y-95514507D01*
X150124290Y-95475619D01*
X150112144Y-95458214D01*
X150109933Y-95454384D01*
X149983271Y-95313712D01*
X149913601Y-95263094D01*
X149842595Y-95211505D01*
X149799929Y-95156175D01*
X149793950Y-95086562D01*
X149823330Y-95028215D01*
X149830533Y-95020216D01*
X149925179Y-94856284D01*
X149983674Y-94676256D01*
X150003460Y-94488000D01*
X149983674Y-94299744D01*
X149925179Y-94119716D01*
X149830533Y-93955784D01*
X149703871Y-93815112D01*
X149703870Y-93815111D01*
X149550734Y-93703851D01*
X149550729Y-93703848D01*
X149377807Y-93626857D01*
X149377802Y-93626855D01*
X149232001Y-93595865D01*
X149192646Y-93587500D01*
X149003354Y-93587500D01*
X148970897Y-93594398D01*
X148818197Y-93626855D01*
X148818192Y-93626857D01*
X148645270Y-93703848D01*
X148645265Y-93703851D01*
X148492129Y-93815111D01*
X148365466Y-93955785D01*
X148270821Y-94119715D01*
X148270818Y-94119722D01*
X148212986Y-94297712D01*
X148212326Y-94299744D01*
X148192540Y-94488000D01*
X135635179Y-94488000D01*
X135606533Y-94438384D01*
X135479871Y-94297712D01*
X135423390Y-94256676D01*
X135326734Y-94186451D01*
X135326729Y-94186448D01*
X135153807Y-94109457D01*
X135153802Y-94109455D01*
X135008001Y-94078465D01*
X134968646Y-94070100D01*
X134779354Y-94070100D01*
X134746897Y-94076998D01*
X134594197Y-94109455D01*
X134594192Y-94109457D01*
X134421270Y-94186448D01*
X134421265Y-94186451D01*
X134268129Y-94297711D01*
X134141466Y-94438385D01*
X134046821Y-94602315D01*
X134046818Y-94602322D01*
X133997239Y-94754912D01*
X133988326Y-94782344D01*
X133968540Y-94970600D01*
X129340477Y-94970600D01*
X129339283Y-92456000D01*
X169655540Y-92456000D01*
X169675326Y-92644256D01*
X169675327Y-92644259D01*
X169733818Y-92824277D01*
X169733821Y-92824284D01*
X169828467Y-92988216D01*
X169955129Y-93128888D01*
X170108265Y-93240148D01*
X170108270Y-93240151D01*
X170281192Y-93317142D01*
X170281197Y-93317144D01*
X170466354Y-93356500D01*
X170466355Y-93356500D01*
X170655644Y-93356500D01*
X170655646Y-93356500D01*
X170840803Y-93317144D01*
X171013730Y-93240151D01*
X171166871Y-93128888D01*
X171293533Y-92988216D01*
X171388179Y-92824284D01*
X171446674Y-92644256D01*
X171466460Y-92456000D01*
X171446674Y-92267744D01*
X171388179Y-92087716D01*
X171293533Y-91923784D01*
X171166871Y-91783112D01*
X171166870Y-91783111D01*
X171013734Y-91671851D01*
X171013729Y-91671848D01*
X170840807Y-91594857D01*
X170840802Y-91594855D01*
X170695001Y-91563865D01*
X170655646Y-91555500D01*
X170466354Y-91555500D01*
X170433897Y-91562398D01*
X170281197Y-91594855D01*
X170281192Y-91594857D01*
X170108270Y-91671848D01*
X170108265Y-91671851D01*
X169955129Y-91783111D01*
X169828466Y-91923785D01*
X169733821Y-92087715D01*
X169733818Y-92087722D01*
X169675327Y-92267740D01*
X169675326Y-92267744D01*
X169655540Y-92456000D01*
X129339283Y-92456000D01*
X129338596Y-91008800D01*
X148946340Y-91008800D01*
X148966126Y-91197056D01*
X148966127Y-91197059D01*
X149024618Y-91377077D01*
X149024621Y-91377084D01*
X149119267Y-91541016D01*
X149237069Y-91671848D01*
X149245929Y-91681688D01*
X149399065Y-91792948D01*
X149399070Y-91792951D01*
X149571992Y-91869942D01*
X149571997Y-91869944D01*
X149757154Y-91909300D01*
X149757155Y-91909300D01*
X149946444Y-91909300D01*
X149946446Y-91909300D01*
X150131603Y-91869944D01*
X150304530Y-91792951D01*
X150457671Y-91681688D01*
X150584333Y-91541016D01*
X150678979Y-91377084D01*
X150737474Y-91197056D01*
X150750187Y-91076100D01*
X156405040Y-91076100D01*
X156424826Y-91264356D01*
X156424827Y-91264359D01*
X156483318Y-91444377D01*
X156483321Y-91444384D01*
X156577967Y-91608316D01*
X156651697Y-91690201D01*
X156704629Y-91748988D01*
X156857765Y-91860248D01*
X156857770Y-91860251D01*
X157030692Y-91937242D01*
X157030697Y-91937244D01*
X157215854Y-91976600D01*
X157215855Y-91976600D01*
X157405144Y-91976600D01*
X157405146Y-91976600D01*
X157590303Y-91937244D01*
X157763230Y-91860251D01*
X157916371Y-91748988D01*
X158043033Y-91608316D01*
X158137679Y-91444384D01*
X158196174Y-91264356D01*
X158215960Y-91076100D01*
X158196174Y-90887844D01*
X158137679Y-90707816D01*
X158105800Y-90652600D01*
X162213340Y-90652600D01*
X162233126Y-90840856D01*
X162233127Y-90840859D01*
X162291618Y-91020877D01*
X162291621Y-91020884D01*
X162386267Y-91184816D01*
X162457888Y-91264359D01*
X162512929Y-91325488D01*
X162666065Y-91436748D01*
X162666070Y-91436751D01*
X162838992Y-91513742D01*
X162838997Y-91513744D01*
X163024154Y-91553100D01*
X163024155Y-91553100D01*
X163213444Y-91553100D01*
X163213446Y-91553100D01*
X163398603Y-91513744D01*
X163571530Y-91436751D01*
X163724671Y-91325488D01*
X163851333Y-91184816D01*
X163945979Y-91020884D01*
X164004474Y-90840856D01*
X164024260Y-90652600D01*
X164004474Y-90464344D01*
X163945979Y-90284316D01*
X163851333Y-90120384D01*
X163724671Y-89979712D01*
X163719086Y-89975654D01*
X163571534Y-89868451D01*
X163571529Y-89868448D01*
X163398607Y-89791457D01*
X163398602Y-89791455D01*
X163252801Y-89760465D01*
X163213446Y-89752100D01*
X163024154Y-89752100D01*
X162991697Y-89758998D01*
X162838997Y-89791455D01*
X162838992Y-89791457D01*
X162666070Y-89868448D01*
X162666065Y-89868451D01*
X162512929Y-89979711D01*
X162386266Y-90120385D01*
X162291621Y-90284315D01*
X162291618Y-90284322D01*
X162268607Y-90355144D01*
X162233126Y-90464344D01*
X162213340Y-90652600D01*
X158105800Y-90652600D01*
X158043033Y-90543884D01*
X157916371Y-90403212D01*
X157916370Y-90403211D01*
X157763234Y-90291951D01*
X157763229Y-90291948D01*
X157590307Y-90214957D01*
X157590302Y-90214955D01*
X157444501Y-90183965D01*
X157405146Y-90175600D01*
X157215854Y-90175600D01*
X157183397Y-90182498D01*
X157030697Y-90214955D01*
X157030692Y-90214957D01*
X156857770Y-90291948D01*
X156857765Y-90291951D01*
X156704629Y-90403211D01*
X156577966Y-90543885D01*
X156483321Y-90707815D01*
X156483318Y-90707822D01*
X156446693Y-90820544D01*
X156424826Y-90887844D01*
X156405040Y-91076100D01*
X150750187Y-91076100D01*
X150757260Y-91008800D01*
X150737474Y-90820544D01*
X150678979Y-90640516D01*
X150584333Y-90476584D01*
X150457671Y-90335912D01*
X150397164Y-90291951D01*
X150304534Y-90224651D01*
X150304529Y-90224648D01*
X150131607Y-90147657D01*
X150131602Y-90147655D01*
X149970891Y-90113496D01*
X149946446Y-90108300D01*
X149757154Y-90108300D01*
X149732709Y-90113496D01*
X149571997Y-90147655D01*
X149571992Y-90147657D01*
X149399070Y-90224648D01*
X149399065Y-90224651D01*
X149245929Y-90335911D01*
X149119266Y-90476585D01*
X149024621Y-90640515D01*
X149024618Y-90640522D01*
X148966127Y-90820540D01*
X148966126Y-90820544D01*
X148946340Y-91008800D01*
X129338596Y-91008800D01*
X129337956Y-89662000D01*
X165820140Y-89662000D01*
X165839926Y-89850256D01*
X165839927Y-89850259D01*
X165898418Y-90030277D01*
X165898421Y-90030284D01*
X165993067Y-90194216D01*
X166081068Y-90291951D01*
X166119729Y-90334888D01*
X166272865Y-90446148D01*
X166272870Y-90446151D01*
X166445792Y-90523142D01*
X166445797Y-90523144D01*
X166630954Y-90562500D01*
X166630955Y-90562500D01*
X166820244Y-90562500D01*
X166820246Y-90562500D01*
X167005403Y-90523144D01*
X167178330Y-90446151D01*
X167331471Y-90334888D01*
X167458133Y-90194216D01*
X167552779Y-90030284D01*
X167611274Y-89850256D01*
X167631060Y-89662000D01*
X167611274Y-89473744D01*
X167552779Y-89293716D01*
X167493766Y-89191503D01*
X170329237Y-89191503D01*
X170349023Y-89379759D01*
X170349024Y-89379762D01*
X170407515Y-89559780D01*
X170407518Y-89559787D01*
X170502164Y-89723719D01*
X170628826Y-89864391D01*
X170781962Y-89975651D01*
X170781967Y-89975654D01*
X170954889Y-90052645D01*
X170954894Y-90052647D01*
X171140051Y-90092003D01*
X171140052Y-90092003D01*
X171329341Y-90092003D01*
X171329343Y-90092003D01*
X171514500Y-90052647D01*
X171687427Y-89975654D01*
X171840568Y-89864391D01*
X171967230Y-89723719D01*
X172061876Y-89559787D01*
X172120371Y-89379759D01*
X172140157Y-89191503D01*
X172120371Y-89003247D01*
X172061876Y-88823219D01*
X171967230Y-88659287D01*
X171840568Y-88518615D01*
X171840567Y-88518614D01*
X171687431Y-88407354D01*
X171687426Y-88407351D01*
X171514504Y-88330360D01*
X171514499Y-88330358D01*
X171368698Y-88299368D01*
X171329343Y-88291003D01*
X171140051Y-88291003D01*
X171107594Y-88297901D01*
X170954894Y-88330358D01*
X170954889Y-88330360D01*
X170781967Y-88407351D01*
X170781962Y-88407354D01*
X170628826Y-88518614D01*
X170502163Y-88659288D01*
X170407518Y-88823218D01*
X170407515Y-88823225D01*
X170349024Y-89003243D01*
X170349023Y-89003247D01*
X170329237Y-89191503D01*
X167493766Y-89191503D01*
X167458133Y-89129784D01*
X167331471Y-88989112D01*
X167320387Y-88981059D01*
X167178334Y-88877851D01*
X167178329Y-88877848D01*
X167005407Y-88800857D01*
X167005402Y-88800855D01*
X166859601Y-88769865D01*
X166820246Y-88761500D01*
X166630954Y-88761500D01*
X166598497Y-88768398D01*
X166445797Y-88800855D01*
X166445792Y-88800857D01*
X166272870Y-88877848D01*
X166272865Y-88877851D01*
X166119729Y-88989111D01*
X165993066Y-89129785D01*
X165898421Y-89293715D01*
X165898418Y-89293722D01*
X165843110Y-89463945D01*
X165839926Y-89473744D01*
X165820140Y-89662000D01*
X129337956Y-89662000D01*
X129337136Y-87934800D01*
X151215140Y-87934800D01*
X151234926Y-88123056D01*
X151234927Y-88123059D01*
X151293418Y-88303077D01*
X151293421Y-88303084D01*
X151388067Y-88467016D01*
X151514729Y-88607688D01*
X151667865Y-88718948D01*
X151667870Y-88718951D01*
X151840792Y-88795942D01*
X151840797Y-88795944D01*
X152025954Y-88835300D01*
X152025955Y-88835300D01*
X152215244Y-88835300D01*
X152215246Y-88835300D01*
X152400403Y-88795944D01*
X152573330Y-88718951D01*
X152726471Y-88607688D01*
X152853133Y-88467016D01*
X152947779Y-88303084D01*
X153006274Y-88123056D01*
X153026060Y-87934800D01*
X153006274Y-87746544D01*
X152947779Y-87566516D01*
X152853133Y-87402584D01*
X152726471Y-87261912D01*
X152696733Y-87240306D01*
X152573334Y-87150651D01*
X152573329Y-87150648D01*
X152400407Y-87073657D01*
X152400402Y-87073655D01*
X152254601Y-87042665D01*
X152215246Y-87034300D01*
X152025954Y-87034300D01*
X151993497Y-87041198D01*
X151840797Y-87073655D01*
X151840792Y-87073657D01*
X151667870Y-87150648D01*
X151667865Y-87150651D01*
X151514729Y-87261911D01*
X151388066Y-87402585D01*
X151293421Y-87566515D01*
X151293418Y-87566522D01*
X151252230Y-87693288D01*
X151234926Y-87746544D01*
X151215140Y-87934800D01*
X129337136Y-87934800D01*
X129336690Y-86995000D01*
X133968540Y-86995000D01*
X133988326Y-87183256D01*
X133988327Y-87183259D01*
X134046818Y-87363277D01*
X134046821Y-87363284D01*
X134141467Y-87527216D01*
X134230794Y-87626423D01*
X134268129Y-87667888D01*
X134421265Y-87779148D01*
X134421270Y-87779151D01*
X134594192Y-87856142D01*
X134594197Y-87856144D01*
X134779354Y-87895500D01*
X134779355Y-87895500D01*
X134968644Y-87895500D01*
X134968646Y-87895500D01*
X135153803Y-87856144D01*
X135326730Y-87779151D01*
X135479871Y-87667888D01*
X135606533Y-87527216D01*
X135701179Y-87363284D01*
X135759674Y-87183256D01*
X135776790Y-87020400D01*
X145754140Y-87020400D01*
X145773926Y-87208656D01*
X145773927Y-87208659D01*
X145832418Y-87388677D01*
X145832421Y-87388684D01*
X145927067Y-87552616D01*
X146030859Y-87667888D01*
X146053729Y-87693288D01*
X146206865Y-87804548D01*
X146206870Y-87804551D01*
X146379792Y-87881542D01*
X146379797Y-87881544D01*
X146564954Y-87920900D01*
X146564955Y-87920900D01*
X146754244Y-87920900D01*
X146754246Y-87920900D01*
X146939403Y-87881544D01*
X147112330Y-87804551D01*
X147265471Y-87693288D01*
X147392133Y-87552616D01*
X147486779Y-87388684D01*
X147545274Y-87208656D01*
X147565060Y-87020400D01*
X147545274Y-86832144D01*
X147486779Y-86652116D01*
X147392133Y-86488184D01*
X147265471Y-86347512D01*
X147230511Y-86322112D01*
X147112334Y-86236251D01*
X147112329Y-86236248D01*
X146939407Y-86159257D01*
X146939402Y-86159255D01*
X146793601Y-86128265D01*
X146754246Y-86119900D01*
X146564954Y-86119900D01*
X146532497Y-86126798D01*
X146379797Y-86159255D01*
X146379792Y-86159257D01*
X146206870Y-86236248D01*
X146206865Y-86236251D01*
X146053729Y-86347511D01*
X145927066Y-86488185D01*
X145832421Y-86652115D01*
X145832418Y-86652122D01*
X145791874Y-86776905D01*
X145773926Y-86832144D01*
X145754140Y-87020400D01*
X135776790Y-87020400D01*
X135779460Y-86995000D01*
X135759674Y-86806744D01*
X135701179Y-86626716D01*
X135606533Y-86462784D01*
X135479871Y-86322112D01*
X135479870Y-86322111D01*
X135326734Y-86210851D01*
X135326729Y-86210848D01*
X135153807Y-86133857D01*
X135153802Y-86133855D01*
X135008001Y-86102865D01*
X134968646Y-86094500D01*
X134779354Y-86094500D01*
X134746897Y-86101398D01*
X134594197Y-86133855D01*
X134594192Y-86133857D01*
X134421270Y-86210848D01*
X134421265Y-86210851D01*
X134268129Y-86322111D01*
X134141466Y-86462785D01*
X134046821Y-86626715D01*
X134046818Y-86626722D01*
X133998021Y-86776905D01*
X133988326Y-86806744D01*
X133968540Y-86995000D01*
X129336690Y-86995000D01*
X129336159Y-85877400D01*
X130564940Y-85877400D01*
X130584726Y-86065656D01*
X130584727Y-86065659D01*
X130643218Y-86245677D01*
X130643221Y-86245684D01*
X130737867Y-86409616D01*
X130808611Y-86488185D01*
X130864529Y-86550288D01*
X131017665Y-86661548D01*
X131017670Y-86661551D01*
X131190592Y-86738542D01*
X131190597Y-86738544D01*
X131375754Y-86777900D01*
X131375755Y-86777900D01*
X131565044Y-86777900D01*
X131565046Y-86777900D01*
X131750203Y-86738544D01*
X131923130Y-86661551D01*
X132076271Y-86550288D01*
X132202933Y-86409616D01*
X132297579Y-86245684D01*
X132356074Y-86065656D01*
X132375860Y-85877400D01*
X132356074Y-85689144D01*
X132326459Y-85598000D01*
X160562340Y-85598000D01*
X160582126Y-85786256D01*
X160582127Y-85786259D01*
X160640618Y-85966277D01*
X160640621Y-85966284D01*
X160735267Y-86130216D01*
X160830739Y-86236248D01*
X160861929Y-86270888D01*
X161015065Y-86382148D01*
X161015070Y-86382151D01*
X161187992Y-86459142D01*
X161187997Y-86459144D01*
X161373154Y-86498500D01*
X161373155Y-86498500D01*
X161562444Y-86498500D01*
X161562446Y-86498500D01*
X161747603Y-86459144D01*
X161920530Y-86382151D01*
X162073671Y-86270888D01*
X162200333Y-86130216D01*
X162294979Y-85966284D01*
X162353474Y-85786256D01*
X162362540Y-85700000D01*
X170394540Y-85700000D01*
X170414326Y-85888256D01*
X170414327Y-85888259D01*
X170472818Y-86068277D01*
X170472821Y-86068284D01*
X170567467Y-86232216D01*
X170671280Y-86347512D01*
X170694129Y-86372888D01*
X170847265Y-86484148D01*
X170847270Y-86484151D01*
X171020192Y-86561142D01*
X171020197Y-86561144D01*
X171205354Y-86600500D01*
X171205355Y-86600500D01*
X171394644Y-86600500D01*
X171394646Y-86600500D01*
X171579803Y-86561144D01*
X171752730Y-86484151D01*
X171905871Y-86372888D01*
X172032533Y-86232216D01*
X172127179Y-86068284D01*
X172185674Y-85888256D01*
X172205460Y-85700000D01*
X172185674Y-85511744D01*
X172127179Y-85331716D01*
X172032533Y-85167784D01*
X171905871Y-85027112D01*
X171905870Y-85027111D01*
X171752734Y-84915851D01*
X171752729Y-84915848D01*
X171579807Y-84838857D01*
X171579802Y-84838855D01*
X171434001Y-84807865D01*
X171394646Y-84799500D01*
X171205354Y-84799500D01*
X171172897Y-84806398D01*
X171020197Y-84838855D01*
X171020192Y-84838857D01*
X170847270Y-84915848D01*
X170847265Y-84915851D01*
X170694129Y-85027111D01*
X170567466Y-85167785D01*
X170472821Y-85331715D01*
X170472818Y-85331722D01*
X170421781Y-85488799D01*
X170414326Y-85511744D01*
X170394540Y-85700000D01*
X162362540Y-85700000D01*
X162373260Y-85598000D01*
X162353474Y-85409744D01*
X162337031Y-85359140D01*
X162331350Y-85341653D01*
X162329355Y-85271812D01*
X162365435Y-85211979D01*
X162423496Y-85182046D01*
X162509603Y-85163744D01*
X162509607Y-85163742D01*
X162509608Y-85163742D01*
X162567858Y-85137806D01*
X162682530Y-85086751D01*
X162835671Y-84975488D01*
X162962333Y-84834816D01*
X163056979Y-84670884D01*
X163115474Y-84490856D01*
X163135260Y-84302600D01*
X163115474Y-84114344D01*
X163056979Y-83934316D01*
X162962333Y-83770384D01*
X162835671Y-83629712D01*
X162835670Y-83629711D01*
X162682534Y-83518451D01*
X162682529Y-83518448D01*
X162509607Y-83441457D01*
X162509602Y-83441455D01*
X162363801Y-83410465D01*
X162324446Y-83402100D01*
X162135154Y-83402100D01*
X162102697Y-83408998D01*
X161949997Y-83441455D01*
X161949992Y-83441457D01*
X161777070Y-83518448D01*
X161777065Y-83518451D01*
X161623929Y-83629711D01*
X161497266Y-83770385D01*
X161402621Y-83934315D01*
X161402618Y-83934322D01*
X161344127Y-84114340D01*
X161344126Y-84114344D01*
X161324340Y-84302600D01*
X161341447Y-84465370D01*
X161344127Y-84490861D01*
X161366249Y-84558947D01*
X161368244Y-84628788D01*
X161332163Y-84688621D01*
X161274099Y-84718554D01*
X161187997Y-84736855D01*
X161187992Y-84736857D01*
X161015070Y-84813848D01*
X161015065Y-84813851D01*
X160861929Y-84925111D01*
X160735266Y-85065785D01*
X160640621Y-85229715D01*
X160640618Y-85229722D01*
X160582692Y-85408002D01*
X160582126Y-85409744D01*
X160562340Y-85598000D01*
X132326459Y-85598000D01*
X132297579Y-85509116D01*
X132202933Y-85345184D01*
X132076271Y-85204512D01*
X132074328Y-85203100D01*
X131923134Y-85093251D01*
X131923129Y-85093248D01*
X131750207Y-85016257D01*
X131750202Y-85016255D01*
X131604401Y-84985265D01*
X131565046Y-84976900D01*
X131375754Y-84976900D01*
X131343297Y-84983798D01*
X131190597Y-85016255D01*
X131190592Y-85016257D01*
X131017670Y-85093248D01*
X131017665Y-85093251D01*
X130864529Y-85204511D01*
X130737866Y-85345185D01*
X130643221Y-85509115D01*
X130643218Y-85509122D01*
X130591950Y-85666911D01*
X130584726Y-85689144D01*
X130564940Y-85877400D01*
X129336159Y-85877400D01*
X129333900Y-81120312D01*
X129333975Y-81117270D01*
X129334391Y-81108800D01*
X130177964Y-81108800D01*
X130197689Y-81434899D01*
X130256578Y-81756252D01*
X130353766Y-82068142D01*
X130353770Y-82068154D01*
X130353773Y-82068161D01*
X130487855Y-82366079D01*
X130559296Y-82484256D01*
X130656873Y-82645668D01*
X130858354Y-82902839D01*
X131089360Y-83133845D01*
X131346531Y-83335326D01*
X131346534Y-83335328D01*
X131346537Y-83335330D01*
X131626121Y-83504345D01*
X131924039Y-83638427D01*
X131924052Y-83638431D01*
X131924057Y-83638433D01*
X132235947Y-83735621D01*
X132557296Y-83794510D01*
X132883400Y-83814236D01*
X133209504Y-83794510D01*
X133530853Y-83735621D01*
X133832235Y-83641707D01*
X133842742Y-83638433D01*
X133842742Y-83638432D01*
X133842761Y-83638427D01*
X134140679Y-83504345D01*
X134420263Y-83335330D01*
X134677436Y-83133848D01*
X134908448Y-82902836D01*
X135109930Y-82645663D01*
X135278945Y-82366079D01*
X135310485Y-82296000D01*
X137295940Y-82296000D01*
X137315726Y-82484256D01*
X137315727Y-82484259D01*
X137374218Y-82664277D01*
X137374221Y-82664284D01*
X137468867Y-82828216D01*
X137539006Y-82906113D01*
X137595529Y-82968888D01*
X137748665Y-83080148D01*
X137748670Y-83080151D01*
X137921592Y-83157142D01*
X137921597Y-83157144D01*
X138106754Y-83196500D01*
X138106755Y-83196500D01*
X138296044Y-83196500D01*
X138296046Y-83196500D01*
X138481203Y-83157144D01*
X138654130Y-83080151D01*
X138807271Y-82968888D01*
X138933933Y-82828216D01*
X139028579Y-82664284D01*
X139087074Y-82484256D01*
X139106860Y-82296000D01*
X139087074Y-82107744D01*
X139028579Y-81927716D01*
X138933933Y-81763784D01*
X138807271Y-81623112D01*
X138787022Y-81608400D01*
X138654134Y-81511851D01*
X138654129Y-81511848D01*
X138481207Y-81434857D01*
X138481202Y-81434855D01*
X138335401Y-81403865D01*
X138296046Y-81395500D01*
X138106754Y-81395500D01*
X138074297Y-81402398D01*
X137921597Y-81434855D01*
X137921592Y-81434857D01*
X137748670Y-81511848D01*
X137748665Y-81511851D01*
X137595529Y-81623111D01*
X137468866Y-81763785D01*
X137374221Y-81927715D01*
X137374218Y-81927722D01*
X137315727Y-82107740D01*
X137315726Y-82107744D01*
X137295940Y-82296000D01*
X135310485Y-82296000D01*
X135413027Y-82068161D01*
X135510221Y-81756253D01*
X135569110Y-81434904D01*
X135588836Y-81108800D01*
X135569110Y-80782696D01*
X135567150Y-80772000D01*
X141283740Y-80772000D01*
X141303526Y-80960256D01*
X141303527Y-80960259D01*
X141362018Y-81140277D01*
X141362021Y-81140284D01*
X141456667Y-81304216D01*
X141525613Y-81380788D01*
X141583329Y-81444888D01*
X141736465Y-81556148D01*
X141736470Y-81556151D01*
X141909392Y-81633142D01*
X141909397Y-81633144D01*
X142094554Y-81672500D01*
X142094555Y-81672500D01*
X142283844Y-81672500D01*
X142283846Y-81672500D01*
X142469003Y-81633144D01*
X142641930Y-81556151D01*
X142795071Y-81444888D01*
X142921733Y-81304216D01*
X143016379Y-81140284D01*
X143074874Y-80960256D01*
X143094660Y-80772000D01*
X143074874Y-80583744D01*
X143016379Y-80403716D01*
X142921733Y-80239784D01*
X142795071Y-80099112D01*
X142778311Y-80086935D01*
X142641934Y-79987851D01*
X142641929Y-79987848D01*
X142469007Y-79910857D01*
X142469002Y-79910855D01*
X142320048Y-79879195D01*
X142283846Y-79871500D01*
X142094554Y-79871500D01*
X142081927Y-79874184D01*
X141909397Y-79910855D01*
X141909392Y-79910857D01*
X141736470Y-79987848D01*
X141736465Y-79987851D01*
X141583329Y-80099111D01*
X141456666Y-80239785D01*
X141362021Y-80403715D01*
X141362018Y-80403722D01*
X141324354Y-80519642D01*
X141303526Y-80583744D01*
X141283740Y-80772000D01*
X135567150Y-80772000D01*
X135510221Y-80461347D01*
X135493815Y-80408699D01*
X135413033Y-80149457D01*
X135413031Y-80149452D01*
X135413027Y-80149439D01*
X135278945Y-79851521D01*
X135109930Y-79571937D01*
X135109928Y-79571934D01*
X135109926Y-79571931D01*
X134908445Y-79314760D01*
X134677439Y-79083754D01*
X134420268Y-78882273D01*
X134374132Y-78854383D01*
X134140679Y-78713255D01*
X133842761Y-78579173D01*
X133842754Y-78579170D01*
X133842742Y-78579166D01*
X133530852Y-78481978D01*
X133209499Y-78423089D01*
X132883400Y-78403364D01*
X132557300Y-78423089D01*
X132235947Y-78481978D01*
X131924057Y-78579166D01*
X131924041Y-78579172D01*
X131924039Y-78579173D01*
X131626121Y-78713255D01*
X131616287Y-78719200D01*
X131346531Y-78882273D01*
X131089360Y-79083754D01*
X130858354Y-79314760D01*
X130656873Y-79571931D01*
X130556509Y-79737953D01*
X130494457Y-79840601D01*
X130487854Y-79851523D01*
X130487853Y-79851525D01*
X130464462Y-79903498D01*
X130356566Y-80143235D01*
X130353772Y-80149442D01*
X130353766Y-80149457D01*
X130256578Y-80461347D01*
X130197689Y-80782700D01*
X130177964Y-81108800D01*
X129334391Y-81108800D01*
X129350795Y-80774909D01*
X129351389Y-80768863D01*
X129401464Y-80431285D01*
X129402646Y-80425341D01*
X129485571Y-80094286D01*
X129487335Y-80088471D01*
X129487888Y-80086928D01*
X129602304Y-79767152D01*
X129604631Y-79761536D01*
X129611236Y-79747571D01*
X129750546Y-79453026D01*
X129753397Y-79447692D01*
X129928851Y-79154964D01*
X129932219Y-79149923D01*
X130135519Y-78875806D01*
X130139369Y-78871114D01*
X130368573Y-78618227D01*
X130372827Y-78613973D01*
X130625714Y-78384769D01*
X130630408Y-78380918D01*
X130652951Y-78364199D01*
X130904523Y-78177619D01*
X130909564Y-78174251D01*
X131202292Y-77998797D01*
X131207626Y-77995946D01*
X131516144Y-77850027D01*
X131521752Y-77847704D01*
X131843079Y-77732732D01*
X131848886Y-77730971D01*
X132179941Y-77648046D01*
X132185885Y-77646864D01*
X132523461Y-77596789D01*
X132529509Y-77596195D01*
X132871888Y-77579375D01*
X132874930Y-77579300D01*
X132939927Y-77579300D01*
X132940312Y-77579271D01*
X144114022Y-77574612D01*
X144181068Y-77594269D01*
X144226845Y-77647054D01*
X144236817Y-77716208D01*
X144207819Y-77779776D01*
X144166481Y-77810992D01*
X144145025Y-77820997D01*
X144145020Y-77821000D01*
X143951526Y-77956486D01*
X143951520Y-77956491D01*
X143784491Y-78123520D01*
X143784486Y-78123526D01*
X143649000Y-78317020D01*
X143648999Y-78317022D01*
X143549170Y-78531107D01*
X143549167Y-78531113D01*
X143491964Y-78744599D01*
X143491964Y-78744600D01*
X144388914Y-78744600D01*
X144363107Y-78784756D01*
X144322600Y-78922711D01*
X144322600Y-79066489D01*
X144363107Y-79204444D01*
X144388914Y-79244600D01*
X143491964Y-79244600D01*
X143549167Y-79458086D01*
X143549170Y-79458092D01*
X143648999Y-79672178D01*
X143784494Y-79865682D01*
X143951517Y-80032705D01*
X144145021Y-80168200D01*
X144359107Y-80268029D01*
X144359116Y-80268033D01*
X144572600Y-80325234D01*
X144572600Y-79430101D01*
X144680285Y-79479280D01*
X144786837Y-79494600D01*
X144858363Y-79494600D01*
X144964915Y-79479280D01*
X145072600Y-79430101D01*
X145072600Y-80325233D01*
X145286083Y-80268033D01*
X145286092Y-80268029D01*
X145500178Y-80168200D01*
X145693682Y-80032705D01*
X145860705Y-79865682D01*
X145990719Y-79680005D01*
X146045296Y-79636381D01*
X146114795Y-79629188D01*
X146177149Y-79660710D01*
X146193869Y-79680005D01*
X146324105Y-79866001D01*
X146491199Y-80033095D01*
X146585480Y-80099111D01*
X146684765Y-80168632D01*
X146684767Y-80168633D01*
X146684770Y-80168635D01*
X146898937Y-80268503D01*
X147127192Y-80329663D01*
X147303634Y-80345100D01*
X147362599Y-80350259D01*
X147362600Y-80350259D01*
X147362601Y-80350259D01*
X147421566Y-80345100D01*
X147598008Y-80329663D01*
X147826263Y-80268503D01*
X148040430Y-80168635D01*
X148234001Y-80033095D01*
X148401095Y-79866001D01*
X148531025Y-79680442D01*
X148585602Y-79636817D01*
X148655100Y-79629623D01*
X148717455Y-79661146D01*
X148734175Y-79680442D01*
X148863881Y-79865682D01*
X148864105Y-79866001D01*
X149031199Y-80033095D01*
X149125480Y-80099111D01*
X149224765Y-80168632D01*
X149224767Y-80168633D01*
X149224770Y-80168635D01*
X149438937Y-80268503D01*
X149667192Y-80329663D01*
X149843634Y-80345100D01*
X149902599Y-80350259D01*
X149902600Y-80350259D01*
X149902601Y-80350259D01*
X149961566Y-80345100D01*
X150138008Y-80329663D01*
X150366263Y-80268503D01*
X150580430Y-80168635D01*
X150774001Y-80033095D01*
X150895929Y-79911166D01*
X150957248Y-79877684D01*
X151026940Y-79882668D01*
X151082874Y-79924539D01*
X151099789Y-79955517D01*
X151148802Y-80086928D01*
X151148806Y-80086935D01*
X151235052Y-80202144D01*
X151235055Y-80202147D01*
X151350264Y-80288393D01*
X151350271Y-80288397D01*
X151485117Y-80338691D01*
X151485116Y-80338691D01*
X151492044Y-80339435D01*
X151544727Y-80345100D01*
X153340472Y-80345099D01*
X153400083Y-80338691D01*
X153534931Y-80288396D01*
X153650146Y-80202146D01*
X153736396Y-80086931D01*
X153786691Y-79952083D01*
X153793100Y-79892473D01*
X153793099Y-78096728D01*
X153786691Y-78037117D01*
X153785410Y-78033683D01*
X153736397Y-77902271D01*
X153736393Y-77902264D01*
X153650147Y-77787055D01*
X153645375Y-77782283D01*
X153611890Y-77720960D01*
X153616874Y-77651268D01*
X153658746Y-77595335D01*
X153724210Y-77570918D01*
X153732990Y-77570602D01*
X158904316Y-77568446D01*
X158971363Y-77588103D01*
X159017140Y-77640888D01*
X159027112Y-77710042D01*
X159003634Y-77766756D01*
X159000266Y-77771256D01*
X158921203Y-77876869D01*
X158921202Y-77876871D01*
X158870908Y-78011717D01*
X158864501Y-78071316D01*
X158864500Y-78071335D01*
X158864500Y-78341446D01*
X158844815Y-78408485D01*
X158792011Y-78454240D01*
X158722853Y-78464184D01*
X158667615Y-78441765D01*
X158614760Y-78403364D01*
X158593130Y-78387649D01*
X158593128Y-78387648D01*
X158593129Y-78387648D01*
X158420207Y-78310657D01*
X158420202Y-78310655D01*
X158274401Y-78279665D01*
X158235046Y-78271300D01*
X158045754Y-78271300D01*
X158013297Y-78278198D01*
X157860597Y-78310655D01*
X157860592Y-78310657D01*
X157687670Y-78387648D01*
X157687665Y-78387651D01*
X157534529Y-78498911D01*
X157407866Y-78639585D01*
X157313221Y-78803515D01*
X157313218Y-78803522D01*
X157254727Y-78983540D01*
X157254726Y-78983544D01*
X157234940Y-79171800D01*
X157254726Y-79360056D01*
X157254727Y-79360059D01*
X157313218Y-79540077D01*
X157313221Y-79540084D01*
X157407867Y-79704016D01*
X157527870Y-79837292D01*
X157534529Y-79844688D01*
X157687665Y-79955948D01*
X157687670Y-79955951D01*
X157860592Y-80032942D01*
X157860597Y-80032944D01*
X158045754Y-80072300D01*
X158045755Y-80072300D01*
X158235044Y-80072300D01*
X158235046Y-80072300D01*
X158420203Y-80032944D01*
X158593130Y-79955951D01*
X158688241Y-79886848D01*
X158754044Y-79863370D01*
X158822098Y-79879195D01*
X158870793Y-79929301D01*
X158877306Y-79943835D01*
X158921202Y-80061528D01*
X158921206Y-80061535D01*
X159007452Y-80176744D01*
X159007455Y-80176747D01*
X159122664Y-80262993D01*
X159122671Y-80262997D01*
X159257517Y-80313291D01*
X159257516Y-80313291D01*
X159264444Y-80314035D01*
X159317127Y-80319700D01*
X161112872Y-80319699D01*
X161172483Y-80313291D01*
X161307331Y-80262996D01*
X161422546Y-80176746D01*
X161508796Y-80061531D01*
X161557810Y-79930116D01*
X161599681Y-79874184D01*
X161665145Y-79849766D01*
X161733418Y-79864617D01*
X161761673Y-79885769D01*
X161883599Y-80007695D01*
X161975066Y-80071741D01*
X162077165Y-80143232D01*
X162077167Y-80143233D01*
X162077170Y-80143235D01*
X162291337Y-80243103D01*
X162519592Y-80304263D01*
X162696034Y-80319700D01*
X162754999Y-80324859D01*
X162755000Y-80324859D01*
X162755001Y-80324859D01*
X162813966Y-80319700D01*
X162990408Y-80304263D01*
X163218663Y-80243103D01*
X163432830Y-80143235D01*
X163626401Y-80007695D01*
X163793495Y-79840601D01*
X163923425Y-79655042D01*
X163978002Y-79611417D01*
X164047500Y-79604223D01*
X164109855Y-79635746D01*
X164126575Y-79655042D01*
X164254187Y-79837292D01*
X164276514Y-79903498D01*
X164259504Y-79971265D01*
X164225499Y-80008732D01*
X164189328Y-80035012D01*
X164062666Y-80175685D01*
X163968021Y-80339615D01*
X163968018Y-80339622D01*
X163927404Y-80464621D01*
X163909526Y-80519644D01*
X163889740Y-80707900D01*
X163909526Y-80896156D01*
X163909527Y-80896159D01*
X163968018Y-81076177D01*
X163968021Y-81076184D01*
X164062667Y-81240116D01*
X164189329Y-81380788D01*
X164342465Y-81492048D01*
X164342470Y-81492051D01*
X164515392Y-81569042D01*
X164515397Y-81569044D01*
X164700554Y-81608400D01*
X164700555Y-81608400D01*
X164889844Y-81608400D01*
X164889846Y-81608400D01*
X165075003Y-81569044D01*
X165247930Y-81492051D01*
X165401071Y-81380788D01*
X165527733Y-81240116D01*
X165601658Y-81112074D01*
X170294690Y-81112074D01*
X170314415Y-81438173D01*
X170373304Y-81759526D01*
X170470492Y-82071416D01*
X170470496Y-82071428D01*
X170470499Y-82071435D01*
X170604581Y-82369353D01*
X170769027Y-82641380D01*
X170773599Y-82648942D01*
X170975080Y-82906113D01*
X171206086Y-83137119D01*
X171463257Y-83338600D01*
X171463260Y-83338602D01*
X171463263Y-83338604D01*
X171742847Y-83507619D01*
X172040765Y-83641701D01*
X172040778Y-83641705D01*
X172040783Y-83641707D01*
X172342166Y-83735621D01*
X172352673Y-83738895D01*
X172674022Y-83797784D01*
X173000126Y-83817510D01*
X173326230Y-83797784D01*
X173647579Y-83738895D01*
X173959487Y-83641701D01*
X174257405Y-83507619D01*
X174536989Y-83338604D01*
X174794162Y-83137122D01*
X175025174Y-82906110D01*
X175226656Y-82648937D01*
X175395671Y-82369353D01*
X175529753Y-82071435D01*
X175530775Y-82068157D01*
X175549492Y-82008089D01*
X175626947Y-81759527D01*
X175685836Y-81438178D01*
X175705562Y-81112074D01*
X175685836Y-80785970D01*
X175626947Y-80464621D01*
X175584892Y-80329661D01*
X175529759Y-80152731D01*
X175529757Y-80152726D01*
X175529753Y-80152713D01*
X175395671Y-79854795D01*
X175226656Y-79575211D01*
X175226654Y-79575208D01*
X175226652Y-79575205D01*
X175025171Y-79318034D01*
X174794165Y-79087028D01*
X174536994Y-78885547D01*
X174520884Y-78875808D01*
X174257405Y-78716529D01*
X173959487Y-78582447D01*
X173959480Y-78582444D01*
X173959468Y-78582440D01*
X173647578Y-78485252D01*
X173326225Y-78426363D01*
X173000126Y-78406638D01*
X172674026Y-78426363D01*
X172352673Y-78485252D01*
X172040783Y-78582440D01*
X172040767Y-78582446D01*
X172040765Y-78582447D01*
X171861328Y-78663205D01*
X171750122Y-78713255D01*
X171742847Y-78716529D01*
X171738429Y-78719200D01*
X171463257Y-78885547D01*
X171206086Y-79087028D01*
X170975080Y-79318034D01*
X170773599Y-79575205D01*
X170685325Y-79721229D01*
X170613355Y-79840282D01*
X170604580Y-79854797D01*
X170604579Y-79854799D01*
X170579209Y-79911169D01*
X170471965Y-80149457D01*
X170470498Y-80152716D01*
X170470492Y-80152731D01*
X170373304Y-80464621D01*
X170314415Y-80785974D01*
X170294690Y-81112074D01*
X165601658Y-81112074D01*
X165622379Y-81076184D01*
X165680874Y-80896156D01*
X165700660Y-80707900D01*
X165680874Y-80519644D01*
X165644824Y-80408697D01*
X165642830Y-80338857D01*
X165678910Y-80279024D01*
X165730665Y-80250605D01*
X165758656Y-80243105D01*
X165758657Y-80243104D01*
X165758663Y-80243103D01*
X165972830Y-80143235D01*
X166166401Y-80007695D01*
X166333495Y-79840601D01*
X166463730Y-79654605D01*
X166518307Y-79610981D01*
X166587805Y-79603787D01*
X166650160Y-79635310D01*
X166666879Y-79654605D01*
X166796890Y-79840278D01*
X166963917Y-80007305D01*
X167157421Y-80142800D01*
X167371507Y-80242629D01*
X167371516Y-80242633D01*
X167585000Y-80299834D01*
X167585000Y-79404701D01*
X167692685Y-79453880D01*
X167799237Y-79469200D01*
X167870763Y-79469200D01*
X167977315Y-79453880D01*
X168085000Y-79404701D01*
X168085000Y-80299833D01*
X168298483Y-80242633D01*
X168298492Y-80242629D01*
X168512578Y-80142800D01*
X168706082Y-80007305D01*
X168873105Y-79840282D01*
X169008600Y-79646778D01*
X169108429Y-79432692D01*
X169108432Y-79432686D01*
X169165636Y-79219200D01*
X168268686Y-79219200D01*
X168294493Y-79179044D01*
X168335000Y-79041089D01*
X168335000Y-78897311D01*
X168294493Y-78759356D01*
X168268686Y-78719200D01*
X169165636Y-78719200D01*
X169165635Y-78719199D01*
X169108432Y-78505713D01*
X169108429Y-78505707D01*
X169008600Y-78291622D01*
X169008599Y-78291620D01*
X168873113Y-78098126D01*
X168873108Y-78098120D01*
X168706082Y-77931094D01*
X168508144Y-77792495D01*
X168508833Y-77791509D01*
X168464709Y-77745228D01*
X168451490Y-77676621D01*
X168477461Y-77611757D01*
X168534378Y-77571232D01*
X168574871Y-77564414D01*
X172988608Y-77562574D01*
X172991652Y-77562649D01*
G37*
%TD.AperFunction*%
%TD*%
D16*
X147726400Y-100584000D03*
X144195800Y-111455200D03*
X156455800Y-97282600D03*
X161747200Y-100914200D03*
X147345400Y-106883200D03*
X146659600Y-87020400D03*
X135991600Y-109474000D03*
X151511000Y-122555000D03*
X158140400Y-79171800D03*
X152425400Y-123164600D03*
X142189200Y-80772000D03*
X132198800Y-107823600D03*
X144475200Y-95427800D03*
X170408600Y-112674400D03*
X152715955Y-100800963D03*
X153568899Y-110820699D03*
X171234697Y-89191503D03*
X174980600Y-115493800D03*
X149758400Y-110744000D03*
X138955200Y-124562200D03*
X171300000Y-85700000D03*
X170561000Y-92456000D03*
X174828200Y-117779800D03*
X141554200Y-117373400D03*
X170230800Y-110667800D03*
X160401000Y-101523800D03*
X160223200Y-111988600D03*
X149377400Y-95986600D03*
X166979600Y-111277400D03*
X141579600Y-108686600D03*
X159199000Y-96800000D03*
X141732000Y-115290600D03*
X143222400Y-125603600D03*
X167894000Y-108356400D03*
X145719800Y-102692200D03*
X131521200Y-118973600D03*
X162636200Y-112979200D03*
X171627800Y-109169200D03*
X150843679Y-119561036D03*
X156083000Y-114198400D03*
X175971200Y-97282000D03*
X131470400Y-85877400D03*
X175641000Y-120142000D03*
X148793200Y-119380000D03*
X146659600Y-95504000D03*
X143078200Y-106705400D03*
X156083000Y-115316000D03*
X132198800Y-106807600D03*
X156159200Y-120929400D03*
X149851800Y-91008800D03*
X159689800Y-114249200D03*
X138320200Y-123825600D03*
X165599800Y-102057800D03*
X155399000Y-123113800D03*
X132334000Y-111455200D03*
X133172200Y-112496600D03*
X150952200Y-96113600D03*
X134874000Y-86995000D03*
X163550600Y-96799400D03*
X170505901Y-91368099D03*
X150029600Y-92837600D03*
X130319200Y-119685400D03*
X173507400Y-109220000D03*
X170904253Y-84035547D03*
X154703200Y-81966400D03*
X130352800Y-103124000D03*
X174828200Y-110643000D03*
X136491400Y-113094600D03*
X139216800Y-106756800D03*
X157310500Y-91076100D03*
X141655800Y-110871000D03*
X141681200Y-111963200D03*
X138835900Y-113080800D03*
X138728979Y-114145181D03*
X164795200Y-80707900D03*
X152120600Y-87934800D03*
X162229800Y-84302600D03*
X135358900Y-102463600D03*
X138201400Y-82296000D03*
X134874000Y-94970600D03*
X149098000Y-94488000D03*
X161467800Y-85598000D03*
X149733000Y-98729800D03*
X163118800Y-90652600D03*
X174701200Y-100203000D03*
X166725600Y-89662000D03*
X174675800Y-105994200D03*
X175153400Y-93358800D03*
X175153400Y-90818800D03*
X175153400Y-88278800D03*
X175153400Y-85738800D03*
X173000126Y-81112074D03*
X173013400Y-123238800D03*
X152442600Y-78994600D03*
X149902600Y-78994600D03*
X147362600Y-78994600D03*
X144822600Y-78994600D03*
X160517400Y-125274600D03*
X162117400Y-123274600D03*
X164617400Y-123274600D03*
X167117400Y-123274600D03*
X160215000Y-78969200D03*
X162755000Y-78969200D03*
X165295000Y-78969200D03*
X167835000Y-78969200D03*
X132883400Y-81108800D03*
X132883400Y-123228800D03*
M02*
