M48
METRIC,TZ
T1C0.400
T2C0.950
T3C1.000
T4C2.200
%
G90
G05
T1
X130319Y-119685
X130353Y-103124
X131470Y-85877
X131521Y-118974
X132199Y-106808
X132199Y-107824
X132334Y-111455
X133172Y-112497
X134874Y-86995
X134874Y-94971
X135359Y-102464
X135992Y-109474
X136491Y-113095
X138201Y-82296
X138320Y-123826
X138729Y-114145
X138836Y-113081
X138955Y-124562
X139217Y-106757
X141554Y-117373
X141580Y-108687
X141656Y-110871
X141681Y-111963
X141732Y-115291
X142189Y-80772
X143078Y-106705
X143222Y-125604
X144196Y-111455
X144475Y-95428
X145720Y-102692
X146660Y-87020
X146660Y-95504
X147345Y-106883
X147726Y-100584
X148793Y-119380
X149098Y-94488
X149377Y-95987
X149733Y-98730
X149758Y-110744
X149852Y-91009
X150030Y-92838
X150844Y-119561
X150952Y-96114
X151511Y-122555
X152121Y-87935
X152425Y-123165
X152716Y-100801
X153569Y-110821
X154703Y-81966
X155399Y-123114
X156083Y-114198
X156083Y-115316
X156159Y-120929
X156456Y-97283
X157311Y-91076
X158140Y-79172
X159199Y-96800
X159690Y-114249
X160223Y-111989
X160401Y-101524
X161468Y-85598
X161747Y-100914
X162230Y-84303
X162636Y-112979
X163119Y-90653
X163551Y-96799
X164795Y-80708
X165600Y-102058
X166726Y-89662
X166980Y-111277
X167894Y-108356
X170231Y-110668
X170409Y-112674
X170506Y-91368
X170561Y-92456
X170904Y-84036
X171235Y-89192
X171300Y-85700
X171628Y-109169
X173507Y-109220
X174676Y-105994
X174701Y-100203
X174828Y-110643
X174828Y-117780
X174981Y-115494
X175641Y-120142
X175971Y-97282
T2
X162117Y-123275
X164617Y-123275
X167117Y-123275
T3
X144823Y-78995
X147363Y-78995
X149903Y-78995
X152443Y-78995
X160215Y-78969
X162755Y-78969
X165295Y-78969
X167835Y-78969
X175153Y-85739
X175153Y-88279
X175153Y-90819
X175153Y-93359
T4
X132883Y-81109
X132883Y-123229
X173000Y-81112
X173013Y-123239
T0
M30
