%TF.GenerationSoftware,KiCad,Pcbnew,7.0.9*%
%TF.CreationDate,2024-01-29T23:24:25+02:00*%
%TF.ProjectId,TheftShield_Tracker,54686566-7453-4686-9965-6c645f547261,rev?*%
%TF.SameCoordinates,Original*%
%TF.FileFunction,Copper,L2,Inr*%
%TF.FilePolarity,Positive*%
%FSLAX46Y46*%
G04 Gerber Fmt 4.6, Leading zero omitted, Abs format (unit mm)*
G04 Created by KiCad (PCBNEW 7.0.9) date 2024-01-29 23:24:25*
%MOMM*%
%LPD*%
G01*
G04 APERTURE LIST*
G04 Aperture macros list*
%AMRoundRect*
0 Rectangle with rounded corners*
0 $1 Rounding radius*
0 $2 $3 $4 $5 $6 $7 $8 $9 X,Y pos of 4 corners*
0 Add a 4 corners polygon primitive as box body*
4,1,4,$2,$3,$4,$5,$6,$7,$8,$9,$2,$3,0*
0 Add four circle primitives for the rounded corners*
1,1,$1+$1,$2,$3*
1,1,$1+$1,$4,$5*
1,1,$1+$1,$6,$7*
1,1,$1+$1,$8,$9*
0 Add four rect primitives between the rounded corners*
20,1,$1+$1,$2,$3,$4,$5,0*
20,1,$1+$1,$4,$5,$6,$7,0*
20,1,$1+$1,$6,$7,$8,$9,0*
20,1,$1+$1,$8,$9,$2,$3,0*%
G04 Aperture macros list end*
%TA.AperFunction,ComponentPad*%
%ADD10R,1.700000X1.700000*%
%TD*%
%TA.AperFunction,ComponentPad*%
%ADD11O,1.700000X1.700000*%
%TD*%
%TA.AperFunction,ComponentPad*%
%ADD12C,4.400000*%
%TD*%
%TA.AperFunction,ComponentPad*%
%ADD13RoundRect,0.250000X-0.600000X-0.725000X0.600000X-0.725000X0.600000X0.725000X-0.600000X0.725000X0*%
%TD*%
%TA.AperFunction,ComponentPad*%
%ADD14O,1.700000X1.950000*%
%TD*%
%TA.AperFunction,ViaPad*%
%ADD15C,0.800000*%
%TD*%
%ADD16C,0.350000*%
G04 APERTURE END LIST*
D10*
%TO.N,GND*%
%TO.C,J2*%
X175153400Y-93358800D03*
D11*
%TO.N,/STM32F401RCT6/USART1_RX*%
X175153400Y-90818800D03*
%TO.N,/STM32F401RCT6/USART1_TX*%
X175153400Y-88278800D03*
%TO.N,+3.3V*%
X175153400Y-85738800D03*
%TD*%
D12*
%TO.N,GND*%
%TO.C,H1*%
X173000126Y-81112074D03*
%TD*%
%TO.N,GND*%
%TO.C,H2*%
X173013400Y-123238800D03*
%TD*%
D10*
%TO.N,GND*%
%TO.C,J3*%
X152442600Y-78994600D03*
D11*
%TO.N,/STM32F401RCT6/NRST*%
X149902600Y-78994600D03*
%TO.N,/STM32F401RCT6/BOOT0*%
X147362600Y-78994600D03*
%TO.N,+3.3V*%
X144822600Y-78994600D03*
%TD*%
D13*
%TO.N,+MAIN_VCC*%
%TO.C,J4*%
X162117400Y-123274600D03*
D14*
%TO.N,GND*%
X164617400Y-123274600D03*
%TO.N,/ADC1_IN6*%
X167117400Y-123274600D03*
%TD*%
D10*
%TO.N,GND*%
%TO.C,J1*%
X160215000Y-78969200D03*
D11*
%TO.N,/STM32F401RCT6/SWCLK*%
X162755000Y-78969200D03*
%TO.N,/STM32F401RCT6/SWDIO*%
X165295000Y-78969200D03*
%TO.N,+3.3V*%
X167835000Y-78969200D03*
%TD*%
D12*
%TO.N,GND*%
%TO.C,H3*%
X132883400Y-81108800D03*
%TD*%
%TO.N,GND*%
%TO.C,H4*%
X132883400Y-123228800D03*
%TD*%
D15*
%TO.N,GND*%
X147726400Y-100584000D03*
X144195800Y-111455200D03*
X156455800Y-97282600D03*
X161747200Y-100914200D03*
X147345400Y-106883200D03*
X146659600Y-87020400D03*
X135991600Y-109474000D03*
X151511000Y-122555000D03*
X158140400Y-79171800D03*
X152425400Y-123164600D03*
X142189200Y-80772000D03*
X132198800Y-107823600D03*
X144475200Y-95427800D03*
X170408600Y-112674400D03*
X152715955Y-100800963D03*
X153568899Y-110820699D03*
X171234697Y-89191503D03*
X174980600Y-115493800D03*
X149758400Y-110744000D03*
X138955200Y-124562200D03*
X171300000Y-85700000D03*
X170561000Y-92456000D03*
X174828200Y-117779800D03*
X141554200Y-117373400D03*
X170230800Y-110667800D03*
X160401000Y-101523800D03*
X160223200Y-111988600D03*
X149377400Y-95986600D03*
X166979600Y-111277400D03*
X141579600Y-108686600D03*
X159199000Y-96800000D03*
X141732000Y-115290600D03*
X143222400Y-125603600D03*
X167894000Y-108356400D03*
X145719800Y-102692200D03*
X131521200Y-118973600D03*
X162636200Y-112979200D03*
X171627800Y-109169200D03*
X150843679Y-119561036D03*
X156083000Y-114198400D03*
X175971200Y-97282000D03*
X131470400Y-85877400D03*
X175641000Y-120142000D03*
X148793200Y-119380000D03*
X146659600Y-95504000D03*
X143078200Y-106705400D03*
X156083000Y-115316000D03*
X132198800Y-106807600D03*
X156159200Y-120929400D03*
X149851800Y-91008800D03*
X159689800Y-114249200D03*
X138320200Y-123825600D03*
X165599800Y-102057800D03*
X155399000Y-123113800D03*
%TO.N,+BCKUP_BATT*%
X132334000Y-111455200D03*
X133172200Y-112496600D03*
X150952200Y-96113600D03*
X134874000Y-86995000D03*
%TO.N,+3.3V*%
X163550600Y-96799400D03*
X170505901Y-91368099D03*
X150029600Y-92837600D03*
X130319200Y-119685400D03*
X173507400Y-109220000D03*
X170904253Y-84035547D03*
X154703200Y-81966400D03*
X130352800Y-103124000D03*
X174828200Y-110643000D03*
X136491400Y-113094600D03*
X139216800Y-106756800D03*
%TO.N,/STM32F401RCT6/NRST*%
X157310500Y-91076100D03*
%TO.N,/SIM800C/SIM_DATA*%
X141655800Y-110871000D03*
%TO.N,/SIM800C/SIM_CLK*%
X141681200Y-111963200D03*
%TO.N,/SIM800C/SIM_RST*%
X138835900Y-113080800D03*
%TO.N,/SIM800C/SIM_VDD*%
X138728979Y-114145181D03*
%TO.N,/STM32F401RCT6/USART1_RX*%
X164795200Y-80707900D03*
%TO.N,/STM32F401RCT6/BOOT0*%
X152120600Y-87934800D03*
%TO.N,/NEO-6M/PWR_CNTR*%
X162229800Y-84302600D03*
X135358900Y-102463600D03*
%TO.N,Net-(U4-TIMEPULSE)*%
X138201400Y-82296000D03*
X134874000Y-94970600D03*
%TO.N,/NEO-6M/UART_RXD1*%
X149098000Y-94488000D03*
X161467800Y-85598000D03*
%TO.N,/STM32F401RCT6/PA4*%
X149733000Y-98729800D03*
X163118800Y-90652600D03*
%TO.N,/STM32F401RCT6/PA6*%
X174701200Y-100203000D03*
X166725600Y-89662000D03*
%TO.N,/ADC1_IN6*%
X174675800Y-105994200D03*
%TD*%
%TA.AperFunction,Conductor*%
%TO.N,GND*%
G36*
X172991652Y-77562649D02*
G01*
X173334013Y-77579471D01*
X173340071Y-77580068D01*
X173677628Y-77630141D01*
X173683599Y-77631329D01*
X173879817Y-77680479D01*
X174014642Y-77714252D01*
X174020433Y-77716008D01*
X174341776Y-77830988D01*
X174347367Y-77833304D01*
X174553294Y-77930701D01*
X174655878Y-77979220D01*
X174661244Y-77982088D01*
X174896671Y-78123199D01*
X174953941Y-78157525D01*
X174959003Y-78160907D01*
X175233110Y-78364199D01*
X175237814Y-78368059D01*
X175490680Y-78597244D01*
X175494955Y-78601519D01*
X175676263Y-78801561D01*
X175724138Y-78854383D01*
X175728000Y-78859089D01*
X175931292Y-79133196D01*
X175934674Y-79138258D01*
X176110109Y-79430952D01*
X176112979Y-79436321D01*
X176258890Y-79744820D01*
X176261215Y-79750433D01*
X176376186Y-80071753D01*
X176377950Y-80077567D01*
X176460870Y-80408600D01*
X176462058Y-80414571D01*
X176512131Y-80752128D01*
X176512728Y-80758186D01*
X176529551Y-81100564D01*
X176529626Y-81103606D01*
X176529626Y-81168069D01*
X176529678Y-81168779D01*
X176532673Y-84960705D01*
X176513041Y-85027760D01*
X176460274Y-85073557D01*
X176391123Y-85083555D01*
X176327544Y-85054580D01*
X176307098Y-85031926D01*
X176191894Y-84867397D01*
X176024802Y-84700306D01*
X176024795Y-84700301D01*
X176008114Y-84688621D01*
X175985921Y-84673081D01*
X175831234Y-84564767D01*
X175831230Y-84564765D01*
X175818753Y-84558947D01*
X175617063Y-84464897D01*
X175617059Y-84464896D01*
X175617055Y-84464894D01*
X175388813Y-84403738D01*
X175388803Y-84403736D01*
X175153401Y-84383141D01*
X175153399Y-84383141D01*
X174917996Y-84403736D01*
X174917986Y-84403738D01*
X174689744Y-84464894D01*
X174689735Y-84464898D01*
X174475571Y-84564764D01*
X174475569Y-84564765D01*
X174281997Y-84700305D01*
X174114905Y-84867397D01*
X173979365Y-85060969D01*
X173979364Y-85060971D01*
X173885801Y-85261616D01*
X173881048Y-85271812D01*
X173879498Y-85275135D01*
X173879494Y-85275144D01*
X173818338Y-85503386D01*
X173818336Y-85503396D01*
X173797741Y-85738799D01*
X173797741Y-85738800D01*
X173818336Y-85974203D01*
X173818338Y-85974213D01*
X173879494Y-86202455D01*
X173879496Y-86202459D01*
X173879497Y-86202463D01*
X173963286Y-86382148D01*
X173979365Y-86416630D01*
X173979367Y-86416634D01*
X174087681Y-86571321D01*
X174114901Y-86610196D01*
X174114906Y-86610202D01*
X174281997Y-86777293D01*
X174282003Y-86777298D01*
X174467558Y-86907225D01*
X174511183Y-86961802D01*
X174518377Y-87031300D01*
X174486854Y-87093655D01*
X174467558Y-87110375D01*
X174281997Y-87240305D01*
X174114905Y-87407397D01*
X173979365Y-87600969D01*
X173979364Y-87600971D01*
X173879498Y-87815135D01*
X173879494Y-87815144D01*
X173818338Y-88043386D01*
X173818336Y-88043396D01*
X173797741Y-88278799D01*
X173797741Y-88278800D01*
X173818336Y-88514203D01*
X173818338Y-88514213D01*
X173879494Y-88742455D01*
X173879496Y-88742459D01*
X173879497Y-88742463D01*
X173906727Y-88800857D01*
X173979365Y-88956630D01*
X173979367Y-88956634D01*
X174087681Y-89111321D01*
X174114901Y-89150196D01*
X174114906Y-89150202D01*
X174281997Y-89317293D01*
X174282003Y-89317298D01*
X174467558Y-89447225D01*
X174511183Y-89501802D01*
X174518377Y-89571300D01*
X174486854Y-89633655D01*
X174467558Y-89650375D01*
X174281997Y-89780305D01*
X174114905Y-89947397D01*
X173979365Y-90140969D01*
X173979364Y-90140971D01*
X173879498Y-90355135D01*
X173879494Y-90355144D01*
X173818338Y-90583386D01*
X173818336Y-90583396D01*
X173797741Y-90818799D01*
X173797741Y-90818800D01*
X173818336Y-91054203D01*
X173818338Y-91054213D01*
X173879494Y-91282455D01*
X173879496Y-91282459D01*
X173879497Y-91282463D01*
X173951443Y-91436751D01*
X173979365Y-91496630D01*
X173979367Y-91496634D01*
X174057567Y-91608314D01*
X174114901Y-91690196D01*
X174114906Y-91690202D01*
X174237218Y-91812514D01*
X174270703Y-91873837D01*
X174265719Y-91943529D01*
X174223847Y-91999462D01*
X174192871Y-92016377D01*
X174061312Y-92065446D01*
X174061306Y-92065449D01*
X173946212Y-92151609D01*
X173946209Y-92151612D01*
X173860049Y-92266706D01*
X173860045Y-92266713D01*
X173809803Y-92401420D01*
X173809801Y-92401427D01*
X173803400Y-92460955D01*
X173803400Y-93108800D01*
X174719714Y-93108800D01*
X174693907Y-93148956D01*
X174653400Y-93286911D01*
X174653400Y-93430689D01*
X174693907Y-93568644D01*
X174719714Y-93608800D01*
X173803400Y-93608800D01*
X173803400Y-94256644D01*
X173809801Y-94316172D01*
X173809803Y-94316179D01*
X173860045Y-94450886D01*
X173860049Y-94450893D01*
X173946209Y-94565987D01*
X173946212Y-94565990D01*
X174061306Y-94652150D01*
X174061313Y-94652154D01*
X174196020Y-94702396D01*
X174196027Y-94702398D01*
X174255555Y-94708799D01*
X174255572Y-94708800D01*
X174903400Y-94708800D01*
X174903400Y-93794301D01*
X175011085Y-93843480D01*
X175117637Y-93858800D01*
X175189163Y-93858800D01*
X175295715Y-93843480D01*
X175403400Y-93794301D01*
X175403400Y-94708800D01*
X176051228Y-94708800D01*
X176051244Y-94708799D01*
X176110772Y-94702398D01*
X176110779Y-94702396D01*
X176245486Y-94652154D01*
X176245489Y-94652152D01*
X176342037Y-94579876D01*
X176407501Y-94555458D01*
X176475774Y-94570309D01*
X176525180Y-94619714D01*
X176540349Y-94679044D01*
X176562898Y-123227245D01*
X176562824Y-123230337D01*
X176546004Y-123572690D01*
X176545408Y-123578749D01*
X176495335Y-123916309D01*
X176494148Y-123922280D01*
X176411231Y-124253302D01*
X176409464Y-124259128D01*
X176294498Y-124580438D01*
X176292168Y-124586063D01*
X176146260Y-124894559D01*
X176143390Y-124899928D01*
X175967956Y-125192622D01*
X175964574Y-125197684D01*
X175761281Y-125471791D01*
X175757419Y-125476497D01*
X175614757Y-125633901D01*
X175559929Y-125694395D01*
X175528251Y-125729346D01*
X175523950Y-125733646D01*
X175486087Y-125767964D01*
X175271097Y-125962819D01*
X175266391Y-125966681D01*
X174992284Y-126169974D01*
X174987222Y-126173356D01*
X174694528Y-126348790D01*
X174689159Y-126351660D01*
X174380663Y-126497568D01*
X174375038Y-126499898D01*
X174053728Y-126614864D01*
X174047902Y-126616631D01*
X173716880Y-126699548D01*
X173710909Y-126700735D01*
X173373347Y-126750808D01*
X173367289Y-126751404D01*
X173024897Y-126768225D01*
X173021854Y-126768300D01*
X172961552Y-126768300D01*
X172961334Y-126768315D01*
X132894940Y-126778299D01*
X132891882Y-126778225D01*
X132549509Y-126761404D01*
X132543450Y-126760808D01*
X132205890Y-126710735D01*
X132199922Y-126709548D01*
X132100574Y-126684663D01*
X131868897Y-126626631D01*
X131863071Y-126624864D01*
X131541761Y-126509898D01*
X131536136Y-126507568D01*
X131227640Y-126361660D01*
X131222276Y-126358792D01*
X130929577Y-126183356D01*
X130924515Y-126179974D01*
X130650408Y-125976681D01*
X130645702Y-125972819D01*
X130591853Y-125924013D01*
X130392838Y-125743636D01*
X130388563Y-125739361D01*
X130159378Y-125486495D01*
X130155518Y-125481791D01*
X129952225Y-125207684D01*
X129948843Y-125202622D01*
X129773402Y-124909916D01*
X129770539Y-124904559D01*
X129765809Y-124894559D01*
X129624630Y-124596062D01*
X129622301Y-124590438D01*
X129616289Y-124573635D01*
X129507334Y-124269126D01*
X129505568Y-124263302D01*
X129422647Y-123932261D01*
X129421464Y-123926309D01*
X129414022Y-123876141D01*
X129371390Y-123588740D01*
X129370795Y-123582690D01*
X129353975Y-123240311D01*
X129353900Y-123237269D01*
X129353900Y-123228800D01*
X130178465Y-123228800D01*
X130198186Y-123554838D01*
X130257067Y-123876141D01*
X130354235Y-124187964D01*
X130354239Y-124187975D01*
X130488297Y-124485841D01*
X130488298Y-124485843D01*
X130657287Y-124765386D01*
X130804877Y-124953768D01*
X131947611Y-123811035D01*
X132048294Y-123952424D01*
X132200332Y-124097392D01*
X132302622Y-124163130D01*
X131158430Y-125307321D01*
X131158430Y-125307322D01*
X131346814Y-125454912D01*
X131346823Y-125454918D01*
X131626356Y-125623901D01*
X131626358Y-125623902D01*
X131924224Y-125757960D01*
X131924235Y-125757964D01*
X132236058Y-125855132D01*
X132557361Y-125914013D01*
X132883400Y-125933734D01*
X133209438Y-125914013D01*
X133530741Y-125855132D01*
X133842564Y-125757964D01*
X133842575Y-125757960D01*
X134140441Y-125623902D01*
X134140443Y-125623901D01*
X134419976Y-125454918D01*
X134419984Y-125454912D01*
X134608368Y-125307322D01*
X134608368Y-125307321D01*
X134529332Y-125228285D01*
X159663140Y-125228285D01*
X159673155Y-125413006D01*
X159673155Y-125413011D01*
X159722644Y-125591256D01*
X159722647Y-125591262D01*
X159809298Y-125754702D01*
X159871940Y-125828450D01*
X159929063Y-125895700D01*
X160076336Y-126007654D01*
X160244233Y-126085332D01*
X160244234Y-126085332D01*
X160244236Y-126085333D01*
X160299048Y-126097397D01*
X160424903Y-126125100D01*
X160424906Y-126125100D01*
X160563507Y-126125100D01*
X160563513Y-126125100D01*
X160701310Y-126110114D01*
X160876621Y-126051044D01*
X161035136Y-125955670D01*
X161169441Y-125828449D01*
X161273258Y-125675330D01*
X161341731Y-125503475D01*
X161371660Y-125320917D01*
X161361645Y-125136193D01*
X161322136Y-124993892D01*
X161312155Y-124957943D01*
X161312154Y-124957941D01*
X161295462Y-124926457D01*
X161281451Y-124858006D01*
X161306671Y-124792847D01*
X161363116Y-124751667D01*
X161417618Y-124745015D01*
X161467391Y-124750100D01*
X162767408Y-124750099D01*
X162870197Y-124739599D01*
X163036734Y-124684414D01*
X163186056Y-124592312D01*
X163310112Y-124468256D01*
X163402214Y-124318934D01*
X163402214Y-124318933D01*
X163405848Y-124313042D01*
X163457796Y-124266317D01*
X163526758Y-124255094D01*
X163590841Y-124282937D01*
X163599068Y-124290456D01*
X163746321Y-124437708D01*
X163939821Y-124573200D01*
X164153907Y-124673029D01*
X164153916Y-124673033D01*
X164367400Y-124730234D01*
X164367400Y-123682618D01*
X164482201Y-123735046D01*
X164583425Y-123749600D01*
X164651375Y-123749600D01*
X164752599Y-123735046D01*
X164867400Y-123682618D01*
X164867400Y-124730233D01*
X165080883Y-124673033D01*
X165080892Y-124673029D01*
X165294977Y-124573200D01*
X165294979Y-124573199D01*
X165488473Y-124437713D01*
X165488479Y-124437708D01*
X165655508Y-124270679D01*
X165655513Y-124270673D01*
X165765519Y-124113567D01*
X165820095Y-124069942D01*
X165889594Y-124062748D01*
X165951949Y-124094270D01*
X165968669Y-124113567D01*
X166078905Y-124271002D01*
X166216044Y-124408140D01*
X166245999Y-124438095D01*
X166314190Y-124485843D01*
X166439565Y-124573632D01*
X166439567Y-124573633D01*
X166439570Y-124573635D01*
X166653737Y-124673503D01*
X166881992Y-124734663D01*
X167058434Y-124750100D01*
X167117399Y-124755259D01*
X167117400Y-124755259D01*
X167117401Y-124755259D01*
X167176366Y-124750100D01*
X167352808Y-124734663D01*
X167581063Y-124673503D01*
X167795229Y-124573635D01*
X167988801Y-124438095D01*
X168155895Y-124271001D01*
X168291435Y-124077429D01*
X168391303Y-123863263D01*
X168452463Y-123635008D01*
X168467900Y-123458566D01*
X168467900Y-123238800D01*
X170308465Y-123238800D01*
X170328186Y-123564838D01*
X170387067Y-123886141D01*
X170484235Y-124197964D01*
X170484239Y-124197975D01*
X170618297Y-124495841D01*
X170618298Y-124495843D01*
X170787287Y-124775386D01*
X170934877Y-124963768D01*
X172077610Y-123821034D01*
X172178294Y-123962424D01*
X172330332Y-124107392D01*
X172432622Y-124173130D01*
X171288430Y-125317321D01*
X171288430Y-125317322D01*
X171476814Y-125464912D01*
X171476823Y-125464918D01*
X171756356Y-125633901D01*
X171756358Y-125633902D01*
X172054224Y-125767960D01*
X172054235Y-125767964D01*
X172366058Y-125865132D01*
X172687361Y-125924013D01*
X173013400Y-125943734D01*
X173339438Y-125924013D01*
X173660741Y-125865132D01*
X173972564Y-125767964D01*
X173972575Y-125767960D01*
X174270441Y-125633902D01*
X174270443Y-125633901D01*
X174549976Y-125464918D01*
X174549984Y-125464912D01*
X174738368Y-125317322D01*
X174738368Y-125317321D01*
X173596706Y-124175659D01*
X173610810Y-124168389D01*
X173775940Y-124038529D01*
X173913510Y-123879765D01*
X173948065Y-123819912D01*
X175091921Y-124963768D01*
X175091922Y-124963768D01*
X175239512Y-124775384D01*
X175239518Y-124775376D01*
X175408501Y-124495843D01*
X175408502Y-124495841D01*
X175542560Y-124197975D01*
X175542564Y-124197964D01*
X175639732Y-123886141D01*
X175698613Y-123564838D01*
X175718334Y-123238800D01*
X175698613Y-122912761D01*
X175639732Y-122591458D01*
X175542564Y-122279635D01*
X175542560Y-122279624D01*
X175408502Y-121981758D01*
X175408501Y-121981756D01*
X175239518Y-121702223D01*
X175239512Y-121702214D01*
X175091921Y-121513830D01*
X173949188Y-122656563D01*
X173848506Y-122515176D01*
X173696468Y-122370208D01*
X173594177Y-122304469D01*
X174738368Y-121160277D01*
X174738368Y-121160276D01*
X174549986Y-121012687D01*
X174270443Y-120843698D01*
X174270441Y-120843697D01*
X173972575Y-120709639D01*
X173972564Y-120709635D01*
X173660741Y-120612467D01*
X173339438Y-120553586D01*
X173013400Y-120533865D01*
X172687361Y-120553586D01*
X172366058Y-120612467D01*
X172054235Y-120709635D01*
X172054224Y-120709639D01*
X171756358Y-120843697D01*
X171756356Y-120843698D01*
X171476823Y-121012681D01*
X171288430Y-121160276D01*
X171288430Y-121160277D01*
X172430093Y-122301940D01*
X172415990Y-122309211D01*
X172250860Y-122439071D01*
X172113290Y-122597835D01*
X172078734Y-122657687D01*
X170934877Y-121513830D01*
X170934876Y-121513830D01*
X170787281Y-121702223D01*
X170618298Y-121981756D01*
X170618297Y-121981758D01*
X170484239Y-122279624D01*
X170484235Y-122279635D01*
X170387067Y-122591458D01*
X170328186Y-122912761D01*
X170308465Y-123238800D01*
X168467900Y-123238800D01*
X168467900Y-123090634D01*
X168452463Y-122914192D01*
X168391303Y-122685937D01*
X168291435Y-122471771D01*
X168268539Y-122439071D01*
X168155894Y-122278197D01*
X167988802Y-122111106D01*
X167988795Y-122111101D01*
X167795234Y-121975567D01*
X167795230Y-121975565D01*
X167755177Y-121956888D01*
X167581063Y-121875697D01*
X167581059Y-121875696D01*
X167581055Y-121875694D01*
X167352813Y-121814538D01*
X167352803Y-121814536D01*
X167117401Y-121793941D01*
X167117399Y-121793941D01*
X166881996Y-121814536D01*
X166881986Y-121814538D01*
X166653744Y-121875694D01*
X166653735Y-121875698D01*
X166439571Y-121975564D01*
X166439569Y-121975565D01*
X166245997Y-122111105D01*
X166078908Y-122278194D01*
X165968669Y-122435632D01*
X165914092Y-122479256D01*
X165844593Y-122486449D01*
X165782239Y-122454927D01*
X165765519Y-122435631D01*
X165655513Y-122278526D01*
X165655508Y-122278520D01*
X165488482Y-122111494D01*
X165294978Y-121975999D01*
X165080892Y-121876170D01*
X165080886Y-121876167D01*
X164867400Y-121818964D01*
X164867400Y-122866581D01*
X164752599Y-122814154D01*
X164651375Y-122799600D01*
X164583425Y-122799600D01*
X164482201Y-122814154D01*
X164367400Y-122866581D01*
X164367400Y-121818964D01*
X164367399Y-121818964D01*
X164153913Y-121876167D01*
X164153907Y-121876170D01*
X163939822Y-121975999D01*
X163939820Y-121976000D01*
X163746326Y-122111486D01*
X163599068Y-122258744D01*
X163537745Y-122292228D01*
X163468053Y-122287244D01*
X163412120Y-122245372D01*
X163405848Y-122236158D01*
X163310112Y-122080944D01*
X163186057Y-121956889D01*
X163186056Y-121956888D01*
X163055186Y-121876167D01*
X163036736Y-121864787D01*
X163036731Y-121864785D01*
X163035262Y-121864298D01*
X162870197Y-121809601D01*
X162870195Y-121809600D01*
X162767410Y-121799100D01*
X161467398Y-121799100D01*
X161467381Y-121799101D01*
X161364603Y-121809600D01*
X161364600Y-121809601D01*
X161198068Y-121864785D01*
X161198063Y-121864787D01*
X161048742Y-121956889D01*
X160924689Y-122080942D01*
X160832587Y-122230263D01*
X160832585Y-122230268D01*
X160816596Y-122278520D01*
X160777401Y-122396803D01*
X160777401Y-122396804D01*
X160777400Y-122396804D01*
X160766900Y-122499583D01*
X160766900Y-124049601D01*
X160766901Y-124049618D01*
X160777400Y-124152396D01*
X160777401Y-124152399D01*
X160819111Y-124278270D01*
X160821513Y-124348098D01*
X160785781Y-124408140D01*
X160723261Y-124439333D01*
X160674749Y-124438375D01*
X160609897Y-124424100D01*
X160471287Y-124424100D01*
X160471283Y-124424100D01*
X160333488Y-124439086D01*
X160158176Y-124498157D01*
X160158174Y-124498158D01*
X159999662Y-124593531D01*
X159999661Y-124593532D01*
X159865359Y-124720749D01*
X159761538Y-124873876D01*
X159693069Y-125045722D01*
X159693069Y-125045725D01*
X159668157Y-125197684D01*
X159663140Y-125228285D01*
X134529332Y-125228285D01*
X133466706Y-124165659D01*
X133480810Y-124158389D01*
X133645940Y-124028529D01*
X133783510Y-123869765D01*
X133818065Y-123809912D01*
X134961921Y-124953768D01*
X134961922Y-124953768D01*
X135109512Y-124765384D01*
X135109518Y-124765376D01*
X135278501Y-124485843D01*
X135278502Y-124485841D01*
X135412560Y-124187975D01*
X135412564Y-124187964D01*
X135509732Y-123876141D01*
X135568613Y-123554838D01*
X135588334Y-123228800D01*
X135568613Y-122902761D01*
X135509732Y-122581458D01*
X135412564Y-122269635D01*
X135412560Y-122269624D01*
X135278502Y-121971758D01*
X135278501Y-121971756D01*
X135109518Y-121692223D01*
X135109512Y-121692214D01*
X134961921Y-121503830D01*
X133819188Y-122646563D01*
X133718506Y-122505176D01*
X133566468Y-122360208D01*
X133464177Y-122294469D01*
X134608368Y-121150277D01*
X134608368Y-121150276D01*
X134419986Y-121002687D01*
X134140443Y-120833698D01*
X134140441Y-120833697D01*
X133842575Y-120699639D01*
X133842564Y-120699635D01*
X133530741Y-120602467D01*
X133209438Y-120543586D01*
X132883400Y-120523865D01*
X132557361Y-120543586D01*
X132236058Y-120602467D01*
X131924235Y-120699635D01*
X131924224Y-120699639D01*
X131626358Y-120833697D01*
X131626356Y-120833698D01*
X131346823Y-121002681D01*
X131158430Y-121150276D01*
X131158430Y-121150277D01*
X132300093Y-122291940D01*
X132285990Y-122299211D01*
X132120860Y-122429071D01*
X131983290Y-122587835D01*
X131948734Y-122647687D01*
X130804877Y-121503830D01*
X130804876Y-121503830D01*
X130657281Y-121692223D01*
X130488298Y-121971756D01*
X130488297Y-121971758D01*
X130354239Y-122269624D01*
X130354235Y-122269635D01*
X130257067Y-122581458D01*
X130198186Y-122902761D01*
X130178465Y-123228800D01*
X129353900Y-123228800D01*
X129353900Y-123172415D01*
X129353867Y-123171982D01*
X129352492Y-120274845D01*
X129372145Y-120207797D01*
X129424927Y-120162017D01*
X129494081Y-120152041D01*
X129557650Y-120181036D01*
X129583881Y-120212790D01*
X129586667Y-120217616D01*
X129713329Y-120358288D01*
X129866465Y-120469548D01*
X129866470Y-120469551D01*
X130039392Y-120546542D01*
X130039397Y-120546544D01*
X130224554Y-120585900D01*
X130224555Y-120585900D01*
X130413844Y-120585900D01*
X130413846Y-120585900D01*
X130599003Y-120546544D01*
X130771930Y-120469551D01*
X130925071Y-120358288D01*
X131051733Y-120217616D01*
X131146379Y-120053684D01*
X131204874Y-119873656D01*
X131224660Y-119685400D01*
X131204874Y-119497144D01*
X131146379Y-119317116D01*
X131051733Y-119153184D01*
X130925071Y-119012512D01*
X130925070Y-119012511D01*
X130771934Y-118901251D01*
X130771929Y-118901248D01*
X130599007Y-118824257D01*
X130599002Y-118824255D01*
X130453201Y-118793265D01*
X130413846Y-118784900D01*
X130224554Y-118784900D01*
X130192097Y-118791798D01*
X130039397Y-118824255D01*
X130039392Y-118824257D01*
X129866470Y-118901248D01*
X129866465Y-118901251D01*
X129713329Y-119012511D01*
X129586665Y-119153185D01*
X129586663Y-119153188D01*
X129583316Y-119158986D01*
X129532746Y-119207199D01*
X129464139Y-119220419D01*
X129399275Y-119194448D01*
X129358750Y-119137531D01*
X129351932Y-119097044D01*
X129349581Y-114145181D01*
X137823519Y-114145181D01*
X137843305Y-114333437D01*
X137843306Y-114333440D01*
X137901797Y-114513458D01*
X137901800Y-114513465D01*
X137996446Y-114677397D01*
X138123108Y-114818069D01*
X138276244Y-114929329D01*
X138276249Y-114929332D01*
X138449171Y-115006323D01*
X138449176Y-115006325D01*
X138634333Y-115045681D01*
X138634334Y-115045681D01*
X138823623Y-115045681D01*
X138823625Y-115045681D01*
X139008782Y-115006325D01*
X139181709Y-114929332D01*
X139334850Y-114818069D01*
X139461512Y-114677397D01*
X139556158Y-114513465D01*
X139614653Y-114333437D01*
X139634439Y-114145181D01*
X139614653Y-113956925D01*
X139556158Y-113776897D01*
X139548348Y-113763370D01*
X139531875Y-113695473D01*
X139554726Y-113629446D01*
X139563578Y-113618407D01*
X139568433Y-113613016D01*
X139663079Y-113449084D01*
X139721574Y-113269056D01*
X139741360Y-113080800D01*
X139721574Y-112892544D01*
X139663079Y-112712516D01*
X139568433Y-112548584D01*
X139441771Y-112407912D01*
X139395716Y-112374451D01*
X139288634Y-112296651D01*
X139288629Y-112296648D01*
X139115707Y-112219657D01*
X139115702Y-112219655D01*
X138969901Y-112188665D01*
X138930546Y-112180300D01*
X138741254Y-112180300D01*
X138708797Y-112187198D01*
X138556097Y-112219655D01*
X138556092Y-112219657D01*
X138383170Y-112296648D01*
X138383165Y-112296651D01*
X138230029Y-112407911D01*
X138103366Y-112548585D01*
X138008721Y-112712515D01*
X138008718Y-112712522D01*
X137959213Y-112864884D01*
X137950226Y-112892544D01*
X137930440Y-113080800D01*
X137950226Y-113269056D01*
X137950227Y-113269059D01*
X138008720Y-113449082D01*
X138016531Y-113462612D01*
X138033001Y-113530513D01*
X138010148Y-113596539D01*
X138001296Y-113607578D01*
X137996447Y-113612963D01*
X137996443Y-113612968D01*
X137901800Y-113776896D01*
X137901797Y-113776903D01*
X137843306Y-113956921D01*
X137843305Y-113956925D01*
X137823519Y-114145181D01*
X129349581Y-114145181D01*
X129348304Y-111455200D01*
X131428540Y-111455200D01*
X131448326Y-111643456D01*
X131448327Y-111643459D01*
X131506818Y-111823477D01*
X131506821Y-111823484D01*
X131601467Y-111987416D01*
X131728129Y-112128088D01*
X131881265Y-112239348D01*
X131881270Y-112239351D01*
X132054192Y-112316342D01*
X132054193Y-112316342D01*
X132054197Y-112316344D01*
X132171415Y-112341259D01*
X132232897Y-112374451D01*
X132266674Y-112435614D01*
X132268956Y-112475506D01*
X132266864Y-112495416D01*
X132266740Y-112496600D01*
X132286526Y-112684856D01*
X132286527Y-112684859D01*
X132345018Y-112864877D01*
X132345021Y-112864884D01*
X132439667Y-113028816D01*
X132566329Y-113169488D01*
X132719465Y-113280748D01*
X132719470Y-113280751D01*
X132892392Y-113357742D01*
X132892397Y-113357744D01*
X133077554Y-113397100D01*
X133077555Y-113397100D01*
X133266844Y-113397100D01*
X133266846Y-113397100D01*
X133452003Y-113357744D01*
X133624930Y-113280751D01*
X133778071Y-113169488D01*
X133845501Y-113094600D01*
X135585940Y-113094600D01*
X135605726Y-113282856D01*
X135605727Y-113282859D01*
X135664218Y-113462877D01*
X135664221Y-113462884D01*
X135758867Y-113626816D01*
X135881824Y-113763373D01*
X135885529Y-113767488D01*
X136038665Y-113878748D01*
X136038670Y-113878751D01*
X136211592Y-113955742D01*
X136211597Y-113955744D01*
X136396754Y-113995100D01*
X136396755Y-113995100D01*
X136586044Y-113995100D01*
X136586046Y-113995100D01*
X136771203Y-113955744D01*
X136944130Y-113878751D01*
X137097271Y-113767488D01*
X137223933Y-113626816D01*
X137318579Y-113462884D01*
X137377074Y-113282856D01*
X137396860Y-113094600D01*
X137377074Y-112906344D01*
X137318579Y-112726316D01*
X137223933Y-112562384D01*
X137097271Y-112421712D01*
X137078277Y-112407912D01*
X136944134Y-112310451D01*
X136944129Y-112310448D01*
X136771207Y-112233457D01*
X136771202Y-112233455D01*
X136625401Y-112202465D01*
X136586046Y-112194100D01*
X136396754Y-112194100D01*
X136364297Y-112200998D01*
X136211597Y-112233455D01*
X136211592Y-112233457D01*
X136038670Y-112310448D01*
X136038665Y-112310451D01*
X135885529Y-112421711D01*
X135758866Y-112562385D01*
X135664221Y-112726315D01*
X135664218Y-112726322D01*
X135619197Y-112864884D01*
X135605726Y-112906344D01*
X135585940Y-113094600D01*
X133845501Y-113094600D01*
X133904733Y-113028816D01*
X133999379Y-112864884D01*
X134057874Y-112684856D01*
X134077660Y-112496600D01*
X134057874Y-112308344D01*
X133999379Y-112128316D01*
X133904733Y-111964384D01*
X133778071Y-111823712D01*
X133778070Y-111823711D01*
X133624934Y-111712451D01*
X133624929Y-111712448D01*
X133452007Y-111635457D01*
X133452002Y-111635455D01*
X133334783Y-111610540D01*
X133273301Y-111577348D01*
X133239525Y-111516185D01*
X133237243Y-111476291D01*
X133239460Y-111455200D01*
X133219674Y-111266944D01*
X133161179Y-111086916D01*
X133066533Y-110922984D01*
X133019726Y-110871000D01*
X140750340Y-110871000D01*
X140770126Y-111059256D01*
X140770127Y-111059259D01*
X140828618Y-111239277D01*
X140828619Y-111239279D01*
X140828621Y-111239284D01*
X140872848Y-111315888D01*
X140908187Y-111377097D01*
X140924659Y-111444997D01*
X140908187Y-111501095D01*
X140854020Y-111594916D01*
X140815831Y-111712451D01*
X140795526Y-111774944D01*
X140775740Y-111963200D01*
X140795526Y-112151456D01*
X140795527Y-112151459D01*
X140854018Y-112331477D01*
X140854021Y-112331484D01*
X140948667Y-112495416D01*
X141075329Y-112636088D01*
X141228465Y-112747348D01*
X141228470Y-112747351D01*
X141401392Y-112824342D01*
X141401397Y-112824344D01*
X141586554Y-112863700D01*
X141586555Y-112863700D01*
X141775844Y-112863700D01*
X141775846Y-112863700D01*
X141961003Y-112824344D01*
X142133930Y-112747351D01*
X142287071Y-112636088D01*
X142413733Y-112495416D01*
X142508379Y-112331484D01*
X142566874Y-112151456D01*
X142586660Y-111963200D01*
X142566874Y-111774944D01*
X142508379Y-111594916D01*
X142428811Y-111457101D01*
X142412339Y-111389202D01*
X142428810Y-111333106D01*
X142482979Y-111239284D01*
X142541474Y-111059256D01*
X142561260Y-110871000D01*
X142541474Y-110682744D01*
X142482979Y-110502716D01*
X142388333Y-110338784D01*
X142261671Y-110198112D01*
X142261670Y-110198111D01*
X142108534Y-110086851D01*
X142108529Y-110086848D01*
X141935607Y-110009857D01*
X141935602Y-110009855D01*
X141789801Y-109978865D01*
X141750446Y-109970500D01*
X141561154Y-109970500D01*
X141528697Y-109977398D01*
X141375997Y-110009855D01*
X141375992Y-110009857D01*
X141203070Y-110086848D01*
X141203065Y-110086851D01*
X141049929Y-110198111D01*
X140923266Y-110338785D01*
X140828621Y-110502715D01*
X140828618Y-110502722D01*
X140773926Y-110671048D01*
X140770126Y-110682744D01*
X140750340Y-110871000D01*
X133019726Y-110871000D01*
X132939871Y-110782312D01*
X132939870Y-110782311D01*
X132786734Y-110671051D01*
X132786729Y-110671048D01*
X132613807Y-110594057D01*
X132613802Y-110594055D01*
X132468001Y-110563065D01*
X132428646Y-110554700D01*
X132239354Y-110554700D01*
X132206897Y-110561598D01*
X132054197Y-110594055D01*
X132054192Y-110594057D01*
X131881270Y-110671048D01*
X131881265Y-110671051D01*
X131728129Y-110782311D01*
X131601466Y-110922985D01*
X131506821Y-111086915D01*
X131506818Y-111086922D01*
X131457315Y-111239279D01*
X131448326Y-111266944D01*
X131428540Y-111455200D01*
X129348304Y-111455200D01*
X129347243Y-109220000D01*
X172601940Y-109220000D01*
X172621726Y-109408256D01*
X172621727Y-109408259D01*
X172680218Y-109588277D01*
X172680219Y-109588279D01*
X172680221Y-109588284D01*
X172774867Y-109752216D01*
X172819151Y-109801398D01*
X172901529Y-109892888D01*
X173054665Y-110004148D01*
X173054670Y-110004151D01*
X173227592Y-110081142D01*
X173227597Y-110081144D01*
X173412754Y-110120500D01*
X173412755Y-110120500D01*
X173602044Y-110120500D01*
X173602046Y-110120500D01*
X173787203Y-110081144D01*
X173876787Y-110041257D01*
X173946036Y-110031972D01*
X174009313Y-110061600D01*
X174046527Y-110120735D01*
X174045863Y-110190602D01*
X174034611Y-110216536D01*
X174001020Y-110274718D01*
X174001018Y-110274722D01*
X173942527Y-110454740D01*
X173942526Y-110454744D01*
X173922740Y-110643000D01*
X173942526Y-110831256D01*
X173942527Y-110831259D01*
X174001018Y-111011277D01*
X174001021Y-111011284D01*
X174095667Y-111175216D01*
X174222329Y-111315888D01*
X174375465Y-111427148D01*
X174375470Y-111427151D01*
X174548392Y-111504142D01*
X174548397Y-111504144D01*
X174733554Y-111543500D01*
X174733555Y-111543500D01*
X174922844Y-111543500D01*
X174922846Y-111543500D01*
X175108003Y-111504144D01*
X175280930Y-111427151D01*
X175434071Y-111315888D01*
X175560733Y-111175216D01*
X175655379Y-111011284D01*
X175713874Y-110831256D01*
X175733660Y-110643000D01*
X175713874Y-110454744D01*
X175655379Y-110274716D01*
X175560733Y-110110784D01*
X175434071Y-109970112D01*
X175434070Y-109970111D01*
X175280934Y-109858851D01*
X175280929Y-109858848D01*
X175108007Y-109781857D01*
X175108002Y-109781855D01*
X174962201Y-109750865D01*
X174922846Y-109742500D01*
X174733554Y-109742500D01*
X174701097Y-109749398D01*
X174548397Y-109781855D01*
X174458811Y-109821742D01*
X174389561Y-109831026D01*
X174326285Y-109801398D01*
X174289072Y-109742262D01*
X174289737Y-109672396D01*
X174300984Y-109646471D01*
X174334579Y-109588284D01*
X174393074Y-109408256D01*
X174412860Y-109220000D01*
X174393074Y-109031744D01*
X174334579Y-108851716D01*
X174239933Y-108687784D01*
X174113271Y-108547112D01*
X174113270Y-108547111D01*
X173960134Y-108435851D01*
X173960129Y-108435848D01*
X173787207Y-108358857D01*
X173787202Y-108358855D01*
X173641401Y-108327865D01*
X173602046Y-108319500D01*
X173412754Y-108319500D01*
X173380297Y-108326398D01*
X173227597Y-108358855D01*
X173227592Y-108358857D01*
X173054670Y-108435848D01*
X173054665Y-108435851D01*
X172901529Y-108547111D01*
X172774866Y-108687785D01*
X172680221Y-108851715D01*
X172680218Y-108851722D01*
X172621727Y-109031740D01*
X172621726Y-109031744D01*
X172601940Y-109220000D01*
X129347243Y-109220000D01*
X129346073Y-106756800D01*
X138311340Y-106756800D01*
X138331126Y-106945056D01*
X138331127Y-106945059D01*
X138389618Y-107125077D01*
X138389621Y-107125084D01*
X138484267Y-107289016D01*
X138610929Y-107429688D01*
X138764065Y-107540948D01*
X138764070Y-107540951D01*
X138936992Y-107617942D01*
X138936997Y-107617944D01*
X139122154Y-107657300D01*
X139122155Y-107657300D01*
X139311444Y-107657300D01*
X139311446Y-107657300D01*
X139496603Y-107617944D01*
X139669530Y-107540951D01*
X139822671Y-107429688D01*
X139949333Y-107289016D01*
X140043979Y-107125084D01*
X140102474Y-106945056D01*
X140122260Y-106756800D01*
X140102474Y-106568544D01*
X140043979Y-106388516D01*
X139949333Y-106224584D01*
X139822671Y-106083912D01*
X139822670Y-106083911D01*
X139699194Y-105994200D01*
X173770340Y-105994200D01*
X173790126Y-106182456D01*
X173790127Y-106182459D01*
X173848618Y-106362477D01*
X173848621Y-106362484D01*
X173943267Y-106526416D01*
X174069929Y-106667088D01*
X174223065Y-106778348D01*
X174223070Y-106778351D01*
X174395992Y-106855342D01*
X174395997Y-106855344D01*
X174581154Y-106894700D01*
X174581155Y-106894700D01*
X174770444Y-106894700D01*
X174770446Y-106894700D01*
X174955603Y-106855344D01*
X175128530Y-106778351D01*
X175281671Y-106667088D01*
X175408333Y-106526416D01*
X175502979Y-106362484D01*
X175561474Y-106182456D01*
X175581260Y-105994200D01*
X175561474Y-105805944D01*
X175502979Y-105625916D01*
X175408333Y-105461984D01*
X175281671Y-105321312D01*
X175281670Y-105321311D01*
X175128534Y-105210051D01*
X175128529Y-105210048D01*
X174955607Y-105133057D01*
X174955602Y-105133055D01*
X174809801Y-105102065D01*
X174770446Y-105093700D01*
X174581154Y-105093700D01*
X174548697Y-105100598D01*
X174395997Y-105133055D01*
X174395992Y-105133057D01*
X174223070Y-105210048D01*
X174223065Y-105210051D01*
X174069929Y-105321311D01*
X173943266Y-105461985D01*
X173848621Y-105625915D01*
X173848618Y-105625922D01*
X173790127Y-105805940D01*
X173790126Y-105805944D01*
X173770340Y-105994200D01*
X139699194Y-105994200D01*
X139669534Y-105972651D01*
X139669529Y-105972648D01*
X139496607Y-105895657D01*
X139496602Y-105895655D01*
X139350801Y-105864665D01*
X139311446Y-105856300D01*
X139122154Y-105856300D01*
X139089697Y-105863198D01*
X138936997Y-105895655D01*
X138936992Y-105895657D01*
X138764070Y-105972648D01*
X138764065Y-105972651D01*
X138610929Y-106083911D01*
X138484266Y-106224585D01*
X138389621Y-106388515D01*
X138389618Y-106388522D01*
X138344814Y-106526416D01*
X138331126Y-106568544D01*
X138311340Y-106756800D01*
X129346073Y-106756800D01*
X129344594Y-103641568D01*
X129364247Y-103574520D01*
X129417029Y-103528740D01*
X129486183Y-103518764D01*
X129549752Y-103547759D01*
X129575981Y-103579511D01*
X129620263Y-103656211D01*
X129620265Y-103656214D01*
X129746929Y-103796888D01*
X129900065Y-103908148D01*
X129900070Y-103908151D01*
X130072992Y-103985142D01*
X130072997Y-103985144D01*
X130258154Y-104024500D01*
X130258155Y-104024500D01*
X130447444Y-104024500D01*
X130447446Y-104024500D01*
X130632603Y-103985144D01*
X130805530Y-103908151D01*
X130958671Y-103796888D01*
X131085333Y-103656216D01*
X131179979Y-103492284D01*
X131238474Y-103312256D01*
X131258260Y-103124000D01*
X131238474Y-102935744D01*
X131179979Y-102755716D01*
X131085333Y-102591784D01*
X130969915Y-102463600D01*
X134453440Y-102463600D01*
X134473226Y-102651856D01*
X134473227Y-102651859D01*
X134531718Y-102831877D01*
X134531721Y-102831884D01*
X134626367Y-102995816D01*
X134741785Y-103124000D01*
X134753029Y-103136488D01*
X134906165Y-103247748D01*
X134906170Y-103247751D01*
X135079092Y-103324742D01*
X135079097Y-103324744D01*
X135264254Y-103364100D01*
X135264255Y-103364100D01*
X135453544Y-103364100D01*
X135453546Y-103364100D01*
X135638703Y-103324744D01*
X135811630Y-103247751D01*
X135964771Y-103136488D01*
X136091433Y-102995816D01*
X136186079Y-102831884D01*
X136244574Y-102651856D01*
X136264360Y-102463600D01*
X136244574Y-102275344D01*
X136186079Y-102095316D01*
X136091433Y-101931384D01*
X135964771Y-101790712D01*
X135964770Y-101790711D01*
X135811634Y-101679451D01*
X135811629Y-101679448D01*
X135638707Y-101602457D01*
X135638702Y-101602455D01*
X135492901Y-101571465D01*
X135453546Y-101563100D01*
X135264254Y-101563100D01*
X135231797Y-101569998D01*
X135079097Y-101602455D01*
X135079092Y-101602457D01*
X134906170Y-101679448D01*
X134906165Y-101679451D01*
X134753029Y-101790711D01*
X134626366Y-101931385D01*
X134531721Y-102095315D01*
X134531718Y-102095322D01*
X134477283Y-102262857D01*
X134473226Y-102275344D01*
X134453440Y-102463600D01*
X130969915Y-102463600D01*
X130958671Y-102451112D01*
X130958670Y-102451111D01*
X130805534Y-102339851D01*
X130805529Y-102339848D01*
X130632607Y-102262857D01*
X130632602Y-102262855D01*
X130486801Y-102231865D01*
X130447446Y-102223500D01*
X130258154Y-102223500D01*
X130225697Y-102230398D01*
X130072997Y-102262855D01*
X130072992Y-102262857D01*
X129900070Y-102339848D01*
X129900065Y-102339851D01*
X129746929Y-102451111D01*
X129620265Y-102591785D01*
X129575490Y-102669339D01*
X129524923Y-102717555D01*
X129456316Y-102730777D01*
X129391451Y-102704809D01*
X129350923Y-102647895D01*
X129344103Y-102607398D01*
X129343976Y-102339848D01*
X129342961Y-100203000D01*
X173795740Y-100203000D01*
X173815526Y-100391256D01*
X173815527Y-100391259D01*
X173874018Y-100571277D01*
X173874021Y-100571284D01*
X173968667Y-100735216D01*
X174095329Y-100875888D01*
X174248465Y-100987148D01*
X174248470Y-100987151D01*
X174421392Y-101064142D01*
X174421397Y-101064144D01*
X174606554Y-101103500D01*
X174606555Y-101103500D01*
X174795844Y-101103500D01*
X174795846Y-101103500D01*
X174981003Y-101064144D01*
X175153930Y-100987151D01*
X175307071Y-100875888D01*
X175433733Y-100735216D01*
X175528379Y-100571284D01*
X175586874Y-100391256D01*
X175606660Y-100203000D01*
X175586874Y-100014744D01*
X175528379Y-99834716D01*
X175433733Y-99670784D01*
X175307071Y-99530112D01*
X175307070Y-99530111D01*
X175153934Y-99418851D01*
X175153929Y-99418848D01*
X174981007Y-99341857D01*
X174981002Y-99341855D01*
X174835201Y-99310865D01*
X174795846Y-99302500D01*
X174606554Y-99302500D01*
X174574097Y-99309398D01*
X174421397Y-99341855D01*
X174421392Y-99341857D01*
X174248470Y-99418848D01*
X174248465Y-99418851D01*
X174095329Y-99530111D01*
X173968666Y-99670785D01*
X173874021Y-99834715D01*
X173874018Y-99834722D01*
X173815527Y-100014740D01*
X173815526Y-100014744D01*
X173795740Y-100203000D01*
X129342961Y-100203000D01*
X129342262Y-98729800D01*
X148827540Y-98729800D01*
X148847326Y-98918056D01*
X148847327Y-98918059D01*
X148905818Y-99098077D01*
X148905821Y-99098084D01*
X149000467Y-99262016D01*
X149127129Y-99402688D01*
X149280265Y-99513948D01*
X149280270Y-99513951D01*
X149453192Y-99590942D01*
X149453197Y-99590944D01*
X149638354Y-99630300D01*
X149638355Y-99630300D01*
X149827644Y-99630300D01*
X149827646Y-99630300D01*
X150012803Y-99590944D01*
X150185730Y-99513951D01*
X150338871Y-99402688D01*
X150465533Y-99262016D01*
X150560179Y-99098084D01*
X150618674Y-98918056D01*
X150638460Y-98729800D01*
X150618674Y-98541544D01*
X150560179Y-98361516D01*
X150465533Y-98197584D01*
X150338871Y-98056912D01*
X150338870Y-98056911D01*
X150185734Y-97945651D01*
X150185729Y-97945648D01*
X150012807Y-97868657D01*
X150012802Y-97868655D01*
X149867001Y-97837665D01*
X149827646Y-97829300D01*
X149638354Y-97829300D01*
X149605897Y-97836198D01*
X149453197Y-97868655D01*
X149453192Y-97868657D01*
X149280270Y-97945648D01*
X149280265Y-97945651D01*
X149127129Y-98056911D01*
X149000466Y-98197585D01*
X148905821Y-98361515D01*
X148905818Y-98361522D01*
X148847327Y-98541540D01*
X148847326Y-98541544D01*
X148827540Y-98729800D01*
X129342262Y-98729800D01*
X129341020Y-96113600D01*
X150046740Y-96113600D01*
X150066526Y-96301856D01*
X150066527Y-96301859D01*
X150125018Y-96481877D01*
X150125021Y-96481884D01*
X150219667Y-96645816D01*
X150346329Y-96786488D01*
X150499465Y-96897748D01*
X150499470Y-96897751D01*
X150672392Y-96974742D01*
X150672397Y-96974744D01*
X150857554Y-97014100D01*
X150857555Y-97014100D01*
X151046844Y-97014100D01*
X151046846Y-97014100D01*
X151232003Y-96974744D01*
X151404930Y-96897751D01*
X151540299Y-96799400D01*
X162645140Y-96799400D01*
X162664926Y-96987656D01*
X162664927Y-96987659D01*
X162723418Y-97167677D01*
X162723421Y-97167684D01*
X162818067Y-97331616D01*
X162944729Y-97472288D01*
X163097865Y-97583548D01*
X163097870Y-97583551D01*
X163270792Y-97660542D01*
X163270797Y-97660544D01*
X163455954Y-97699900D01*
X163455955Y-97699900D01*
X163645244Y-97699900D01*
X163645246Y-97699900D01*
X163830403Y-97660544D01*
X164003330Y-97583551D01*
X164156471Y-97472288D01*
X164283133Y-97331616D01*
X164377779Y-97167684D01*
X164436274Y-96987656D01*
X164456060Y-96799400D01*
X164436274Y-96611144D01*
X164377779Y-96431116D01*
X164283133Y-96267184D01*
X164156471Y-96126512D01*
X164156470Y-96126511D01*
X164003334Y-96015251D01*
X164003329Y-96015248D01*
X163830407Y-95938257D01*
X163830402Y-95938255D01*
X163684601Y-95907265D01*
X163645246Y-95898900D01*
X163455954Y-95898900D01*
X163423497Y-95905798D01*
X163270797Y-95938255D01*
X163270792Y-95938257D01*
X163097870Y-96015248D01*
X163097865Y-96015251D01*
X162944729Y-96126511D01*
X162818066Y-96267185D01*
X162723421Y-96431115D01*
X162723418Y-96431122D01*
X162706925Y-96481884D01*
X162664926Y-96611144D01*
X162645140Y-96799400D01*
X151540299Y-96799400D01*
X151558071Y-96786488D01*
X151684733Y-96645816D01*
X151779379Y-96481884D01*
X151837874Y-96301856D01*
X151857660Y-96113600D01*
X151837874Y-95925344D01*
X151779379Y-95745316D01*
X151684733Y-95581384D01*
X151558071Y-95440712D01*
X151558070Y-95440711D01*
X151404934Y-95329451D01*
X151404929Y-95329448D01*
X151232007Y-95252457D01*
X151232002Y-95252455D01*
X151086201Y-95221465D01*
X151046846Y-95213100D01*
X150857554Y-95213100D01*
X150825097Y-95219998D01*
X150672397Y-95252455D01*
X150672392Y-95252457D01*
X150499470Y-95329448D01*
X150499465Y-95329451D01*
X150346329Y-95440711D01*
X150219666Y-95581385D01*
X150125021Y-95745315D01*
X150125018Y-95745322D01*
X150084151Y-95871100D01*
X150066526Y-95925344D01*
X150046740Y-96113600D01*
X129341020Y-96113600D01*
X129340477Y-94970600D01*
X133968540Y-94970600D01*
X133988326Y-95158856D01*
X133988327Y-95158859D01*
X134046818Y-95338877D01*
X134046821Y-95338884D01*
X134141467Y-95502816D01*
X134212211Y-95581385D01*
X134268129Y-95643488D01*
X134421265Y-95754748D01*
X134421270Y-95754751D01*
X134594192Y-95831742D01*
X134594197Y-95831744D01*
X134779354Y-95871100D01*
X134779355Y-95871100D01*
X134968644Y-95871100D01*
X134968646Y-95871100D01*
X135153803Y-95831744D01*
X135326730Y-95754751D01*
X135479871Y-95643488D01*
X135606533Y-95502816D01*
X135701179Y-95338884D01*
X135759674Y-95158856D01*
X135779460Y-94970600D01*
X135759674Y-94782344D01*
X135701179Y-94602316D01*
X135635179Y-94488000D01*
X148192540Y-94488000D01*
X148212326Y-94676256D01*
X148212327Y-94676259D01*
X148270818Y-94856277D01*
X148270821Y-94856284D01*
X148365467Y-95020216D01*
X148490299Y-95158856D01*
X148492129Y-95160888D01*
X148645265Y-95272148D01*
X148645270Y-95272151D01*
X148818192Y-95349142D01*
X148818197Y-95349144D01*
X149003354Y-95388500D01*
X149003355Y-95388500D01*
X149192644Y-95388500D01*
X149192646Y-95388500D01*
X149377803Y-95349144D01*
X149550730Y-95272151D01*
X149703871Y-95160888D01*
X149830533Y-95020216D01*
X149925179Y-94856284D01*
X149983674Y-94676256D01*
X150003460Y-94488000D01*
X149983674Y-94299744D01*
X149925179Y-94119716D01*
X149830533Y-93955784D01*
X149818783Y-93942734D01*
X149788555Y-93879746D01*
X149797179Y-93810411D01*
X149841919Y-93756745D01*
X149908571Y-93735787D01*
X149928469Y-93737686D01*
X149928497Y-93737421D01*
X149934953Y-93738099D01*
X149934954Y-93738100D01*
X149934955Y-93738100D01*
X150124244Y-93738100D01*
X150124246Y-93738100D01*
X150309403Y-93698744D01*
X150482330Y-93621751D01*
X150635471Y-93510488D01*
X150762133Y-93369816D01*
X150856779Y-93205884D01*
X150915274Y-93025856D01*
X150935060Y-92837600D01*
X150915274Y-92649344D01*
X150856779Y-92469316D01*
X150762133Y-92305384D01*
X150635471Y-92164712D01*
X150620539Y-92153863D01*
X150482334Y-92053451D01*
X150482329Y-92053448D01*
X150309407Y-91976457D01*
X150309402Y-91976455D01*
X150154492Y-91943529D01*
X150124246Y-91937100D01*
X149934954Y-91937100D01*
X149904708Y-91943529D01*
X149749797Y-91976455D01*
X149749792Y-91976457D01*
X149576870Y-92053448D01*
X149576865Y-92053451D01*
X149423729Y-92164711D01*
X149297066Y-92305385D01*
X149202421Y-92469315D01*
X149202418Y-92469322D01*
X149143927Y-92649340D01*
X149143926Y-92649344D01*
X149124140Y-92837600D01*
X149143926Y-93025856D01*
X149143927Y-93025859D01*
X149202418Y-93205877D01*
X149202421Y-93205884D01*
X149297067Y-93369816D01*
X149308814Y-93382862D01*
X149339044Y-93445853D01*
X149330420Y-93515188D01*
X149285680Y-93568854D01*
X149219027Y-93589812D01*
X149199130Y-93587913D01*
X149199103Y-93588179D01*
X149192646Y-93587500D01*
X149003354Y-93587500D01*
X149000160Y-93588179D01*
X148818197Y-93626855D01*
X148818192Y-93626857D01*
X148645270Y-93703848D01*
X148645265Y-93703851D01*
X148492129Y-93815111D01*
X148365466Y-93955785D01*
X148270821Y-94119715D01*
X148270818Y-94119722D01*
X148212986Y-94297712D01*
X148212326Y-94299744D01*
X148192540Y-94488000D01*
X135635179Y-94488000D01*
X135606533Y-94438384D01*
X135479871Y-94297712D01*
X135423346Y-94256644D01*
X135326734Y-94186451D01*
X135326729Y-94186448D01*
X135153807Y-94109457D01*
X135153802Y-94109455D01*
X135008001Y-94078465D01*
X134968646Y-94070100D01*
X134779354Y-94070100D01*
X134746897Y-94076998D01*
X134594197Y-94109455D01*
X134594192Y-94109457D01*
X134421270Y-94186448D01*
X134421265Y-94186451D01*
X134268129Y-94297711D01*
X134141466Y-94438385D01*
X134046821Y-94602315D01*
X134046818Y-94602322D01*
X133988327Y-94782340D01*
X133988326Y-94782344D01*
X133968540Y-94970600D01*
X129340477Y-94970600D01*
X129338628Y-91076100D01*
X156405040Y-91076100D01*
X156424826Y-91264356D01*
X156424827Y-91264359D01*
X156483318Y-91444377D01*
X156483321Y-91444384D01*
X156577967Y-91608316D01*
X156651697Y-91690201D01*
X156704629Y-91748988D01*
X156857765Y-91860248D01*
X156857770Y-91860251D01*
X157030692Y-91937242D01*
X157030697Y-91937244D01*
X157215854Y-91976600D01*
X157215855Y-91976600D01*
X157405144Y-91976600D01*
X157405146Y-91976600D01*
X157590303Y-91937244D01*
X157763230Y-91860251D01*
X157916371Y-91748988D01*
X158043033Y-91608316D01*
X158137679Y-91444384D01*
X158196174Y-91264356D01*
X158215960Y-91076100D01*
X158196174Y-90887844D01*
X158137679Y-90707816D01*
X158105800Y-90652600D01*
X162213340Y-90652600D01*
X162233126Y-90840856D01*
X162233127Y-90840859D01*
X162291618Y-91020877D01*
X162291621Y-91020884D01*
X162386267Y-91184816D01*
X162457888Y-91264359D01*
X162512929Y-91325488D01*
X162666065Y-91436748D01*
X162666070Y-91436751D01*
X162838992Y-91513742D01*
X162838997Y-91513744D01*
X163024154Y-91553100D01*
X163024155Y-91553100D01*
X163213444Y-91553100D01*
X163213446Y-91553100D01*
X163398603Y-91513744D01*
X163571530Y-91436751D01*
X163666022Y-91368099D01*
X169600441Y-91368099D01*
X169620227Y-91556355D01*
X169620228Y-91556358D01*
X169678719Y-91736376D01*
X169678722Y-91736383D01*
X169773368Y-91900315D01*
X169841925Y-91976455D01*
X169900030Y-92040987D01*
X170053166Y-92152247D01*
X170053171Y-92152250D01*
X170226093Y-92229241D01*
X170226098Y-92229243D01*
X170411255Y-92268599D01*
X170411256Y-92268599D01*
X170600545Y-92268599D01*
X170600547Y-92268599D01*
X170785704Y-92229243D01*
X170958631Y-92152250D01*
X171111772Y-92040987D01*
X171238434Y-91900315D01*
X171333080Y-91736383D01*
X171391575Y-91556355D01*
X171411361Y-91368099D01*
X171391575Y-91179843D01*
X171333080Y-90999815D01*
X171238434Y-90835883D01*
X171111772Y-90695211D01*
X171053123Y-90652600D01*
X170958635Y-90583950D01*
X170958630Y-90583947D01*
X170785708Y-90506956D01*
X170785703Y-90506954D01*
X170639902Y-90475964D01*
X170600547Y-90467599D01*
X170411255Y-90467599D01*
X170378798Y-90474497D01*
X170226098Y-90506954D01*
X170226093Y-90506956D01*
X170053171Y-90583947D01*
X170053166Y-90583950D01*
X169900030Y-90695210D01*
X169773367Y-90835884D01*
X169678722Y-90999814D01*
X169678719Y-90999821D01*
X169653935Y-91076100D01*
X169620227Y-91179843D01*
X169600441Y-91368099D01*
X163666022Y-91368099D01*
X163724671Y-91325488D01*
X163851333Y-91184816D01*
X163945979Y-91020884D01*
X164004474Y-90840856D01*
X164024260Y-90652600D01*
X164004474Y-90464344D01*
X163945979Y-90284316D01*
X163851333Y-90120384D01*
X163724671Y-89979712D01*
X163680196Y-89947399D01*
X163571534Y-89868451D01*
X163571529Y-89868448D01*
X163398607Y-89791457D01*
X163398602Y-89791455D01*
X163252801Y-89760465D01*
X163213446Y-89752100D01*
X163024154Y-89752100D01*
X162991697Y-89758998D01*
X162838997Y-89791455D01*
X162838992Y-89791457D01*
X162666070Y-89868448D01*
X162666065Y-89868451D01*
X162512929Y-89979711D01*
X162386266Y-90120385D01*
X162291621Y-90284315D01*
X162291618Y-90284322D01*
X162268607Y-90355144D01*
X162233126Y-90464344D01*
X162213340Y-90652600D01*
X158105800Y-90652600D01*
X158043033Y-90543884D01*
X157916371Y-90403212D01*
X157916370Y-90403211D01*
X157763234Y-90291951D01*
X157763229Y-90291948D01*
X157590307Y-90214957D01*
X157590302Y-90214955D01*
X157444501Y-90183965D01*
X157405146Y-90175600D01*
X157215854Y-90175600D01*
X157183397Y-90182498D01*
X157030697Y-90214955D01*
X157030692Y-90214957D01*
X156857770Y-90291948D01*
X156857765Y-90291951D01*
X156704629Y-90403211D01*
X156577966Y-90543885D01*
X156483321Y-90707815D01*
X156483318Y-90707822D01*
X156440093Y-90840856D01*
X156424826Y-90887844D01*
X156405040Y-91076100D01*
X129338628Y-91076100D01*
X129337956Y-89662000D01*
X165820140Y-89662000D01*
X165839926Y-89850256D01*
X165839927Y-89850259D01*
X165898418Y-90030277D01*
X165898421Y-90030284D01*
X165993067Y-90194216D01*
X166081068Y-90291951D01*
X166119729Y-90334888D01*
X166272865Y-90446148D01*
X166272870Y-90446151D01*
X166445792Y-90523142D01*
X166445797Y-90523144D01*
X166630954Y-90562500D01*
X166630955Y-90562500D01*
X166820244Y-90562500D01*
X166820246Y-90562500D01*
X167005403Y-90523144D01*
X167178330Y-90446151D01*
X167331471Y-90334888D01*
X167458133Y-90194216D01*
X167552779Y-90030284D01*
X167611274Y-89850256D01*
X167631060Y-89662000D01*
X167611274Y-89473744D01*
X167552779Y-89293716D01*
X167458133Y-89129784D01*
X167331471Y-88989112D01*
X167320387Y-88981059D01*
X167178334Y-88877851D01*
X167178329Y-88877848D01*
X167005407Y-88800857D01*
X167005402Y-88800855D01*
X166859601Y-88769865D01*
X166820246Y-88761500D01*
X166630954Y-88761500D01*
X166598497Y-88768398D01*
X166445797Y-88800855D01*
X166445792Y-88800857D01*
X166272870Y-88877848D01*
X166272865Y-88877851D01*
X166119729Y-88989111D01*
X165993066Y-89129785D01*
X165898421Y-89293715D01*
X165898418Y-89293722D01*
X165843110Y-89463945D01*
X165839926Y-89473744D01*
X165820140Y-89662000D01*
X129337956Y-89662000D01*
X129337136Y-87934800D01*
X151215140Y-87934800D01*
X151234926Y-88123056D01*
X151234927Y-88123059D01*
X151293418Y-88303077D01*
X151293421Y-88303084D01*
X151388067Y-88467016D01*
X151514729Y-88607688D01*
X151667865Y-88718948D01*
X151667870Y-88718951D01*
X151840792Y-88795942D01*
X151840797Y-88795944D01*
X152025954Y-88835300D01*
X152025955Y-88835300D01*
X152215244Y-88835300D01*
X152215246Y-88835300D01*
X152400403Y-88795944D01*
X152573330Y-88718951D01*
X152726471Y-88607688D01*
X152853133Y-88467016D01*
X152947779Y-88303084D01*
X153006274Y-88123056D01*
X153026060Y-87934800D01*
X153006274Y-87746544D01*
X152947779Y-87566516D01*
X152853133Y-87402584D01*
X152726471Y-87261912D01*
X152696733Y-87240306D01*
X152573334Y-87150651D01*
X152573329Y-87150648D01*
X152400407Y-87073657D01*
X152400402Y-87073655D01*
X152254601Y-87042665D01*
X152215246Y-87034300D01*
X152025954Y-87034300D01*
X151993497Y-87041198D01*
X151840797Y-87073655D01*
X151840792Y-87073657D01*
X151667870Y-87150648D01*
X151667865Y-87150651D01*
X151514729Y-87261911D01*
X151388066Y-87402585D01*
X151293421Y-87566515D01*
X151293418Y-87566522D01*
X151234927Y-87746540D01*
X151234926Y-87746544D01*
X151215140Y-87934800D01*
X129337136Y-87934800D01*
X129336690Y-86995000D01*
X133968540Y-86995000D01*
X133988326Y-87183256D01*
X133988327Y-87183259D01*
X134046818Y-87363277D01*
X134046821Y-87363284D01*
X134141467Y-87527216D01*
X134230794Y-87626423D01*
X134268129Y-87667888D01*
X134421265Y-87779148D01*
X134421270Y-87779151D01*
X134594192Y-87856142D01*
X134594197Y-87856144D01*
X134779354Y-87895500D01*
X134779355Y-87895500D01*
X134968644Y-87895500D01*
X134968646Y-87895500D01*
X135153803Y-87856144D01*
X135326730Y-87779151D01*
X135479871Y-87667888D01*
X135606533Y-87527216D01*
X135701179Y-87363284D01*
X135759674Y-87183256D01*
X135779460Y-86995000D01*
X135759674Y-86806744D01*
X135701179Y-86626716D01*
X135606533Y-86462784D01*
X135479871Y-86322112D01*
X135479870Y-86322111D01*
X135326734Y-86210851D01*
X135326729Y-86210848D01*
X135153807Y-86133857D01*
X135153802Y-86133855D01*
X135008001Y-86102865D01*
X134968646Y-86094500D01*
X134779354Y-86094500D01*
X134746897Y-86101398D01*
X134594197Y-86133855D01*
X134594192Y-86133857D01*
X134421270Y-86210848D01*
X134421265Y-86210851D01*
X134268129Y-86322111D01*
X134141466Y-86462785D01*
X134046821Y-86626715D01*
X134046818Y-86626722D01*
X133988327Y-86806740D01*
X133988326Y-86806744D01*
X133968540Y-86995000D01*
X129336690Y-86995000D01*
X129336027Y-85598000D01*
X160562340Y-85598000D01*
X160582126Y-85786256D01*
X160582127Y-85786259D01*
X160640618Y-85966277D01*
X160640621Y-85966284D01*
X160735267Y-86130216D01*
X160861929Y-86270888D01*
X161015065Y-86382148D01*
X161015070Y-86382151D01*
X161187992Y-86459142D01*
X161187997Y-86459144D01*
X161373154Y-86498500D01*
X161373155Y-86498500D01*
X161562444Y-86498500D01*
X161562446Y-86498500D01*
X161747603Y-86459144D01*
X161920530Y-86382151D01*
X162073671Y-86270888D01*
X162200333Y-86130216D01*
X162294979Y-85966284D01*
X162353474Y-85786256D01*
X162373260Y-85598000D01*
X162353474Y-85409744D01*
X162331350Y-85341653D01*
X162329355Y-85271812D01*
X162365435Y-85211979D01*
X162423496Y-85182046D01*
X162509603Y-85163744D01*
X162509607Y-85163742D01*
X162509608Y-85163742D01*
X162567858Y-85137806D01*
X162682530Y-85086751D01*
X162835671Y-84975488D01*
X162962333Y-84834816D01*
X163056979Y-84670884D01*
X163115474Y-84490856D01*
X163135260Y-84302600D01*
X163115474Y-84114344D01*
X163089871Y-84035547D01*
X169998793Y-84035547D01*
X170018579Y-84223803D01*
X170018580Y-84223806D01*
X170077071Y-84403824D01*
X170077074Y-84403831D01*
X170171720Y-84567763D01*
X170264565Y-84670877D01*
X170298382Y-84708435D01*
X170451518Y-84819695D01*
X170451523Y-84819698D01*
X170624445Y-84896689D01*
X170624450Y-84896691D01*
X170809607Y-84936047D01*
X170809608Y-84936047D01*
X170998897Y-84936047D01*
X170998899Y-84936047D01*
X171184056Y-84896691D01*
X171356983Y-84819698D01*
X171510124Y-84708435D01*
X171636786Y-84567763D01*
X171731432Y-84403831D01*
X171789927Y-84223803D01*
X171809713Y-84035547D01*
X171789927Y-83847291D01*
X171755043Y-83739932D01*
X171753049Y-83670092D01*
X171789129Y-83610259D01*
X171851830Y-83579431D01*
X171921244Y-83587396D01*
X171923866Y-83588539D01*
X172040950Y-83641234D01*
X172040961Y-83641238D01*
X172352784Y-83738406D01*
X172674087Y-83797287D01*
X173000126Y-83817008D01*
X173326164Y-83797287D01*
X173647467Y-83738406D01*
X173959290Y-83641238D01*
X173959301Y-83641234D01*
X174257167Y-83507176D01*
X174257169Y-83507175D01*
X174536702Y-83338192D01*
X174536710Y-83338186D01*
X174725094Y-83190596D01*
X174725094Y-83190595D01*
X173583432Y-82048933D01*
X173597536Y-82041663D01*
X173762666Y-81911803D01*
X173900236Y-81753039D01*
X173934791Y-81693186D01*
X175078647Y-82837042D01*
X175078648Y-82837042D01*
X175226238Y-82648658D01*
X175226244Y-82648650D01*
X175395227Y-82369117D01*
X175395228Y-82369115D01*
X175529286Y-82071249D01*
X175529290Y-82071238D01*
X175626458Y-81759415D01*
X175685339Y-81438112D01*
X175705060Y-81112074D01*
X175685339Y-80786035D01*
X175626458Y-80464732D01*
X175529290Y-80152909D01*
X175529286Y-80152898D01*
X175395228Y-79855032D01*
X175395227Y-79855030D01*
X175226244Y-79575497D01*
X175226238Y-79575488D01*
X175078647Y-79387104D01*
X173935914Y-80529837D01*
X173835232Y-80388450D01*
X173683194Y-80243482D01*
X173580903Y-80177743D01*
X174725094Y-79033551D01*
X174725094Y-79033550D01*
X174536712Y-78885961D01*
X174257169Y-78716972D01*
X174257167Y-78716971D01*
X173959301Y-78582913D01*
X173959290Y-78582909D01*
X173647467Y-78485741D01*
X173326164Y-78426860D01*
X173000126Y-78407139D01*
X172674087Y-78426860D01*
X172352784Y-78485741D01*
X172040961Y-78582909D01*
X172040950Y-78582913D01*
X171743084Y-78716971D01*
X171743082Y-78716972D01*
X171463549Y-78885955D01*
X171275156Y-79033550D01*
X171275156Y-79033551D01*
X172416819Y-80175214D01*
X172402716Y-80182485D01*
X172237586Y-80312345D01*
X172100016Y-80471109D01*
X172065460Y-80530961D01*
X170921603Y-79387104D01*
X170921602Y-79387104D01*
X170774007Y-79575497D01*
X170605024Y-79855030D01*
X170605023Y-79855032D01*
X170470965Y-80152898D01*
X170470961Y-80152909D01*
X170373793Y-80464732D01*
X170314912Y-80786035D01*
X170295191Y-81112074D01*
X170314912Y-81438112D01*
X170373793Y-81759415D01*
X170470961Y-82071238D01*
X170470965Y-82071249D01*
X170605023Y-82369115D01*
X170605024Y-82369117D01*
X170774013Y-82648660D01*
X170975455Y-82905781D01*
X170993040Y-82923366D01*
X171026525Y-82984689D01*
X171021541Y-83054381D01*
X170979669Y-83110314D01*
X170914205Y-83134731D01*
X170905359Y-83135047D01*
X170809607Y-83135047D01*
X170777150Y-83141945D01*
X170624450Y-83174402D01*
X170624445Y-83174404D01*
X170451523Y-83251395D01*
X170451518Y-83251398D01*
X170298382Y-83362658D01*
X170171719Y-83503332D01*
X170077074Y-83667262D01*
X170077071Y-83667269D01*
X170018580Y-83847287D01*
X170018579Y-83847291D01*
X169998793Y-84035547D01*
X163089871Y-84035547D01*
X163056979Y-83934316D01*
X162962333Y-83770384D01*
X162835671Y-83629712D01*
X162835670Y-83629711D01*
X162682534Y-83518451D01*
X162682529Y-83518448D01*
X162509607Y-83441457D01*
X162509602Y-83441455D01*
X162363801Y-83410465D01*
X162324446Y-83402100D01*
X162135154Y-83402100D01*
X162102697Y-83408998D01*
X161949997Y-83441455D01*
X161949992Y-83441457D01*
X161777070Y-83518448D01*
X161777065Y-83518451D01*
X161623929Y-83629711D01*
X161497266Y-83770385D01*
X161402621Y-83934315D01*
X161402618Y-83934322D01*
X161344127Y-84114340D01*
X161344126Y-84114344D01*
X161324340Y-84302600D01*
X161341397Y-84464894D01*
X161344127Y-84490861D01*
X161366249Y-84558947D01*
X161368244Y-84628788D01*
X161332163Y-84688621D01*
X161274099Y-84718554D01*
X161187997Y-84736855D01*
X161187992Y-84736857D01*
X161015070Y-84813848D01*
X161015065Y-84813851D01*
X160861929Y-84925111D01*
X160735266Y-85065785D01*
X160640621Y-85229715D01*
X160640618Y-85229722D01*
X160625860Y-85275144D01*
X160582126Y-85409744D01*
X160562340Y-85598000D01*
X129336027Y-85598000D01*
X129333900Y-81120312D01*
X129333975Y-81117270D01*
X129334391Y-81108800D01*
X130178465Y-81108800D01*
X130198186Y-81434838D01*
X130257067Y-81756141D01*
X130354235Y-82067964D01*
X130354239Y-82067975D01*
X130488297Y-82365841D01*
X130488298Y-82365843D01*
X130657287Y-82645386D01*
X130804877Y-82833768D01*
X131947611Y-81691035D01*
X132048294Y-81832424D01*
X132200332Y-81977392D01*
X132302622Y-82043130D01*
X131158430Y-83187321D01*
X131158430Y-83187322D01*
X131346814Y-83334912D01*
X131346823Y-83334918D01*
X131626356Y-83503901D01*
X131626358Y-83503902D01*
X131924224Y-83637960D01*
X131924235Y-83637964D01*
X132236058Y-83735132D01*
X132557361Y-83794013D01*
X132883400Y-83813734D01*
X133209438Y-83794013D01*
X133530741Y-83735132D01*
X133842564Y-83637964D01*
X133842575Y-83637960D01*
X134140441Y-83503902D01*
X134140443Y-83503901D01*
X134419976Y-83334918D01*
X134419984Y-83334912D01*
X134608368Y-83187322D01*
X134608368Y-83187321D01*
X133466706Y-82045659D01*
X133480810Y-82038389D01*
X133645940Y-81908529D01*
X133783510Y-81749765D01*
X133818065Y-81689912D01*
X134961921Y-82833768D01*
X134961922Y-82833768D01*
X135109512Y-82645384D01*
X135109518Y-82645376D01*
X135278501Y-82365843D01*
X135278502Y-82365841D01*
X135309935Y-82296000D01*
X137295940Y-82296000D01*
X137315726Y-82484256D01*
X137315727Y-82484259D01*
X137374218Y-82664277D01*
X137374221Y-82664284D01*
X137468867Y-82828216D01*
X137538707Y-82905781D01*
X137595529Y-82968888D01*
X137748665Y-83080148D01*
X137748670Y-83080151D01*
X137921592Y-83157142D01*
X137921597Y-83157144D01*
X138106754Y-83196500D01*
X138106755Y-83196500D01*
X138296044Y-83196500D01*
X138296046Y-83196500D01*
X138481203Y-83157144D01*
X138654130Y-83080151D01*
X138807271Y-82968888D01*
X138933933Y-82828216D01*
X139028579Y-82664284D01*
X139087074Y-82484256D01*
X139106860Y-82296000D01*
X139087074Y-82107744D01*
X139041148Y-81966400D01*
X153797740Y-81966400D01*
X153817526Y-82154656D01*
X153817527Y-82154659D01*
X153876018Y-82334677D01*
X153876021Y-82334684D01*
X153970667Y-82498616D01*
X154097329Y-82639288D01*
X154250465Y-82750548D01*
X154250470Y-82750551D01*
X154423392Y-82827542D01*
X154423397Y-82827544D01*
X154608554Y-82866900D01*
X154608555Y-82866900D01*
X154797844Y-82866900D01*
X154797846Y-82866900D01*
X154983003Y-82827544D01*
X155155930Y-82750551D01*
X155309071Y-82639288D01*
X155435733Y-82498616D01*
X155530379Y-82334684D01*
X155588874Y-82154656D01*
X155608660Y-81966400D01*
X155588874Y-81778144D01*
X155534312Y-81610223D01*
X155530381Y-81598122D01*
X155530380Y-81598121D01*
X155530379Y-81598116D01*
X155435733Y-81434184D01*
X155309071Y-81293512D01*
X155309070Y-81293511D01*
X155155934Y-81182251D01*
X155155929Y-81182248D01*
X154983007Y-81105257D01*
X154983002Y-81105255D01*
X154837201Y-81074265D01*
X154797846Y-81065900D01*
X154608554Y-81065900D01*
X154576097Y-81072798D01*
X154423397Y-81105255D01*
X154423392Y-81105257D01*
X154250470Y-81182248D01*
X154250465Y-81182251D01*
X154097329Y-81293511D01*
X153970666Y-81434185D01*
X153876021Y-81598115D01*
X153876018Y-81598122D01*
X153817527Y-81778140D01*
X153817526Y-81778144D01*
X153797740Y-81966400D01*
X139041148Y-81966400D01*
X139028579Y-81927716D01*
X138933933Y-81763784D01*
X138807271Y-81623112D01*
X138787022Y-81608400D01*
X138654134Y-81511851D01*
X138654129Y-81511848D01*
X138481207Y-81434857D01*
X138481202Y-81434855D01*
X138335401Y-81403865D01*
X138296046Y-81395500D01*
X138106754Y-81395500D01*
X138074297Y-81402398D01*
X137921597Y-81434855D01*
X137921592Y-81434857D01*
X137748670Y-81511848D01*
X137748665Y-81511851D01*
X137595529Y-81623111D01*
X137468866Y-81763785D01*
X137374221Y-81927715D01*
X137374218Y-81927722D01*
X137327584Y-82071249D01*
X137315726Y-82107744D01*
X137295940Y-82296000D01*
X135309935Y-82296000D01*
X135412560Y-82067975D01*
X135412564Y-82067964D01*
X135509732Y-81756141D01*
X135568613Y-81434838D01*
X135588334Y-81108800D01*
X135568613Y-80782761D01*
X135509732Y-80461458D01*
X135412564Y-80149635D01*
X135412560Y-80149624D01*
X135278502Y-79851758D01*
X135278501Y-79851756D01*
X135109518Y-79572223D01*
X135109512Y-79572214D01*
X134961921Y-79383830D01*
X133819188Y-80526563D01*
X133718506Y-80385176D01*
X133566468Y-80240208D01*
X133464177Y-80174469D01*
X134608368Y-79030277D01*
X134608368Y-79030276D01*
X134419986Y-78882687D01*
X134140443Y-78713698D01*
X134140441Y-78713697D01*
X133842575Y-78579639D01*
X133842564Y-78579635D01*
X133530741Y-78482467D01*
X133209438Y-78423586D01*
X132883400Y-78403865D01*
X132557361Y-78423586D01*
X132236058Y-78482467D01*
X131924235Y-78579635D01*
X131924224Y-78579639D01*
X131626358Y-78713697D01*
X131626356Y-78713698D01*
X131346823Y-78882681D01*
X131158430Y-79030276D01*
X131158430Y-79030277D01*
X132300093Y-80171940D01*
X132285990Y-80179211D01*
X132120860Y-80309071D01*
X131983290Y-80467835D01*
X131948734Y-80527687D01*
X130804877Y-79383830D01*
X130804876Y-79383830D01*
X130657281Y-79572223D01*
X130488298Y-79851756D01*
X130488297Y-79851758D01*
X130354239Y-80149624D01*
X130354235Y-80149635D01*
X130257067Y-80461458D01*
X130198186Y-80782761D01*
X130178465Y-81108800D01*
X129334391Y-81108800D01*
X129350795Y-80774909D01*
X129351389Y-80768863D01*
X129401464Y-80431285D01*
X129402646Y-80425341D01*
X129485571Y-80094286D01*
X129487335Y-80088471D01*
X129487972Y-80086693D01*
X129602304Y-79767152D01*
X129604631Y-79761536D01*
X129611236Y-79747571D01*
X129750546Y-79453026D01*
X129753397Y-79447692D01*
X129928851Y-79154964D01*
X129932219Y-79149923D01*
X130135519Y-78875806D01*
X130139369Y-78871114D01*
X130368573Y-78618227D01*
X130372827Y-78613973D01*
X130625714Y-78384769D01*
X130630408Y-78380918D01*
X130693431Y-78334177D01*
X130904523Y-78177619D01*
X130909564Y-78174251D01*
X131202292Y-77998797D01*
X131207626Y-77995946D01*
X131516144Y-77850027D01*
X131521752Y-77847704D01*
X131843079Y-77732732D01*
X131848886Y-77730971D01*
X132179941Y-77648046D01*
X132185885Y-77646864D01*
X132523461Y-77596789D01*
X132529509Y-77596195D01*
X132871888Y-77579375D01*
X132874930Y-77579300D01*
X132939927Y-77579300D01*
X132940312Y-77579271D01*
X144112836Y-77574613D01*
X144179884Y-77594270D01*
X144225661Y-77647055D01*
X144235633Y-77716209D01*
X144206635Y-77779777D01*
X144165294Y-77810995D01*
X144144768Y-77820566D01*
X143951197Y-77956105D01*
X143784105Y-78123197D01*
X143648565Y-78316769D01*
X143648564Y-78316771D01*
X143548698Y-78530935D01*
X143548694Y-78530944D01*
X143487538Y-78759186D01*
X143487536Y-78759196D01*
X143466941Y-78994599D01*
X143466941Y-78994600D01*
X143487536Y-79230003D01*
X143487538Y-79230013D01*
X143548694Y-79458255D01*
X143548696Y-79458259D01*
X143548697Y-79458263D01*
X143620114Y-79611417D01*
X143648565Y-79672430D01*
X143648567Y-79672434D01*
X143714896Y-79767161D01*
X143784105Y-79866001D01*
X143951199Y-80033095D01*
X144047984Y-80100865D01*
X144144765Y-80168632D01*
X144144767Y-80168633D01*
X144144770Y-80168635D01*
X144358937Y-80268503D01*
X144587192Y-80329663D01*
X144757919Y-80344600D01*
X144822599Y-80350259D01*
X144822600Y-80350259D01*
X144822601Y-80350259D01*
X144887281Y-80344600D01*
X145058008Y-80329663D01*
X145286263Y-80268503D01*
X145500430Y-80168635D01*
X145694001Y-80033095D01*
X145861095Y-79866001D01*
X145991025Y-79680442D01*
X146045602Y-79636817D01*
X146115100Y-79629623D01*
X146177455Y-79661146D01*
X146194175Y-79680442D01*
X146324100Y-79865995D01*
X146324105Y-79866001D01*
X146491199Y-80033095D01*
X146587984Y-80100865D01*
X146684765Y-80168632D01*
X146684767Y-80168633D01*
X146684770Y-80168635D01*
X146898937Y-80268503D01*
X147127192Y-80329663D01*
X147297919Y-80344600D01*
X147362599Y-80350259D01*
X147362600Y-80350259D01*
X147362601Y-80350259D01*
X147427281Y-80344600D01*
X147598008Y-80329663D01*
X147826263Y-80268503D01*
X148040430Y-80168635D01*
X148234001Y-80033095D01*
X148401095Y-79866001D01*
X148531025Y-79680442D01*
X148585602Y-79636817D01*
X148655100Y-79629623D01*
X148717455Y-79661146D01*
X148734175Y-79680442D01*
X148864100Y-79865995D01*
X148864105Y-79866001D01*
X149031199Y-80033095D01*
X149127984Y-80100865D01*
X149224765Y-80168632D01*
X149224767Y-80168633D01*
X149224770Y-80168635D01*
X149438937Y-80268503D01*
X149667192Y-80329663D01*
X149837919Y-80344600D01*
X149902599Y-80350259D01*
X149902600Y-80350259D01*
X149902601Y-80350259D01*
X149967281Y-80344600D01*
X150138008Y-80329663D01*
X150366263Y-80268503D01*
X150580430Y-80168635D01*
X150774001Y-80033095D01*
X150896317Y-79910778D01*
X150957636Y-79877296D01*
X151027328Y-79882280D01*
X151083262Y-79924151D01*
X151100177Y-79955128D01*
X151149246Y-80086688D01*
X151149249Y-80086693D01*
X151235409Y-80201787D01*
X151235412Y-80201790D01*
X151350506Y-80287950D01*
X151350513Y-80287954D01*
X151485220Y-80338196D01*
X151485227Y-80338198D01*
X151544755Y-80344599D01*
X151544772Y-80344600D01*
X152192600Y-80344600D01*
X152192600Y-79430101D01*
X152300285Y-79479280D01*
X152406837Y-79494600D01*
X152478363Y-79494600D01*
X152584915Y-79479280D01*
X152692600Y-79430101D01*
X152692600Y-80344600D01*
X153340428Y-80344600D01*
X153340444Y-80344599D01*
X153399972Y-80338198D01*
X153399979Y-80338196D01*
X153534686Y-80287954D01*
X153534693Y-80287950D01*
X153649787Y-80201790D01*
X153649790Y-80201787D01*
X153735950Y-80086693D01*
X153735954Y-80086686D01*
X153786196Y-79951979D01*
X153786198Y-79951972D01*
X153792599Y-79892444D01*
X153792600Y-79892427D01*
X153792600Y-79244600D01*
X152876286Y-79244600D01*
X152902093Y-79204444D01*
X152942600Y-79066489D01*
X152942600Y-78922711D01*
X152902093Y-78784756D01*
X152876286Y-78744600D01*
X153792600Y-78744600D01*
X153792600Y-78096772D01*
X153792599Y-78096755D01*
X153786198Y-78037227D01*
X153786196Y-78037220D01*
X153735954Y-77902513D01*
X153735950Y-77902506D01*
X153649790Y-77787412D01*
X153644661Y-77782283D01*
X153611176Y-77720960D01*
X153616160Y-77651268D01*
X153658032Y-77595335D01*
X153723496Y-77570918D01*
X153732268Y-77570602D01*
X158904939Y-77568446D01*
X158971987Y-77588103D01*
X159017764Y-77640888D01*
X159027736Y-77710042D01*
X159004258Y-77766757D01*
X158921647Y-77877111D01*
X158921645Y-77877113D01*
X158871403Y-78011820D01*
X158871401Y-78011827D01*
X158865000Y-78071355D01*
X158865000Y-78719200D01*
X159781314Y-78719200D01*
X159755507Y-78759356D01*
X159715000Y-78897311D01*
X159715000Y-79041089D01*
X159755507Y-79179044D01*
X159781314Y-79219200D01*
X158865000Y-79219200D01*
X158865000Y-79867044D01*
X158871401Y-79926572D01*
X158871403Y-79926579D01*
X158921645Y-80061286D01*
X158921649Y-80061293D01*
X159007809Y-80176387D01*
X159007812Y-80176390D01*
X159122906Y-80262550D01*
X159122913Y-80262554D01*
X159257620Y-80312796D01*
X159257627Y-80312798D01*
X159317155Y-80319199D01*
X159317172Y-80319200D01*
X159965000Y-80319200D01*
X159965000Y-79404701D01*
X160072685Y-79453880D01*
X160179237Y-79469200D01*
X160250763Y-79469200D01*
X160357315Y-79453880D01*
X160465000Y-79404701D01*
X160465000Y-80319200D01*
X161112828Y-80319200D01*
X161112844Y-80319199D01*
X161172372Y-80312798D01*
X161172379Y-80312796D01*
X161307086Y-80262554D01*
X161307093Y-80262550D01*
X161422187Y-80176390D01*
X161422190Y-80176387D01*
X161508350Y-80061293D01*
X161508354Y-80061286D01*
X161557422Y-79929729D01*
X161599293Y-79873795D01*
X161664757Y-79849378D01*
X161733030Y-79864230D01*
X161761285Y-79885381D01*
X161883599Y-80007695D01*
X161960135Y-80061286D01*
X162077165Y-80143232D01*
X162077167Y-80143233D01*
X162077170Y-80143235D01*
X162291337Y-80243103D01*
X162519592Y-80304263D01*
X162690319Y-80319200D01*
X162754999Y-80324859D01*
X162755000Y-80324859D01*
X162755001Y-80324859D01*
X162819681Y-80319200D01*
X162990408Y-80304263D01*
X163218663Y-80243103D01*
X163432830Y-80143235D01*
X163626401Y-80007695D01*
X163793495Y-79840601D01*
X163923425Y-79655042D01*
X163978002Y-79611417D01*
X164047500Y-79604223D01*
X164109855Y-79635746D01*
X164126575Y-79655042D01*
X164254187Y-79837292D01*
X164276514Y-79903498D01*
X164259504Y-79971265D01*
X164225499Y-80008732D01*
X164189328Y-80035012D01*
X164062666Y-80175685D01*
X163968021Y-80339615D01*
X163968018Y-80339622D01*
X163925296Y-80471109D01*
X163909526Y-80519644D01*
X163889740Y-80707900D01*
X163909526Y-80896156D01*
X163909527Y-80896159D01*
X163968018Y-81076177D01*
X163968021Y-81076184D01*
X164062667Y-81240116D01*
X164178999Y-81369315D01*
X164189329Y-81380788D01*
X164342465Y-81492048D01*
X164342470Y-81492051D01*
X164515392Y-81569042D01*
X164515397Y-81569044D01*
X164700554Y-81608400D01*
X164700555Y-81608400D01*
X164889844Y-81608400D01*
X164889846Y-81608400D01*
X165075003Y-81569044D01*
X165247930Y-81492051D01*
X165401071Y-81380788D01*
X165527733Y-81240116D01*
X165622379Y-81076184D01*
X165680874Y-80896156D01*
X165700660Y-80707900D01*
X165680874Y-80519644D01*
X165644824Y-80408697D01*
X165642830Y-80338857D01*
X165678910Y-80279024D01*
X165730665Y-80250605D01*
X165758656Y-80243105D01*
X165758657Y-80243104D01*
X165758663Y-80243103D01*
X165972830Y-80143235D01*
X166166401Y-80007695D01*
X166333495Y-79840601D01*
X166463425Y-79655042D01*
X166518002Y-79611417D01*
X166587500Y-79604223D01*
X166649855Y-79635746D01*
X166666575Y-79655042D01*
X166796500Y-79840595D01*
X166796505Y-79840601D01*
X166963599Y-80007695D01*
X167040135Y-80061286D01*
X167157165Y-80143232D01*
X167157167Y-80143233D01*
X167157170Y-80143235D01*
X167371337Y-80243103D01*
X167599592Y-80304263D01*
X167770319Y-80319200D01*
X167834999Y-80324859D01*
X167835000Y-80324859D01*
X167835001Y-80324859D01*
X167899681Y-80319200D01*
X168070408Y-80304263D01*
X168298663Y-80243103D01*
X168512830Y-80143235D01*
X168706401Y-80007695D01*
X168873495Y-79840601D01*
X169009035Y-79647030D01*
X169108903Y-79432863D01*
X169170063Y-79204608D01*
X169190659Y-78969200D01*
X169170063Y-78733792D01*
X169113466Y-78522567D01*
X169108905Y-78505544D01*
X169108904Y-78505543D01*
X169108903Y-78505537D01*
X169009035Y-78291371D01*
X169003425Y-78283358D01*
X168873494Y-78097797D01*
X168706402Y-77930706D01*
X168706395Y-77930701D01*
X168508396Y-77792060D01*
X168509229Y-77790869D01*
X168465716Y-77745233D01*
X168452494Y-77676626D01*
X168478462Y-77611761D01*
X168535377Y-77571234D01*
X168575877Y-77564414D01*
X172988608Y-77562574D01*
X172991652Y-77562649D01*
G37*
%TD.AperFunction*%
%TD*%
D16*
X147726400Y-100584000D03*
X144195800Y-111455200D03*
X156455800Y-97282600D03*
X161747200Y-100914200D03*
X147345400Y-106883200D03*
X146659600Y-87020400D03*
X135991600Y-109474000D03*
X151511000Y-122555000D03*
X158140400Y-79171800D03*
X152425400Y-123164600D03*
X142189200Y-80772000D03*
X132198800Y-107823600D03*
X144475200Y-95427800D03*
X170408600Y-112674400D03*
X152715955Y-100800963D03*
X153568899Y-110820699D03*
X171234697Y-89191503D03*
X174980600Y-115493800D03*
X149758400Y-110744000D03*
X138955200Y-124562200D03*
X171300000Y-85700000D03*
X170561000Y-92456000D03*
X174828200Y-117779800D03*
X141554200Y-117373400D03*
X170230800Y-110667800D03*
X160401000Y-101523800D03*
X160223200Y-111988600D03*
X149377400Y-95986600D03*
X166979600Y-111277400D03*
X141579600Y-108686600D03*
X159199000Y-96800000D03*
X141732000Y-115290600D03*
X143222400Y-125603600D03*
X167894000Y-108356400D03*
X145719800Y-102692200D03*
X131521200Y-118973600D03*
X162636200Y-112979200D03*
X171627800Y-109169200D03*
X150843679Y-119561036D03*
X156083000Y-114198400D03*
X175971200Y-97282000D03*
X131470400Y-85877400D03*
X175641000Y-120142000D03*
X148793200Y-119380000D03*
X146659600Y-95504000D03*
X143078200Y-106705400D03*
X156083000Y-115316000D03*
X132198800Y-106807600D03*
X156159200Y-120929400D03*
X149851800Y-91008800D03*
X159689800Y-114249200D03*
X138320200Y-123825600D03*
X165599800Y-102057800D03*
X155399000Y-123113800D03*
X132334000Y-111455200D03*
X133172200Y-112496600D03*
X150952200Y-96113600D03*
X134874000Y-86995000D03*
X163550600Y-96799400D03*
X170505901Y-91368099D03*
X150029600Y-92837600D03*
X130319200Y-119685400D03*
X173507400Y-109220000D03*
X170904253Y-84035547D03*
X154703200Y-81966400D03*
X130352800Y-103124000D03*
X174828200Y-110643000D03*
X136491400Y-113094600D03*
X139216800Y-106756800D03*
X157310500Y-91076100D03*
X141655800Y-110871000D03*
X141681200Y-111963200D03*
X138835900Y-113080800D03*
X138728979Y-114145181D03*
X164795200Y-80707900D03*
X152120600Y-87934800D03*
X162229800Y-84302600D03*
X135358900Y-102463600D03*
X138201400Y-82296000D03*
X134874000Y-94970600D03*
X149098000Y-94488000D03*
X161467800Y-85598000D03*
X149733000Y-98729800D03*
X163118800Y-90652600D03*
X174701200Y-100203000D03*
X166725600Y-89662000D03*
X174675800Y-105994200D03*
X175153400Y-93358800D03*
X175153400Y-90818800D03*
X175153400Y-88278800D03*
X175153400Y-85738800D03*
X173000126Y-81112074D03*
X173013400Y-123238800D03*
X152442600Y-78994600D03*
X149902600Y-78994600D03*
X147362600Y-78994600D03*
X144822600Y-78994600D03*
X160517400Y-125274600D03*
X162117400Y-123274600D03*
X164617400Y-123274600D03*
X167117400Y-123274600D03*
X160215000Y-78969200D03*
X162755000Y-78969200D03*
X165295000Y-78969200D03*
X167835000Y-78969200D03*
X132883400Y-81108800D03*
X132883400Y-123228800D03*
M02*
