%TF.GenerationSoftware,KiCad,Pcbnew,7.0.9*%
%TF.CreationDate,2024-01-29T23:24:25+02:00*%
%TF.ProjectId,TheftShield_Tracker,54686566-7453-4686-9965-6c645f547261,rev?*%
%TF.SameCoordinates,Original*%
%TF.FileFunction,Copper,L1,Top*%
%TF.FilePolarity,Positive*%
%FSLAX46Y46*%
G04 Gerber Fmt 4.6, Leading zero omitted, Abs format (unit mm)*
G04 Created by KiCad (PCBNEW 7.0.9) date 2024-01-29 23:24:25*
%MOMM*%
%LPD*%
G01*
G04 APERTURE LIST*
G04 Aperture macros list*
%AMRoundRect*
0 Rectangle with rounded corners*
0 $1 Rounding radius*
0 $2 $3 $4 $5 $6 $7 $8 $9 X,Y pos of 4 corners*
0 Add a 4 corners polygon primitive as box body*
4,1,4,$2,$3,$4,$5,$6,$7,$8,$9,$2,$3,0*
0 Add four circle primitives for the rounded corners*
1,1,$1+$1,$2,$3*
1,1,$1+$1,$4,$5*
1,1,$1+$1,$6,$7*
1,1,$1+$1,$8,$9*
0 Add four rect primitives between the rounded corners*
20,1,$1+$1,$2,$3,$4,$5,0*
20,1,$1+$1,$4,$5,$6,$7,0*
20,1,$1+$1,$6,$7,$8,$9,0*
20,1,$1+$1,$8,$9,$2,$3,0*%
%AMFreePoly0*
4,1,12,0.600035,0.600035,0.600050,0.600000,0.600050,-1.800000,0.600036,-1.800036,0.600000,-1.800050,0.599965,-1.800036,-1.800035,0.599965,-1.800050,0.600000,-1.800035,0.600035,-1.800000,0.600050,0.600000,0.600050,0.600035,0.600035,0.600035,0.600035,$1*%
G04 Aperture macros list end*
%TA.AperFunction,SMDPad,CuDef*%
%ADD10RoundRect,0.200000X-0.275000X0.200000X-0.275000X-0.200000X0.275000X-0.200000X0.275000X0.200000X0*%
%TD*%
%TA.AperFunction,SMDPad,CuDef*%
%ADD11RoundRect,0.250000X0.475000X-0.250000X0.475000X0.250000X-0.475000X0.250000X-0.475000X-0.250000X0*%
%TD*%
%TA.AperFunction,SMDPad,CuDef*%
%ADD12FreePoly0,180.000000*%
%TD*%
%TA.AperFunction,SMDPad,CuDef*%
%ADD13R,4.100000X1.700000*%
%TD*%
%TA.AperFunction,SMDPad,CuDef*%
%ADD14RoundRect,0.250000X0.250000X0.475000X-0.250000X0.475000X-0.250000X-0.475000X0.250000X-0.475000X0*%
%TD*%
%TA.AperFunction,SMDPad,CuDef*%
%ADD15R,0.800000X1.800000*%
%TD*%
%TA.AperFunction,ComponentPad*%
%ADD16R,1.700000X1.700000*%
%TD*%
%TA.AperFunction,ComponentPad*%
%ADD17O,1.700000X1.700000*%
%TD*%
%TA.AperFunction,ComponentPad*%
%ADD18C,4.400000*%
%TD*%
%TA.AperFunction,SMDPad,CuDef*%
%ADD19RoundRect,0.250000X-0.425000X0.450000X-0.425000X-0.450000X0.425000X-0.450000X0.425000X0.450000X0*%
%TD*%
%TA.AperFunction,SMDPad,CuDef*%
%ADD20O,0.600000X1.600000*%
%TD*%
%TA.AperFunction,SMDPad,CuDef*%
%ADD21O,1.600000X0.600000*%
%TD*%
%TA.AperFunction,SMDPad,CuDef*%
%ADD22RoundRect,0.250000X-0.475000X0.250000X-0.475000X-0.250000X0.475000X-0.250000X0.475000X0.250000X0*%
%TD*%
%TA.AperFunction,SMDPad,CuDef*%
%ADD23RoundRect,0.200000X0.200000X0.275000X-0.200000X0.275000X-0.200000X-0.275000X0.200000X-0.275000X0*%
%TD*%
%TA.AperFunction,SMDPad,CuDef*%
%ADD24RoundRect,0.200000X0.275000X-0.200000X0.275000X0.200000X-0.275000X0.200000X-0.275000X-0.200000X0*%
%TD*%
%TA.AperFunction,SMDPad,CuDef*%
%ADD25RoundRect,0.200000X-0.200000X-0.275000X0.200000X-0.275000X0.200000X0.275000X-0.200000X0.275000X0*%
%TD*%
%TA.AperFunction,SMDPad,CuDef*%
%ADD26R,1.000000X1.800000*%
%TD*%
%TA.AperFunction,SMDPad,CuDef*%
%ADD27RoundRect,0.218750X-0.381250X0.218750X-0.381250X-0.218750X0.381250X-0.218750X0.381250X0.218750X0*%
%TD*%
%TA.AperFunction,SMDPad,CuDef*%
%ADD28RoundRect,0.243750X0.456250X-0.243750X0.456250X0.243750X-0.456250X0.243750X-0.456250X-0.243750X0*%
%TD*%
%TA.AperFunction,SMDPad,CuDef*%
%ADD29RoundRect,0.250000X-0.250000X-0.475000X0.250000X-0.475000X0.250000X0.475000X-0.250000X0.475000X0*%
%TD*%
%TA.AperFunction,SMDPad,CuDef*%
%ADD30RoundRect,0.150000X0.150000X-0.587500X0.150000X0.587500X-0.150000X0.587500X-0.150000X-0.587500X0*%
%TD*%
%TA.AperFunction,SMDPad,CuDef*%
%ADD31RoundRect,0.225000X0.225000X0.250000X-0.225000X0.250000X-0.225000X-0.250000X0.225000X-0.250000X0*%
%TD*%
%TA.AperFunction,ComponentPad*%
%ADD32RoundRect,0.250000X-0.600000X-0.725000X0.600000X-0.725000X0.600000X0.725000X-0.600000X0.725000X0*%
%TD*%
%TA.AperFunction,ComponentPad*%
%ADD33O,1.700000X1.950000*%
%TD*%
%TA.AperFunction,SMDPad,CuDef*%
%ADD34R,1.400000X1.200000*%
%TD*%
%TA.AperFunction,SMDPad,CuDef*%
%ADD35R,1.000000X1.050000*%
%TD*%
%TA.AperFunction,SMDPad,CuDef*%
%ADD36R,1.050000X2.200000*%
%TD*%
%TA.AperFunction,SMDPad,CuDef*%
%ADD37RoundRect,0.225000X0.250000X-0.225000X0.250000X0.225000X-0.250000X0.225000X-0.250000X-0.225000X0*%
%TD*%
%TA.AperFunction,SMDPad,CuDef*%
%ADD38RoundRect,0.250000X0.925000X-0.412500X0.925000X0.412500X-0.925000X0.412500X-0.925000X-0.412500X0*%
%TD*%
%TA.AperFunction,SMDPad,CuDef*%
%ADD39RoundRect,0.112500X-0.112500X0.187500X-0.112500X-0.187500X0.112500X-0.187500X0.112500X0.187500X0*%
%TD*%
%TA.AperFunction,SMDPad,CuDef*%
%ADD40RoundRect,0.150000X0.587500X0.150000X-0.587500X0.150000X-0.587500X-0.150000X0.587500X-0.150000X0*%
%TD*%
%TA.AperFunction,SMDPad,CuDef*%
%ADD41RoundRect,0.075000X0.075000X-0.700000X0.075000X0.700000X-0.075000X0.700000X-0.075000X-0.700000X0*%
%TD*%
%TA.AperFunction,SMDPad,CuDef*%
%ADD42RoundRect,0.075000X0.700000X-0.075000X0.700000X0.075000X-0.700000X0.075000X-0.700000X-0.075000X0*%
%TD*%
%TA.AperFunction,SMDPad,CuDef*%
%ADD43RoundRect,0.250000X-0.300000X-0.300000X0.300000X-0.300000X0.300000X0.300000X-0.300000X0.300000X0*%
%TD*%
%TA.AperFunction,SMDPad,CuDef*%
%ADD44RoundRect,0.243750X0.243750X0.456250X-0.243750X0.456250X-0.243750X-0.456250X0.243750X-0.456250X0*%
%TD*%
%TA.AperFunction,ViaPad*%
%ADD45C,0.800000*%
%TD*%
%TA.AperFunction,Conductor*%
%ADD46C,0.400000*%
%TD*%
%TA.AperFunction,Conductor*%
%ADD47C,0.250000*%
%TD*%
%ADD48C,0.350000*%
G04 APERTURE END LIST*
D10*
%TO.P,R5,1*%
%TO.N,/STM32F401RCT6/PA2*%
X170832200Y-99150000D03*
%TO.P,R5,2*%
%TO.N,/SIM800C/UART1_RXD*%
X170832200Y-100800000D03*
%TD*%
D11*
%TO.P,C20,1*%
%TO.N,+MAIN_VCC*%
X164583800Y-115707800D03*
%TO.P,C20,2*%
%TO.N,GND*%
X164583800Y-113807800D03*
%TD*%
D12*
%TO.P,BT1,1,+*%
%TO.N,+BCKUP_BATT*%
X131112400Y-113301800D03*
D13*
%TO.P,BT1,2,-*%
%TO.N,GND*%
X132562400Y-109351800D03*
%TD*%
D10*
%TO.P,R18,1*%
%TO.N,+3.3V*%
X137761400Y-113094600D03*
%TO.P,R18,2*%
%TO.N,Net-(D3-A)*%
X137761400Y-114744600D03*
%TD*%
D14*
%TO.P,C13,1*%
%TO.N,+3.3V*%
X162206400Y-96774600D03*
%TO.P,C13,2*%
%TO.N,GND*%
X160306400Y-96774600D03*
%TD*%
D15*
%TO.P,U4,1*%
%TO.N,N/C*%
X132674600Y-97236800D03*
%TO.P,U4,2,SS_N*%
%TO.N,unconnected-(U4-SS_N-Pad2)*%
X133774600Y-97236800D03*
%TO.P,U4,3,TIMEPULSE*%
%TO.N,Net-(U4-TIMEPULSE)*%
X134874600Y-97236800D03*
%TO.P,U4,4,EXTINT0*%
%TO.N,unconnected-(U4-EXTINT0-Pad4)*%
X135974600Y-97236800D03*
%TO.P,U4,5,USB_DM*%
%TO.N,unconnected-(U4-USB_DM-Pad5)*%
X137074600Y-97236800D03*
%TO.P,U4,6,USB_DP*%
%TO.N,unconnected-(U4-USB_DP-Pad6)*%
X138174600Y-97236800D03*
%TO.P,U4,7,VDDUSB*%
%TO.N,unconnected-(U4-VDDUSB-Pad7)*%
X139274600Y-97236800D03*
%TO.P,U4,8,RSVD_8*%
%TO.N,/NEO-6M/VCC_RF*%
X142274600Y-97236800D03*
%TO.P,U4,9,VCC_RF*%
X143374600Y-97236800D03*
%TO.P,U4,10,GND*%
%TO.N,GND*%
X144474600Y-97236800D03*
%TO.P,U4,11,RF_IN*%
%TO.N,/NEO-6M/RF_IN*%
X145574600Y-97236800D03*
%TO.P,U4,12,GND*%
%TO.N,GND*%
X146674600Y-97236800D03*
%TO.P,U4,13,GND*%
X146674600Y-85236800D03*
%TO.P,U4,14,MOSI/CFG_COM0*%
%TO.N,unconnected-(U4-MOSI{slash}CFG_COM0-Pad14)*%
X145574600Y-85236800D03*
%TO.P,U4,15,MISO/CFG_COM1*%
%TO.N,unconnected-(U4-MISO{slash}CFG_COM1-Pad15)*%
X144474600Y-85236800D03*
%TO.P,U4,16,CFG_GPS0/SCK*%
%TO.N,unconnected-(U4-CFG_GPS0{slash}SCK-Pad16)*%
X143374600Y-85236800D03*
%TO.P,U4,17,RSVD_17*%
%TO.N,unconnected-(U4-RSVD_17-Pad17)*%
X142274600Y-85236800D03*
%TO.P,U4,18,SDA2*%
%TO.N,unconnected-(U4-SDA2-Pad18)*%
X139274600Y-85236800D03*
%TO.P,U4,19,SCL2*%
%TO.N,unconnected-(U4-SCL2-Pad19)*%
X138174600Y-85236800D03*
%TO.P,U4,20,TXD1*%
%TO.N,/NEO-6M/UART_TXD1*%
X137074600Y-85236800D03*
%TO.P,U4,21,RXD1*%
%TO.N,/NEO-6M/UART_RXD1*%
X135974600Y-85236800D03*
%TO.P,U4,22,V_BCKP*%
%TO.N,+BCKUP_BATT*%
X134874600Y-85236800D03*
%TO.P,U4,23,VCC*%
%TO.N,+3V3_NEO*%
X133774600Y-85236800D03*
%TO.P,U4,24,GND*%
%TO.N,GND*%
X132674600Y-85236800D03*
%TD*%
D14*
%TO.P,C6,1*%
%TO.N,/STM32F401RCT6/NRST*%
X154002200Y-94793400D03*
%TO.P,C6,2*%
%TO.N,GND*%
X152102200Y-94793400D03*
%TD*%
D16*
%TO.P,J2,1,Pin_1*%
%TO.N,GND*%
X175153400Y-93358800D03*
D17*
%TO.P,J2,2,Pin_2*%
%TO.N,/STM32F401RCT6/USART1_RX*%
X175153400Y-90818800D03*
%TO.P,J2,3,Pin_3*%
%TO.N,/STM32F401RCT6/USART1_TX*%
X175153400Y-88278800D03*
%TO.P,J2,4,Pin_4*%
%TO.N,+3.3V*%
X175153400Y-85738800D03*
%TD*%
D18*
%TO.P,H1,1,1*%
%TO.N,GND*%
X173000126Y-81112074D03*
%TD*%
D19*
%TO.P,C24,1*%
%TO.N,+3.3V*%
X137507400Y-106756800D03*
%TO.P,C24,2*%
%TO.N,GND*%
X137507400Y-109456800D03*
%TD*%
%TO.P,C14,1*%
%TO.N,+3.3V*%
X169740000Y-83588200D03*
%TO.P,C14,2*%
%TO.N,GND*%
X169740000Y-86288200D03*
%TD*%
D18*
%TO.P,H2,1,1*%
%TO.N,GND*%
X173013400Y-123238800D03*
%TD*%
D20*
%TO.P,U3,1,UART1_TXD*%
%TO.N,/SIM800C/UART1_TXD*%
X155024400Y-105233400D03*
%TO.P,U3,2,UART1_RXD*%
%TO.N,/SIM800C/UART1_RXD*%
X153924400Y-105233400D03*
%TO.P,U3,3,UART1_RTS*%
%TO.N,/SIM800C/UART1_RTS*%
X152824400Y-105233400D03*
%TO.P,U3,4,UART1_CTS*%
%TO.N,/SIM800C/UART1_CTS*%
X151724400Y-105233400D03*
%TO.P,U3,5,UART1_DCD*%
%TO.N,/SIM800C/UART1_DCD*%
X150624400Y-105233400D03*
%TO.P,U3,6,UART1_DTR*%
%TO.N,/SIM800C/UART1_DTR*%
X149524400Y-105233400D03*
%TO.P,U3,7,UART1_RI*%
%TO.N,/SIM800C/UART1_RI*%
X148424400Y-105233400D03*
%TO.P,U3,8,GND*%
%TO.N,GND*%
X147324400Y-105233400D03*
%TO.P,U3,9,MICP*%
%TO.N,unconnected-(U3-MICP-Pad9)*%
X146224400Y-105233400D03*
%TO.P,U3,10,MICN*%
%TO.N,unconnected-(U3-MICN-Pad10)*%
X145124400Y-105233400D03*
%TO.P,U3,11,SPKP*%
%TO.N,unconnected-(U3-SPKP-Pad11)*%
X144024400Y-105233400D03*
%TO.P,U3,12,SPKN*%
%TO.N,unconnected-(U3-SPKN-Pad12)*%
X142924400Y-105233400D03*
D21*
%TO.P,U3,13,GND*%
%TO.N,GND*%
X140174400Y-108683400D03*
%TO.P,U3,14,SIM_DET*%
%TO.N,unconnected-(U3-SIM_DET-Pad14)*%
X140174400Y-109783400D03*
%TO.P,U3,15,SIM_DATA*%
%TO.N,/SIM800C/SIM_DATA*%
X140174400Y-110883400D03*
%TO.P,U3,16,SIM_CLK*%
%TO.N,/SIM800C/SIM_CLK*%
X140174400Y-111983400D03*
%TO.P,U3,17,SIM_RST*%
%TO.N,/SIM800C/SIM_RST*%
X140174400Y-113083400D03*
%TO.P,U3,18,SIM_VDD*%
%TO.N,/SIM800C/SIM_VDD*%
X140174400Y-114183400D03*
%TO.P,U3,19,GND*%
%TO.N,GND*%
X140174400Y-115283400D03*
%TO.P,U3,20,BT_ANT*%
%TO.N,unconnected-(U3-BT_ANT-Pad20)*%
X140174400Y-116383400D03*
%TO.P,U3,21,GND*%
%TO.N,GND*%
X140174400Y-117483400D03*
D20*
%TO.P,U3,22,UART2_TXD*%
%TO.N,unconnected-(U3-UART2_TXD-Pad22)*%
X142924400Y-120933400D03*
%TO.P,U3,23,UART2_RXD*%
%TO.N,unconnected-(U3-UART2_RXD-Pad23)*%
X144024400Y-120933400D03*
%TO.P,U3,24,USB_VBUS*%
%TO.N,unconnected-(U3-USB_VBUS-Pad24)*%
X145124400Y-120933400D03*
%TO.P,U3,25,USB_DP*%
%TO.N,unconnected-(U3-USB_DP-Pad25)*%
X146224400Y-120933400D03*
%TO.P,U3,26,USB_DM*%
%TO.N,unconnected-(U3-USB_DM-Pad26)*%
X147324400Y-120933400D03*
%TO.P,U3,27,GND*%
%TO.N,GND*%
X148424400Y-120933400D03*
%TO.P,U3,28,VRTC*%
%TO.N,unconnected-(U3-VRTC-Pad28)*%
X149524400Y-120933400D03*
%TO.P,U3,29,RF_SYNC*%
%TO.N,unconnected-(U3-RF_SYNC-Pad29)*%
X150624400Y-120933400D03*
%TO.P,U3,30,GND*%
%TO.N,GND*%
X151724400Y-120933400D03*
%TO.P,U3,31,GND*%
X152824400Y-120933400D03*
%TO.P,U3,32,GSM_ANT*%
%TO.N,/SIM800C/GSM_ANT*%
X153924400Y-120933400D03*
%TO.P,U3,33,GND*%
%TO.N,GND*%
X155024400Y-120933400D03*
D21*
%TO.P,U3,34,VBAT*%
%TO.N,+MAIN_VCC*%
X157774400Y-117483400D03*
%TO.P,U3,35,VBAT*%
X157774400Y-116383400D03*
%TO.P,U3,36,GND*%
%TO.N,GND*%
X157774400Y-115283400D03*
%TO.P,U3,37,GND*%
X157774400Y-114183400D03*
%TO.P,U3,38,ADC*%
%TO.N,unconnected-(U3-ADC-Pad38)*%
X157774400Y-113083400D03*
%TO.P,U3,39,~{PWRKEY}*%
%TO.N,/SIM800C/PWRKEY*%
X157774400Y-111983400D03*
%TO.P,U3,40,VDD_EXT*%
%TO.N,unconnected-(U3-VDD_EXT-Pad40)*%
X157774400Y-110883400D03*
%TO.P,U3,41,NETLIGHT*%
%TO.N,/SIM800C/NETLIGHT*%
X157774400Y-109783400D03*
%TO.P,U3,42,STATUS*%
%TO.N,unconnected-(U3-STATUS-Pad42)*%
X157774400Y-108683400D03*
%TD*%
D14*
%TO.P,C23,1*%
%TO.N,+3.3V*%
X135282400Y-106858400D03*
%TO.P,C23,2*%
%TO.N,GND*%
X133382400Y-106858400D03*
%TD*%
D10*
%TO.P,R6,1*%
%TO.N,/STM32F401RCT6/PA1*%
X168647800Y-97524400D03*
%TO.P,R6,2*%
%TO.N,/SIM800C/UART1_RTS*%
X168647800Y-99174400D03*
%TD*%
D22*
%TO.P,C11,1*%
%TO.N,+3.3V*%
X167487600Y-83530400D03*
%TO.P,C11,2*%
%TO.N,GND*%
X167487600Y-85430400D03*
%TD*%
D23*
%TO.P,R4,1*%
%TO.N,/STM32F401RCT6/PA3*%
X171619600Y-103683400D03*
%TO.P,R4,2*%
%TO.N,/SIM800C/UART1_TXD*%
X169969600Y-103683400D03*
%TD*%
D24*
%TO.P,R21,1*%
%TO.N,Net-(U4-TIMEPULSE)*%
X136931400Y-82257400D03*
%TO.P,R21,2*%
%TO.N,Net-(D5-A)*%
X136931400Y-80607400D03*
%TD*%
D10*
%TO.P,R7,1*%
%TO.N,/STM32F401RCT6/PA0*%
X166514200Y-97549800D03*
%TO.P,R7,2*%
%TO.N,/SIM800C/UART1_CTS*%
X166514200Y-99199800D03*
%TD*%
D25*
%TO.P,R19,1*%
%TO.N,GND*%
X132491400Y-119964800D03*
%TO.P,R19,2*%
%TO.N,/SIM800C/NETLIGHT*%
X134141400Y-119964800D03*
%TD*%
D23*
%TO.P,R15,1*%
%TO.N,/SIM800C/UART1_RTS*%
X168609200Y-101981600D03*
%TO.P,R15,2*%
%TO.N,GND*%
X166959200Y-101981600D03*
%TD*%
%TO.P,R8,1*%
%TO.N,/STM32F401RCT6/PB10*%
X166128200Y-109524800D03*
%TO.P,R8,2*%
%TO.N,/SIM800C/UART1_DTR*%
X164478200Y-109524800D03*
%TD*%
D16*
%TO.P,J3,1,Pin_1*%
%TO.N,GND*%
X152442600Y-78994600D03*
D17*
%TO.P,J3,2,Pin_2*%
%TO.N,/STM32F401RCT6/NRST*%
X149902600Y-78994600D03*
%TO.P,J3,3,Pin_3*%
%TO.N,/STM32F401RCT6/BOOT0*%
X147362600Y-78994600D03*
%TO.P,J3,4,Pin_4*%
%TO.N,+3.3V*%
X144822600Y-78994600D03*
%TD*%
D26*
%TO.P,Y2,1,1*%
%TO.N,/STM32F401RCT6/LSE_IN*%
X151477400Y-97689000D03*
%TO.P,Y2,2,2*%
%TO.N,/STM32F401RCT6/LSE_OUT*%
X153977400Y-97689000D03*
%TD*%
D23*
%TO.P,R17,1*%
%TO.N,GND*%
X137926000Y-125679800D03*
%TO.P,R17,2*%
%TO.N,/SIM800C/PWR_CNTR*%
X136276000Y-125679800D03*
%TD*%
D24*
%TO.P,R3,1*%
%TO.N,/STM32F401RCT6/PA6*%
X174701200Y-98843600D03*
%TO.P,R3,2*%
%TO.N,GND*%
X174701200Y-97193600D03*
%TD*%
D27*
%TO.P,L1,1,1*%
%TO.N,/NEO-6M/VCC_RF*%
X140004800Y-99369100D03*
%TO.P,L1,2,2*%
%TO.N,Net-(L1-Pad2)*%
X140004800Y-101494100D03*
%TD*%
D28*
%TO.P,D3,1,K*%
%TO.N,Net-(D3-K)*%
X137431200Y-118286100D03*
%TO.P,D3,2,A*%
%TO.N,Net-(D3-A)*%
X137431200Y-116411100D03*
%TD*%
D24*
%TO.P,R22,1*%
%TO.N,/NEO-6M/PWR_CNTR*%
X131665400Y-104762400D03*
%TO.P,R22,2*%
%TO.N,+3.3V*%
X131665400Y-103112400D03*
%TD*%
D29*
%TO.P,C2,1*%
%TO.N,GND*%
X171634800Y-110643000D03*
%TO.P,C2,2*%
%TO.N,+3.3V*%
X173534800Y-110643000D03*
%TD*%
D30*
%TO.P,Q3,1,G*%
%TO.N,/NEO-6M/PWR_CNTR*%
X133509400Y-104570100D03*
%TO.P,Q3,2,S*%
%TO.N,+3.3V*%
X135409400Y-104570100D03*
%TO.P,Q3,3,D*%
%TO.N,+3V3_NEO*%
X134459400Y-102695100D03*
%TD*%
D23*
%TO.P,R9,1*%
%TO.N,/STM32F401RCT6/PC5*%
X163072000Y-107366400D03*
%TO.P,R9,2*%
%TO.N,/SIM800C/UART1_DCD*%
X161422000Y-107366400D03*
%TD*%
D31*
%TO.P,C8,1*%
%TO.N,GND*%
X170311800Y-88087800D03*
%TO.P,C8,2*%
%TO.N,/STM32F401RCT6/VCAP*%
X168761800Y-88087800D03*
%TD*%
D32*
%TO.P,J4,1,Pin_1*%
%TO.N,+MAIN_VCC*%
X162117400Y-123274600D03*
D33*
%TO.P,J4,2,Pin_2*%
%TO.N,GND*%
X164617400Y-123274600D03*
%TO.P,J4,3,Pin_3*%
%TO.N,/ADC1_IN6*%
X167117400Y-123274600D03*
%TD*%
D29*
%TO.P,C10,1*%
%TO.N,+3.3V*%
X155048600Y-80417000D03*
%TO.P,C10,2*%
%TO.N,GND*%
X156948600Y-80417000D03*
%TD*%
D16*
%TO.P,J1,1,Pin_1*%
%TO.N,GND*%
X160215000Y-78969200D03*
D17*
%TO.P,J1,2,Pin_2*%
%TO.N,/STM32F401RCT6/SWCLK*%
X162755000Y-78969200D03*
%TO.P,J1,3,Pin_3*%
%TO.N,/STM32F401RCT6/SWDIO*%
X165295000Y-78969200D03*
%TO.P,J1,4,Pin_4*%
%TO.N,+3.3V*%
X167835000Y-78969200D03*
%TD*%
D34*
%TO.P,Y1,1,1*%
%TO.N,/STM32F401RCT6/HSE_OUT*%
X158640200Y-98679600D03*
%TO.P,Y1,2,2*%
%TO.N,GND*%
X156440200Y-98679600D03*
%TO.P,Y1,3,3*%
%TO.N,/STM32F401RCT6/HSE_IN*%
X156440200Y-100379600D03*
%TO.P,Y1,4,4*%
%TO.N,GND*%
X158640200Y-100379600D03*
%TD*%
D10*
%TO.P,R11,1*%
%TO.N,/SIM800C/UART1_DTR*%
X160401000Y-109436400D03*
%TO.P,R11,2*%
%TO.N,GND*%
X160401000Y-111086400D03*
%TD*%
D35*
%TO.P,J7,1,In*%
%TO.N,/NEO-6M/RF_IN*%
X145440400Y-100572400D03*
D36*
%TO.P,J7,2,Ext*%
%TO.N,GND*%
X146915400Y-102097400D03*
X143965400Y-102097400D03*
%TD*%
D10*
%TO.P,R16,1*%
%TO.N,/SIM800C/UART1_RXD*%
X166463400Y-106389000D03*
%TO.P,R16,2*%
%TO.N,GND*%
X166463400Y-108039000D03*
%TD*%
%TO.P,R1,1*%
%TO.N,+BCKUP_BATT*%
X132706800Y-116599800D03*
%TO.P,R1,2*%
%TO.N,Net-(D1-K)*%
X132706800Y-118249800D03*
%TD*%
D37*
%TO.P,C7,1*%
%TO.N,GND*%
X160537400Y-100330000D03*
%TO.P,C7,2*%
%TO.N,/STM32F401RCT6/HSE_OUT*%
X160537400Y-98780000D03*
%TD*%
D10*
%TO.P,R10,1*%
%TO.N,/STM32F401RCT6/PA4*%
X148886600Y-101003600D03*
%TO.P,R10,2*%
%TO.N,/SIM800C/UART1_RI*%
X148886600Y-102653600D03*
%TD*%
D30*
%TO.P,Q1,1,G*%
%TO.N,/SIM800C/PWR_CNTR*%
X140113400Y-125601300D03*
%TO.P,Q1,2,S*%
%TO.N,GND*%
X142013400Y-125601300D03*
%TO.P,Q1,3,D*%
%TO.N,/SIM800C/PWRKEY*%
X141063400Y-123726300D03*
%TD*%
D18*
%TO.P,H3,1,1*%
%TO.N,GND*%
X132883400Y-81108800D03*
%TD*%
D22*
%TO.P,C12,1*%
%TO.N,+3.3V*%
X169155800Y-90541400D03*
%TO.P,C12,2*%
%TO.N,GND*%
X169155800Y-92441400D03*
%TD*%
D10*
%TO.P,R20,1*%
%TO.N,/NEO-6M/RF_IN*%
X141859000Y-99860600D03*
%TO.P,R20,2*%
%TO.N,Net-(L1-Pad2)*%
X141859000Y-101510600D03*
%TD*%
D38*
%TO.P,C19,1*%
%TO.N,+MAIN_VCC*%
X168148000Y-115583500D03*
%TO.P,C19,2*%
%TO.N,GND*%
X168148000Y-112508500D03*
%TD*%
D37*
%TO.P,C5,1*%
%TO.N,GND*%
X153992000Y-101181800D03*
%TO.P,C5,2*%
%TO.N,/STM32F401RCT6/LSE_OUT*%
X153992000Y-99631800D03*
%TD*%
%TO.P,C21,1*%
%TO.N,+MAIN_VCC*%
X162653400Y-115786800D03*
%TO.P,C21,2*%
%TO.N,GND*%
X162653400Y-114236800D03*
%TD*%
D35*
%TO.P,J6,1,In*%
%TO.N,/SIM800C/GSM_ANT*%
X153924000Y-123407000D03*
D36*
%TO.P,J6,2,Ext*%
%TO.N,GND*%
X155399000Y-124932000D03*
X152449000Y-124932000D03*
%TD*%
D39*
%TO.P,D1,1,K*%
%TO.N,Net-(D1-K)*%
X130344600Y-116679600D03*
%TO.P,D1,2,A*%
%TO.N,+3.3V*%
X130344600Y-118779600D03*
%TD*%
D40*
%TO.P,U1,1,GND*%
%TO.N,GND*%
X173532800Y-115493800D03*
%TO.P,U1,2,VO*%
%TO.N,+3.3V*%
X173532800Y-113593800D03*
%TO.P,U1,3,VI*%
%TO.N,+MAIN_VCC*%
X171657800Y-114543800D03*
%TD*%
D41*
%TO.P,U2,1,VBAT*%
%TO.N,+BCKUP_BATT*%
X155728400Y-94083800D03*
%TO.P,U2,2,PC13*%
%TO.N,unconnected-(U2-PC13-Pad2)*%
X156228400Y-94083800D03*
%TO.P,U2,3,PC14*%
%TO.N,/STM32F401RCT6/LSE_IN*%
X156728400Y-94083800D03*
%TO.P,U2,4,PC15*%
%TO.N,/STM32F401RCT6/LSE_OUT*%
X157228400Y-94083800D03*
%TO.P,U2,5,PH0*%
%TO.N,/STM32F401RCT6/HSE_IN*%
X157728400Y-94083800D03*
%TO.P,U2,6,PH1*%
%TO.N,/STM32F401RCT6/HSE_OUT*%
X158228400Y-94083800D03*
%TO.P,U2,7,NRST*%
%TO.N,/STM32F401RCT6/NRST*%
X158728400Y-94083800D03*
%TO.P,U2,8,PC0*%
%TO.N,unconnected-(U2-PC0-Pad8)*%
X159228400Y-94083800D03*
%TO.P,U2,9,PC1*%
%TO.N,unconnected-(U2-PC1-Pad9)*%
X159728400Y-94083800D03*
%TO.P,U2,10,PC2*%
%TO.N,unconnected-(U2-PC2-Pad10)*%
X160228400Y-94083800D03*
%TO.P,U2,11,PC3*%
%TO.N,unconnected-(U2-PC3-Pad11)*%
X160728400Y-94083800D03*
%TO.P,U2,12,VSSA*%
%TO.N,GND*%
X161228400Y-94083800D03*
%TO.P,U2,13,VREF+*%
%TO.N,+3.3V*%
X161728400Y-94083800D03*
%TO.P,U2,14,PA0*%
%TO.N,/STM32F401RCT6/PA0*%
X162228400Y-94083800D03*
%TO.P,U2,15,PA1*%
%TO.N,/STM32F401RCT6/PA1*%
X162728400Y-94083800D03*
%TO.P,U2,16,PA2*%
%TO.N,/STM32F401RCT6/PA2*%
X163228400Y-94083800D03*
D42*
%TO.P,U2,17,PA3*%
%TO.N,/STM32F401RCT6/PA3*%
X165153400Y-92158800D03*
%TO.P,U2,18,VSS*%
%TO.N,GND*%
X165153400Y-91658800D03*
%TO.P,U2,19,VDD*%
%TO.N,+3.3V*%
X165153400Y-91158800D03*
%TO.P,U2,20,PA4*%
%TO.N,/STM32F401RCT6/PA4*%
X165153400Y-90658800D03*
%TO.P,U2,21,PA5*%
%TO.N,unconnected-(U2-PA5-Pad21)*%
X165153400Y-90158800D03*
%TO.P,U2,22,PA6*%
%TO.N,/STM32F401RCT6/PA6*%
X165153400Y-89658800D03*
%TO.P,U2,23,PA7*%
%TO.N,unconnected-(U2-PA7-Pad23)*%
X165153400Y-89158800D03*
%TO.P,U2,24,PC4*%
%TO.N,unconnected-(U2-PC4-Pad24)*%
X165153400Y-88658800D03*
%TO.P,U2,25,PC5*%
%TO.N,/STM32F401RCT6/PC5*%
X165153400Y-88158800D03*
%TO.P,U2,26,PB0*%
%TO.N,/STM32F401RCT6/PB0*%
X165153400Y-87658800D03*
%TO.P,U2,27,PB1*%
%TO.N,/STM32F401RCT6/PB1*%
X165153400Y-87158800D03*
%TO.P,U2,28,PB2*%
%TO.N,unconnected-(U2-PB2-Pad28)*%
X165153400Y-86658800D03*
%TO.P,U2,29,PB10*%
%TO.N,/STM32F401RCT6/PB10*%
X165153400Y-86158800D03*
%TO.P,U2,30,VCAP1*%
%TO.N,/STM32F401RCT6/VCAP*%
X165153400Y-85658800D03*
%TO.P,U2,31,VSS*%
%TO.N,GND*%
X165153400Y-85158800D03*
%TO.P,U2,32,VDD*%
%TO.N,+3.3V*%
X165153400Y-84658800D03*
D41*
%TO.P,U2,33,PB12*%
%TO.N,unconnected-(U2-PB12-Pad33)*%
X163228400Y-82733800D03*
%TO.P,U2,34,PB13*%
%TO.N,unconnected-(U2-PB13-Pad34)*%
X162728400Y-82733800D03*
%TO.P,U2,35,PB14*%
%TO.N,/NEO-6M/PWR_CNTR*%
X162228400Y-82733800D03*
%TO.P,U2,36,PB15*%
%TO.N,unconnected-(U2-PB15-Pad36)*%
X161728400Y-82733800D03*
%TO.P,U2,37,PC6*%
%TO.N,/NEO-6M/UART_RXD1*%
X161228400Y-82733800D03*
%TO.P,U2,38,PC7*%
%TO.N,/NEO-6M/UART_TXD1*%
X160728400Y-82733800D03*
%TO.P,U2,39,PC8*%
%TO.N,unconnected-(U2-PC8-Pad39)*%
X160228400Y-82733800D03*
%TO.P,U2,40,PC9*%
%TO.N,unconnected-(U2-PC9-Pad40)*%
X159728400Y-82733800D03*
%TO.P,U2,41,PA8*%
%TO.N,unconnected-(U2-PA8-Pad41)*%
X159228400Y-82733800D03*
%TO.P,U2,42,PA9*%
%TO.N,/STM32F401RCT6/USART1_TX*%
X158728400Y-82733800D03*
%TO.P,U2,43,PA10*%
%TO.N,/STM32F401RCT6/USART1_RX*%
X158228400Y-82733800D03*
%TO.P,U2,44,PA11*%
%TO.N,unconnected-(U2-PA11-Pad44)*%
X157728400Y-82733800D03*
%TO.P,U2,45,PA12*%
%TO.N,unconnected-(U2-PA12-Pad45)*%
X157228400Y-82733800D03*
%TO.P,U2,46,PA13*%
%TO.N,/STM32F401RCT6/SWDIO*%
X156728400Y-82733800D03*
%TO.P,U2,47,VSS*%
%TO.N,GND*%
X156228400Y-82733800D03*
%TO.P,U2,48,VDD*%
%TO.N,+3.3V*%
X155728400Y-82733800D03*
D42*
%TO.P,U2,49,PA14*%
%TO.N,/STM32F401RCT6/SWCLK*%
X153803400Y-84658800D03*
%TO.P,U2,50,PA15*%
%TO.N,unconnected-(U2-PA15-Pad50)*%
X153803400Y-85158800D03*
%TO.P,U2,51,PC10*%
%TO.N,/SIM800C/PWR_CNTR*%
X153803400Y-85658800D03*
%TO.P,U2,52,PC11*%
%TO.N,unconnected-(U2-PC11-Pad52)*%
X153803400Y-86158800D03*
%TO.P,U2,53,PC12*%
%TO.N,unconnected-(U2-PC12-Pad53)*%
X153803400Y-86658800D03*
%TO.P,U2,54,PD2*%
%TO.N,unconnected-(U2-PD2-Pad54)*%
X153803400Y-87158800D03*
%TO.P,U2,55,PB3*%
%TO.N,unconnected-(U2-PB3-Pad55)*%
X153803400Y-87658800D03*
%TO.P,U2,56,PB4*%
%TO.N,unconnected-(U2-PB4-Pad56)*%
X153803400Y-88158800D03*
%TO.P,U2,57,PB5*%
%TO.N,unconnected-(U2-PB5-Pad57)*%
X153803400Y-88658800D03*
%TO.P,U2,58,PB6*%
%TO.N,unconnected-(U2-PB6-Pad58)*%
X153803400Y-89158800D03*
%TO.P,U2,59,PB7*%
%TO.N,unconnected-(U2-PB7-Pad59)*%
X153803400Y-89658800D03*
%TO.P,U2,60,BOOT0*%
%TO.N,/STM32F401RCT6/BOOT0*%
X153803400Y-90158800D03*
%TO.P,U2,61,PB8*%
%TO.N,unconnected-(U2-PB8-Pad61)*%
X153803400Y-90658800D03*
%TO.P,U2,62,PB9*%
%TO.N,unconnected-(U2-PB9-Pad62)*%
X153803400Y-91158800D03*
%TO.P,U2,63,VSS*%
%TO.N,GND*%
X153803400Y-91658800D03*
%TO.P,U2,64,VDD*%
%TO.N,+3.3V*%
X153803400Y-92158800D03*
%TD*%
D37*
%TO.P,C4,1*%
%TO.N,GND*%
X151426600Y-101232600D03*
%TO.P,C4,2*%
%TO.N,/STM32F401RCT6/LSE_IN*%
X151426600Y-99682600D03*
%TD*%
%TO.P,C22,1*%
%TO.N,+MAIN_VCC*%
X160977000Y-115812200D03*
%TO.P,C22,2*%
%TO.N,GND*%
X160977000Y-114262200D03*
%TD*%
D11*
%TO.P,C9,1*%
%TO.N,+3.3V*%
X151401200Y-92873200D03*
%TO.P,C9,2*%
%TO.N,GND*%
X151401200Y-90973200D03*
%TD*%
D24*
%TO.P,R2,1*%
%TO.N,/ADC1_IN6*%
X174701200Y-104126800D03*
%TO.P,R2,2*%
%TO.N,/STM32F401RCT6/PA6*%
X174701200Y-102476800D03*
%TD*%
D18*
%TO.P,H4,1,1*%
%TO.N,GND*%
X132883400Y-123228800D03*
%TD*%
D43*
%TO.P,D4,1,K*%
%TO.N,+MAIN_VCC*%
X171574000Y-119500000D03*
%TO.P,D4,2,A*%
%TO.N,GND*%
X174374000Y-119500000D03*
%TD*%
D30*
%TO.P,Q2,1,G*%
%TO.N,/SIM800C/NETLIGHT*%
X136151000Y-122248500D03*
%TO.P,Q2,2,S*%
%TO.N,GND*%
X138051000Y-122248500D03*
%TO.P,Q2,3,D*%
%TO.N,Net-(D3-K)*%
X137101000Y-120373500D03*
%TD*%
D44*
%TO.P,D5,1,K*%
%TO.N,GND*%
X140866100Y-80772000D03*
%TO.P,D5,2,A*%
%TO.N,Net-(D5-A)*%
X138991100Y-80772000D03*
%TD*%
D31*
%TO.P,C3,1*%
%TO.N,GND*%
X157934200Y-102069600D03*
%TO.P,C3,2*%
%TO.N,/STM32F401RCT6/HSE_IN*%
X156384200Y-102069600D03*
%TD*%
D14*
%TO.P,C1,1*%
%TO.N,GND*%
X173390600Y-117297200D03*
%TO.P,C1,2*%
%TO.N,+MAIN_VCC*%
X171490600Y-117297200D03*
%TD*%
D45*
%TO.N,GND*%
X147726400Y-100584000D03*
X144195800Y-111455200D03*
X156455800Y-97282600D03*
X161747200Y-100914200D03*
X147345400Y-106883200D03*
X146659600Y-87020400D03*
X135991600Y-109474000D03*
X151511000Y-122555000D03*
X158140400Y-79171800D03*
X152425400Y-123164600D03*
X142189200Y-80772000D03*
X132198800Y-107823600D03*
X144475200Y-95427800D03*
X170408600Y-112674400D03*
X152715955Y-100800963D03*
X153568899Y-110820699D03*
X171234697Y-89191503D03*
X174980600Y-115493800D03*
X149758400Y-110744000D03*
X138955200Y-124562200D03*
X171300000Y-85700000D03*
X170561000Y-92456000D03*
X174828200Y-117779800D03*
X141554200Y-117373400D03*
X170230800Y-110667800D03*
X160401000Y-101523800D03*
X160223200Y-111988600D03*
X149377400Y-95986600D03*
X166979600Y-111277400D03*
X141579600Y-108686600D03*
X159199000Y-96800000D03*
X141732000Y-115290600D03*
X143222400Y-125603600D03*
X167894000Y-108356400D03*
X145719800Y-102692200D03*
X131521200Y-118973600D03*
X162636200Y-112979200D03*
X171627800Y-109169200D03*
X150843679Y-119561036D03*
X156083000Y-114198400D03*
X175971200Y-97282000D03*
X131470400Y-85877400D03*
X175641000Y-120142000D03*
X148793200Y-119380000D03*
X146659600Y-95504000D03*
X143078200Y-106705400D03*
X156083000Y-115316000D03*
X132198800Y-106807600D03*
X156159200Y-120929400D03*
X149851800Y-91008800D03*
X159689800Y-114249200D03*
X138320200Y-123825600D03*
X165599800Y-102057800D03*
X155399000Y-123113800D03*
%TO.N,+BCKUP_BATT*%
X132334000Y-111455200D03*
X133172200Y-112496600D03*
X150952200Y-96113600D03*
X134874000Y-86995000D03*
%TO.N,+3.3V*%
X163550600Y-96799400D03*
X170505901Y-91368099D03*
X150029600Y-92837600D03*
X130319200Y-119685400D03*
X173507400Y-109220000D03*
X170904253Y-84035547D03*
X154703200Y-81966400D03*
X130352800Y-103124000D03*
X174828200Y-110643000D03*
X136491400Y-113094600D03*
X139216800Y-106756800D03*
%TO.N,/STM32F401RCT6/NRST*%
X157310500Y-91076100D03*
%TO.N,/SIM800C/SIM_DATA*%
X141655800Y-110871000D03*
%TO.N,/SIM800C/SIM_CLK*%
X141681200Y-111963200D03*
%TO.N,/SIM800C/SIM_RST*%
X138835900Y-113080800D03*
%TO.N,/SIM800C/SIM_VDD*%
X138728979Y-114145181D03*
%TO.N,/STM32F401RCT6/USART1_RX*%
X164795200Y-80707900D03*
%TO.N,/STM32F401RCT6/BOOT0*%
X152120600Y-87934800D03*
%TO.N,/NEO-6M/PWR_CNTR*%
X162229800Y-84302600D03*
X135358900Y-102463600D03*
%TO.N,Net-(U4-TIMEPULSE)*%
X138201400Y-82296000D03*
X134874000Y-94970600D03*
%TO.N,/NEO-6M/UART_RXD1*%
X149098000Y-94488000D03*
X161467800Y-85598000D03*
%TO.N,/STM32F401RCT6/PA4*%
X149733000Y-98729800D03*
X163118800Y-90652600D03*
%TO.N,/STM32F401RCT6/PA6*%
X174701200Y-100203000D03*
X166725600Y-89662000D03*
%TO.N,/ADC1_IN6*%
X174675800Y-105994200D03*
%TD*%
D46*
%TO.N,GND*%
X162653400Y-114236800D02*
X162653400Y-112996400D01*
D47*
X146915400Y-101395000D02*
X147726400Y-100584000D01*
D46*
X171634800Y-109176200D02*
X171634800Y-110643000D01*
D47*
X146674600Y-85236800D02*
X146674600Y-87005400D01*
X138955200Y-125241400D02*
X138516800Y-125679800D01*
X141724800Y-115283400D02*
X141732000Y-115290600D01*
D46*
X171634800Y-110643000D02*
X170255600Y-110643000D01*
D47*
X151426600Y-101232600D02*
X152284318Y-101232600D01*
X157934200Y-101085600D02*
X158640200Y-100379600D01*
X170311800Y-88087800D02*
X170311800Y-88625400D01*
X149851800Y-91008800D02*
X150004200Y-91161200D01*
X167276200Y-92456600D02*
X169140600Y-92456600D01*
X156455800Y-97282600D02*
X156455800Y-97951000D01*
X152120600Y-122555000D02*
X151511000Y-122555000D01*
D46*
X174374000Y-119634000D02*
X175133000Y-119634000D01*
D47*
X155024400Y-120933400D02*
X156155200Y-120933400D01*
D46*
X171627800Y-109169200D02*
X171634800Y-109176200D01*
D47*
X166478400Y-91658800D02*
X167276200Y-92456600D01*
X160375600Y-111836200D02*
X160375600Y-110959400D01*
X152102200Y-94793400D02*
X150570600Y-94793400D01*
X147324400Y-105233400D02*
X147324400Y-106862200D01*
D46*
X159702800Y-114262200D02*
X159689800Y-114249200D01*
D47*
X140174400Y-108683400D02*
X141576400Y-108683400D01*
D46*
X175133000Y-119634000D02*
X175641000Y-120142000D01*
D47*
X151026600Y-119735600D02*
X150799800Y-119735600D01*
X156155200Y-120933400D02*
X156159200Y-120929400D01*
X156440200Y-98679600D02*
X155617600Y-98679600D01*
X161228400Y-94924485D02*
X161228400Y-94083800D01*
X132491400Y-119964800D02*
X132491400Y-119943800D01*
X160306400Y-96774600D02*
X159224400Y-96774600D01*
X166800800Y-85158800D02*
X167581000Y-85939000D01*
X157302200Y-79171800D02*
X156948600Y-79525400D01*
X147324400Y-106862200D02*
X147345400Y-106883200D01*
X152449000Y-123188200D02*
X152425400Y-123164600D01*
X165153400Y-85158800D02*
X166800800Y-85158800D01*
X146915400Y-102097400D02*
X146915400Y-101395000D01*
X156083000Y-115316000D02*
X156115600Y-115283400D01*
D46*
X164583800Y-113774800D02*
X165874900Y-112483700D01*
D47*
X156440200Y-97966600D02*
X156440200Y-98679600D01*
D46*
X133382400Y-106858400D02*
X132249600Y-106858400D01*
X170217900Y-112483700D02*
X167428600Y-112483700D01*
D47*
X160537400Y-100330000D02*
X161163000Y-100330000D01*
X153096792Y-101181800D02*
X153992000Y-101181800D01*
X160306400Y-95846485D02*
X161228400Y-94924485D01*
X156455800Y-97951000D02*
X156440200Y-97966600D01*
D46*
X132562400Y-109351800D02*
X131796600Y-109351800D01*
D47*
X152824400Y-121851200D02*
X152120600Y-122555000D01*
X152962715Y-91658800D02*
X153803400Y-91658800D01*
X155399000Y-123113800D02*
X155399000Y-124932000D01*
X165676000Y-101981600D02*
X165599800Y-102057800D01*
X155185800Y-102124017D02*
X155931383Y-102869600D01*
X171300000Y-85700000D02*
X170328200Y-85700000D01*
X157934200Y-102069600D02*
X157934200Y-101085600D01*
X150004200Y-91161200D02*
X152465115Y-91161200D01*
X168175400Y-85939000D02*
X168524600Y-86288200D01*
X145719800Y-102692200D02*
X145125000Y-102097400D01*
D46*
X170255600Y-110643000D02*
X170230800Y-110667800D01*
D47*
X157774400Y-114183400D02*
X156098000Y-114183400D01*
X156115600Y-115283400D02*
X157774400Y-115283400D01*
X170877903Y-89191503D02*
X171234697Y-89191503D01*
X150570600Y-94793400D02*
X149377400Y-95986600D01*
X169140600Y-92456600D02*
X169155800Y-92441400D01*
X152715955Y-100800963D02*
X153096792Y-101181800D01*
D46*
X162653400Y-114236800D02*
X164154800Y-114236800D01*
D47*
X132491400Y-119943800D02*
X131521200Y-118973600D01*
X144474600Y-95428400D02*
X144475200Y-95427800D01*
X167576600Y-108039000D02*
X167894000Y-108356400D01*
D46*
X162653400Y-114236800D02*
X161002400Y-114236800D01*
D47*
X155617600Y-98679600D02*
X155185800Y-99111400D01*
D46*
X132249600Y-106858400D02*
X132198800Y-106807600D01*
D47*
X157134200Y-102869600D02*
X157934200Y-102069600D01*
X156098000Y-114183400D02*
X156083000Y-114198400D01*
X155185800Y-99111400D02*
X155185800Y-102124017D01*
X161163000Y-100330000D02*
X161747200Y-100914200D01*
D46*
X174980600Y-115493800D02*
X173532800Y-115493800D01*
X164583800Y-113807800D02*
X164583800Y-113774800D01*
X132562400Y-108187200D02*
X132562400Y-109351800D01*
D47*
X141444200Y-117483400D02*
X141554200Y-117373400D01*
X138051000Y-122248500D02*
X138193200Y-122390700D01*
X174942000Y-97282000D02*
X174701200Y-97041200D01*
X158140400Y-79171800D02*
X157302200Y-79171800D01*
X132111000Y-85236800D02*
X131470400Y-85877400D01*
X136008800Y-109456800D02*
X135991600Y-109474000D01*
D46*
X161002400Y-114236800D02*
X160977000Y-114262200D01*
D47*
X138193200Y-122390700D02*
X138193200Y-123698600D01*
X148424400Y-119748800D02*
X148793200Y-119380000D01*
X152284318Y-101232600D02*
X152715955Y-100800963D01*
X155931383Y-102869600D02*
X157134200Y-102869600D01*
X158689800Y-100330000D02*
X158640200Y-100379600D01*
D46*
X162653400Y-112996400D02*
X162636200Y-112979200D01*
D47*
X160223200Y-111988600D02*
X160375600Y-111836200D01*
X156228400Y-81137200D02*
X156948600Y-80417000D01*
X169155800Y-92441400D02*
X170546400Y-92441400D01*
X138516800Y-125679800D02*
X137926000Y-125679800D01*
X142013400Y-125601300D02*
X143220100Y-125601300D01*
X141576400Y-108683400D02*
X141579600Y-108686600D01*
X156948600Y-79525400D02*
X156948600Y-80417000D01*
X146674600Y-87005400D02*
X146659600Y-87020400D01*
X152465115Y-91161200D02*
X152962715Y-91658800D01*
X152449000Y-124932000D02*
X152449000Y-123188200D01*
X148424400Y-120933400D02*
X148424400Y-119748800D01*
D46*
X174828200Y-117779800D02*
X173873200Y-117779800D01*
X165874900Y-112483700D02*
X167428600Y-112483700D01*
D47*
X151724400Y-120933400D02*
X151724400Y-120433400D01*
X170328200Y-85700000D02*
X169740000Y-86288200D01*
X159224400Y-96774600D02*
X159199000Y-96800000D01*
X170311800Y-88625400D02*
X170877903Y-89191503D01*
X137507400Y-109456800D02*
X136008800Y-109456800D01*
D46*
X132198800Y-107823600D02*
X132562400Y-108187200D01*
X167428600Y-111726400D02*
X167428600Y-112483700D01*
D47*
X170546400Y-92441400D02*
X170561000Y-92456000D01*
X150843679Y-119691721D02*
X150843679Y-119561036D01*
X175971200Y-97282000D02*
X174942000Y-97282000D01*
X152824400Y-120933400D02*
X152824400Y-121851200D01*
X156228400Y-82733800D02*
X156228400Y-81137200D01*
X166959200Y-101981600D02*
X165676000Y-101981600D01*
X166463400Y-108039000D02*
X167576600Y-108039000D01*
X151724400Y-120433400D02*
X151026600Y-119735600D01*
X150799800Y-119735600D02*
X150843679Y-119691721D01*
D46*
X164154800Y-114236800D02*
X164583800Y-113807800D01*
D47*
X142189200Y-80772000D02*
X142240000Y-80772000D01*
X138955200Y-124562200D02*
X138955200Y-125241400D01*
X165153400Y-91658800D02*
X166478400Y-91658800D01*
X168524600Y-86288200D02*
X169740000Y-86288200D01*
X144474600Y-97236800D02*
X144474600Y-95428400D01*
X146674600Y-97236800D02*
X146674600Y-95519000D01*
X140174400Y-115283400D02*
X141724800Y-115283400D01*
X146674600Y-95519000D02*
X146659600Y-95504000D01*
X160537400Y-100330000D02*
X158689800Y-100330000D01*
X140866100Y-80772000D02*
X142189200Y-80772000D01*
X143220100Y-125601300D02*
X143222400Y-125603600D01*
D46*
X160977000Y-114262200D02*
X159702800Y-114262200D01*
X166979600Y-111277400D02*
X167428600Y-111726400D01*
X170408600Y-112674400D02*
X170217900Y-112483700D01*
D47*
X160306400Y-96520600D02*
X160306400Y-95846485D01*
X138193200Y-123698600D02*
X138320200Y-123825600D01*
X145125000Y-102097400D02*
X143965400Y-102097400D01*
X140174400Y-117483400D02*
X141444200Y-117483400D01*
X132674600Y-85236800D02*
X132111000Y-85236800D01*
D46*
X173873200Y-117779800D02*
X173390600Y-117297200D01*
D47*
X167581000Y-85939000D02*
X168175400Y-85939000D01*
D46*
%TO.N,+BCKUP_BATT*%
X132706800Y-116599800D02*
X132706800Y-115900800D01*
D47*
X131112400Y-112676800D02*
X131112400Y-113301800D01*
X132334000Y-111455200D02*
X131112400Y-112676800D01*
X155728400Y-94605373D02*
X155728400Y-94083800D01*
D46*
X131112400Y-114306400D02*
X131112400Y-113301800D01*
D47*
X150952200Y-96113600D02*
X151051800Y-96014000D01*
X131112400Y-113301800D02*
X132367000Y-113301800D01*
X151051800Y-96014000D02*
X154319773Y-96014000D01*
D46*
X132706800Y-115900800D02*
X131112400Y-114306400D01*
D47*
X154319773Y-96014000D02*
X155728400Y-94605373D01*
X134874600Y-86994400D02*
X134874000Y-86995000D01*
X134874600Y-85236800D02*
X134874600Y-86994400D01*
X132367000Y-113301800D02*
X133172200Y-112496600D01*
D46*
%TO.N,+3.3V*%
X173532800Y-110645000D02*
X173534800Y-110643000D01*
X173534800Y-110643000D02*
X173534800Y-109247400D01*
D47*
X169679202Y-90541400D02*
X170505901Y-91368099D01*
X169155800Y-90541400D02*
X169679202Y-90541400D01*
D46*
X137507400Y-106756800D02*
X135384000Y-106756800D01*
X173534800Y-109247400D02*
X173507400Y-109220000D01*
X135424600Y-104585300D02*
X135409400Y-104570100D01*
X135282400Y-106858400D02*
X135424600Y-106716200D01*
D47*
X162206400Y-95743400D02*
X161728400Y-95265400D01*
D46*
X174828200Y-110643000D02*
X173534800Y-110643000D01*
D47*
X150080400Y-92786800D02*
X152239400Y-92786800D01*
X150029600Y-92837600D02*
X150080400Y-92786800D01*
X163550600Y-96799400D02*
X162231200Y-96799400D01*
D46*
X139216800Y-106756800D02*
X137507400Y-106756800D01*
D47*
X170904253Y-84035547D02*
X170456906Y-83588200D01*
D46*
X135384000Y-106756800D02*
X135282400Y-106858400D01*
D47*
X165153400Y-91158800D02*
X166389600Y-91158800D01*
X162206400Y-96520600D02*
X162206400Y-95743400D01*
X136491400Y-113094600D02*
X137380400Y-113094600D01*
X152239400Y-92786800D02*
X152867400Y-92158800D01*
D46*
X131653800Y-103124000D02*
X131665400Y-103112400D01*
D47*
X154914600Y-81755000D02*
X154914600Y-80551000D01*
X152867400Y-92158800D02*
X153803400Y-92158800D01*
X155728400Y-81096800D02*
X155048600Y-80417000D01*
X162231200Y-96799400D02*
X162206400Y-96774600D01*
X154703200Y-81966400D02*
X154914600Y-81755000D01*
D46*
X135424600Y-106716200D02*
X135424600Y-104585300D01*
D47*
X166389600Y-91158800D02*
X167007000Y-90541400D01*
D46*
X130344600Y-119660000D02*
X130344600Y-118779600D01*
X173532800Y-113593800D02*
X173532800Y-110645000D01*
D47*
X167211800Y-83588200D02*
X169740000Y-83588200D01*
D46*
X130352800Y-103124000D02*
X131653800Y-103124000D01*
D47*
X161728400Y-95265400D02*
X161728400Y-94083800D01*
X166141200Y-84658800D02*
X167211800Y-83588200D01*
X170456906Y-83588200D02*
X169740000Y-83588200D01*
X165153400Y-84658800D02*
X166141200Y-84658800D01*
X155728400Y-82733800D02*
X155728400Y-81096800D01*
X154914600Y-80551000D02*
X155048600Y-80417000D01*
D46*
X130319200Y-119685400D02*
X130344600Y-119660000D01*
D47*
X167007000Y-90541400D02*
X169155800Y-90541400D01*
%TO.N,/STM32F401RCT6/NRST*%
X157310500Y-91076100D02*
X157361300Y-91076100D01*
X158728400Y-92443200D02*
X158728400Y-94083800D01*
X158424485Y-92939200D02*
X155211200Y-92939200D01*
X157361300Y-91076100D02*
X158728400Y-92443200D01*
X158728400Y-93243115D02*
X158424485Y-92939200D01*
X155211200Y-92939200D02*
X154078400Y-94072000D01*
X154078400Y-94072000D02*
X154078400Y-94971200D01*
X158728400Y-94083800D02*
X158728400Y-93243115D01*
%TO.N,/STM32F401RCT6/HSE_IN*%
X156540200Y-100379600D02*
X156440200Y-100379600D01*
X157728400Y-97754600D02*
X157582100Y-97900900D01*
X157582100Y-97900900D02*
X157582100Y-99337700D01*
X156690200Y-100379600D02*
X156440200Y-100379600D01*
X156384200Y-100435600D02*
X156440200Y-100379600D01*
X157582100Y-99337700D02*
X156540200Y-100379600D01*
X156384200Y-102069600D02*
X156384200Y-100435600D01*
X157728400Y-94083800D02*
X157728400Y-97754600D01*
%TO.N,/STM32F401RCT6/HSE_OUT*%
X158640200Y-98679600D02*
X158228400Y-98267800D01*
X158640200Y-98679600D02*
X160437000Y-98679600D01*
X158228400Y-98267800D02*
X158228400Y-94083800D01*
X160437000Y-98679600D02*
X160537400Y-98780000D01*
%TO.N,/STM32F401RCT6/LSE_IN*%
X156728400Y-94924485D02*
X156728400Y-94083800D01*
X151426600Y-99682600D02*
X151426600Y-97739800D01*
X151426600Y-97739800D02*
X151477400Y-97689000D01*
X151477400Y-97689000D02*
X152702400Y-96464000D01*
X152702400Y-96464000D02*
X155188885Y-96464000D01*
X155188885Y-96464000D02*
X156728400Y-94924485D01*
%TO.N,/STM32F401RCT6/LSE_OUT*%
X153992000Y-99631800D02*
X153992000Y-97703600D01*
X157228400Y-95188000D02*
X157228400Y-94083800D01*
X153992000Y-97703600D02*
X153977400Y-97689000D01*
X153977400Y-97689000D02*
X154727400Y-97689000D01*
X154727400Y-97689000D02*
X157228400Y-95188000D01*
%TO.N,/STM32F401RCT6/VCAP*%
X165153400Y-85658800D02*
X166132560Y-85658800D01*
X168561560Y-88087800D02*
X168761800Y-88087800D01*
X166132560Y-85658800D02*
X168561560Y-88087800D01*
%TO.N,/SIM800C/SIM_DATA*%
X141643400Y-110883400D02*
X141655800Y-110871000D01*
X140174400Y-110883400D02*
X141643400Y-110883400D01*
%TO.N,/SIM800C/SIM_CLK*%
X141661000Y-111983400D02*
X141681200Y-111963200D01*
X140174400Y-111983400D02*
X141661000Y-111983400D01*
%TO.N,/SIM800C/SIM_RST*%
X140171800Y-113080800D02*
X140174400Y-113083400D01*
X138835900Y-113080800D02*
X140171800Y-113080800D01*
%TO.N,/SIM800C/SIM_VDD*%
X140136181Y-114145181D02*
X140174400Y-114183400D01*
X138728979Y-114145181D02*
X140136181Y-114145181D01*
D46*
%TO.N,Net-(D1-K)*%
X130971000Y-116679600D02*
X130344600Y-116679600D01*
X132541200Y-118249800D02*
X130971000Y-116679600D01*
X132706800Y-118249800D02*
X132541200Y-118249800D01*
D47*
%TO.N,Net-(D3-K)*%
X137101000Y-120373500D02*
X137101000Y-118616300D01*
X137101000Y-118616300D02*
X137431200Y-118286100D01*
%TO.N,Net-(D3-A)*%
X137812200Y-114795400D02*
X137761400Y-114744600D01*
X137431200Y-116411100D02*
X137812200Y-116030100D01*
X137812200Y-116030100D02*
X137812200Y-114795400D01*
%TO.N,Net-(D5-A)*%
X136931400Y-80607400D02*
X138826500Y-80607400D01*
X138826500Y-80607400D02*
X138991100Y-80772000D01*
%TO.N,/STM32F401RCT6/SWCLK*%
X153797000Y-80002400D02*
X154551400Y-79248000D01*
X154559000Y-79248000D02*
X156012800Y-77794200D01*
X161580000Y-77794200D02*
X162755000Y-78969200D01*
X154551400Y-79248000D02*
X154559000Y-79248000D01*
X156012800Y-77794200D02*
X161580000Y-77794200D01*
X153788800Y-84644200D02*
X153803400Y-84658800D01*
X153797000Y-84652400D02*
X153797000Y-80002400D01*
X153803400Y-84658800D02*
X153797000Y-84652400D01*
%TO.N,/STM32F401RCT6/SWDIO*%
X163949400Y-80314800D02*
X165295000Y-78969200D01*
X156728400Y-81893115D02*
X157138315Y-81483200D01*
X156728400Y-82733800D02*
X156728400Y-81893115D01*
X157734000Y-81483200D02*
X158902400Y-80314800D01*
X158902400Y-80314800D02*
X163949400Y-80314800D01*
X157138315Y-81483200D02*
X157734000Y-81483200D01*
%TO.N,/STM32F401RCT6/USART1_RX*%
X164731100Y-80772000D02*
X159081596Y-80772000D01*
X164795200Y-80707900D02*
X164731100Y-80772000D01*
X158228400Y-81625196D02*
X158228400Y-82733800D01*
X159081596Y-80772000D02*
X158228400Y-81625196D01*
%TO.N,/STM32F401RCT6/USART1_TX*%
X169325705Y-81432400D02*
X173978400Y-86085095D01*
X158728400Y-82733800D02*
X158728400Y-81893115D01*
X173978400Y-86085095D02*
X173978400Y-87103800D01*
X173978400Y-87103800D02*
X175153400Y-88278800D01*
X159189115Y-81432400D02*
X169325705Y-81432400D01*
X158728400Y-81893115D02*
X159189115Y-81432400D01*
%TO.N,/STM32F401RCT6/BOOT0*%
X152120600Y-87934800D02*
X152120600Y-89316685D01*
X152120600Y-89316685D02*
X152962715Y-90158800D01*
X152962715Y-90158800D02*
X153803400Y-90158800D01*
%TO.N,/SIM800C/GSM_ANT*%
X153949400Y-123323200D02*
X153949400Y-121023400D01*
X153949400Y-121023400D02*
X153882600Y-120956600D01*
X153865000Y-123407600D02*
X153949400Y-123323200D01*
%TO.N,/NEO-6M/RF_IN*%
X141859000Y-99657400D02*
X142100800Y-99657400D01*
X145428800Y-100584000D02*
X145440400Y-100572400D01*
X145574600Y-100212600D02*
X145574600Y-97236800D01*
X142100800Y-99657400D02*
X143027400Y-100584000D01*
X145186400Y-100600800D02*
X145574600Y-100212600D01*
X143027400Y-100584000D02*
X145428800Y-100584000D01*
%TO.N,/NEO-6M/VCC_RF*%
X140004800Y-98831400D02*
X140004800Y-99369100D01*
X143374600Y-97236800D02*
X142274600Y-97236800D01*
X141599400Y-97236800D02*
X140004800Y-98831400D01*
X142274600Y-97236800D02*
X141599400Y-97236800D01*
%TO.N,Net-(L1-Pad2)*%
X141041900Y-101494100D02*
X141046200Y-101498400D01*
X141046200Y-101498400D02*
X141668000Y-101498400D01*
X140004800Y-101494100D02*
X141041900Y-101494100D01*
X141668000Y-101498400D02*
X141859000Y-101307400D01*
%TO.N,/SIM800C/NETLIGHT*%
X135577000Y-119964800D02*
X136151000Y-120538800D01*
X136151000Y-120538800D02*
X136151000Y-122248500D01*
X153581600Y-109783400D02*
X157774400Y-109783400D01*
X140781849Y-118108400D02*
X145256600Y-118108400D01*
X145256600Y-118108400D02*
X153581600Y-109783400D01*
X134141400Y-119964800D02*
X135577000Y-119964800D01*
X136641749Y-122248500D02*
X140781849Y-118108400D01*
X136151000Y-122248500D02*
X136641749Y-122248500D01*
%TO.N,/SIM800C/PWR_CNTR*%
X131837510Y-125753800D02*
X129557200Y-123473490D01*
X129557200Y-123473490D02*
X129557200Y-86404200D01*
X137204200Y-126608000D02*
X136276000Y-125679800D01*
X140113400Y-125601300D02*
X139106700Y-126608000D01*
X136202000Y-125753800D02*
X131837510Y-125753800D01*
X150530400Y-85658800D02*
X153803400Y-85658800D01*
X129557200Y-86404200D02*
X132268400Y-83693000D01*
X148564600Y-83693000D02*
X150530400Y-85658800D01*
X136276000Y-125679800D02*
X136202000Y-125753800D01*
X132268400Y-83693000D02*
X148564600Y-83693000D01*
X139106700Y-126608000D02*
X137204200Y-126608000D01*
%TO.N,/SIM800C/PWRKEY*%
X154810600Y-111983400D02*
X157774400Y-111983400D01*
X141063400Y-120599800D02*
X142587400Y-119075800D01*
X142587400Y-119075800D02*
X147718200Y-119075800D01*
X141063400Y-123726300D02*
X141063400Y-120599800D01*
X147718200Y-119075800D02*
X154810600Y-111983400D01*
%TO.N,/NEO-6M/PWR_CNTR*%
X162229800Y-84302600D02*
X162229800Y-83575885D01*
X162228400Y-83574485D02*
X162228400Y-82733800D01*
X135358900Y-103211349D02*
X134442200Y-104128049D01*
X135358900Y-102463600D02*
X135358900Y-103211349D01*
X134442200Y-104140000D02*
X134012100Y-104570100D01*
X162229800Y-83575885D02*
X162228400Y-83574485D01*
X134442200Y-104128049D02*
X134442200Y-104140000D01*
X134012100Y-104570100D02*
X133509400Y-104570100D01*
X131665400Y-104762400D02*
X133317100Y-104762400D01*
X133317100Y-104762400D02*
X133509400Y-104570100D01*
D46*
%TO.N,+3V3_NEO*%
X130708400Y-89303000D02*
X130708400Y-99339400D01*
X134064100Y-102695100D02*
X134459400Y-102695100D01*
X133774600Y-85236800D02*
X133774600Y-86236800D01*
X133774600Y-86236800D02*
X130708400Y-89303000D01*
X130708400Y-99339400D02*
X134064100Y-102695100D01*
D47*
%TO.N,/SIM800C/UART1_TXD*%
X169969600Y-103683400D02*
X169011000Y-103683400D01*
X167461000Y-105233400D02*
X155024400Y-105233400D01*
X169011000Y-103683400D02*
X167461000Y-105233400D01*
%TO.N,/SIM800C/UART1_RXD*%
X153882600Y-105256600D02*
X153882600Y-105756600D01*
X170805200Y-100827000D02*
X170832200Y-100800000D01*
X154507600Y-106381600D02*
X168921400Y-106381600D01*
X170654400Y-104623200D02*
X170805200Y-104472400D01*
X168921400Y-106381600D02*
X170654400Y-104648600D01*
X170654400Y-104648600D02*
X170654400Y-104623200D01*
X153882600Y-105756600D02*
X154507600Y-106381600D01*
X170805200Y-104472400D02*
X170805200Y-100827000D01*
%TO.N,/SIM800C/UART1_RTS*%
X168698600Y-101549800D02*
X168698600Y-99225200D01*
X168609200Y-101981600D02*
X168609200Y-102528200D01*
X153357000Y-103810400D02*
X152782600Y-104384800D01*
X168698600Y-99225200D02*
X168647800Y-99174400D01*
X168609200Y-102528200D02*
X167327000Y-103810400D01*
X167327000Y-103810400D02*
X153357000Y-103810400D01*
X152782600Y-105256600D02*
X152782600Y-104756600D01*
X152782600Y-104384800D02*
X152782600Y-105256600D01*
%TO.N,/SIM800C/UART1_CTS*%
X151682600Y-104316400D02*
X151682600Y-105256600D01*
X166514200Y-99797200D02*
X162991800Y-103319600D01*
X152679400Y-103319600D02*
X151682600Y-104316400D01*
X166514200Y-99199800D02*
X166514200Y-99797200D01*
X162991800Y-103319600D02*
X152679400Y-103319600D01*
%TO.N,/SIM800C/UART1_DTR*%
X151686800Y-108058400D02*
X149482600Y-105854200D01*
X149482600Y-105854200D02*
X149482600Y-105256600D01*
X158533283Y-108058400D02*
X151686800Y-108058400D01*
X164427400Y-109474000D02*
X160540200Y-109474000D01*
X160401000Y-109436400D02*
X160401000Y-109067600D01*
X160540200Y-109474000D02*
X160375600Y-109309400D01*
X164478200Y-109524800D02*
X164427400Y-109474000D01*
X158556483Y-108081600D02*
X158533283Y-108058400D01*
X160401000Y-109067600D02*
X159415000Y-108081600D01*
X159415000Y-108081600D02*
X158556483Y-108081600D01*
X149487400Y-105256800D02*
X149487400Y-104756800D01*
%TO.N,/SIM800C/UART1_DCD*%
X152192400Y-107366400D02*
X150582600Y-105756600D01*
X161422000Y-107366400D02*
X152192400Y-107366400D01*
X150582600Y-105756600D02*
X150582600Y-105256600D01*
%TO.N,Net-(U4-TIMEPULSE)*%
X134874000Y-94970600D02*
X134874000Y-95883800D01*
X138162800Y-82257400D02*
X138201400Y-82296000D01*
X134874600Y-95884400D02*
X134874600Y-97236800D01*
X134874000Y-95883800D02*
X134874600Y-95884400D01*
X136931400Y-82257400D02*
X138162800Y-82257400D01*
%TO.N,/NEO-6M/UART_RXD1*%
X135974600Y-85236800D02*
X135974600Y-86386800D01*
X161467800Y-85598000D02*
X161228400Y-85358600D01*
X161228400Y-85358600D02*
X161228400Y-82733800D01*
X144075800Y-94488000D02*
X149098000Y-94488000D01*
X135974600Y-86386800D02*
X144075800Y-94488000D01*
%TO.N,/NEO-6M/UART_TXD1*%
X144413800Y-93726000D02*
X153593800Y-93726000D01*
X137074600Y-86386800D02*
X144413800Y-93726000D01*
X137074600Y-85236800D02*
X137074600Y-86386800D01*
X160728400Y-86591400D02*
X160728400Y-82733800D01*
X153593800Y-93726000D02*
X160728400Y-86591400D01*
%TO.N,/SIM800C/UART1_RI*%
X148886600Y-104216800D02*
X148886600Y-102653600D01*
X148382600Y-104720800D02*
X148886600Y-104216800D01*
X148382600Y-105256600D02*
X148382600Y-104720800D01*
%TO.N,/STM32F401RCT6/PA4*%
X165153400Y-90658800D02*
X163125000Y-90658800D01*
X148886600Y-99576200D02*
X149733000Y-98729800D01*
X148886600Y-101003600D02*
X148886600Y-99576200D01*
X163125000Y-90658800D02*
X163118800Y-90652600D01*
%TO.N,/STM32F401RCT6/PA2*%
X163228400Y-94083800D02*
X166424662Y-94083800D01*
X170832200Y-98491338D02*
X170832200Y-99150000D01*
X166424662Y-94083800D02*
X170832200Y-98491338D01*
%TO.N,/STM32F401RCT6/PA3*%
X171619600Y-103683400D02*
X172127600Y-103683400D01*
X166216400Y-92158800D02*
X165153400Y-92158800D01*
X172407000Y-103404000D02*
X172407000Y-98349400D01*
X172407000Y-98349400D02*
X166216400Y-92158800D01*
X172127600Y-103683400D02*
X172407000Y-103404000D01*
X165160400Y-92151800D02*
X165153400Y-92158800D01*
%TO.N,/STM32F401RCT6/PA1*%
X162728400Y-94083800D02*
X162728400Y-94924485D01*
X162728400Y-94924485D02*
X162987715Y-95183800D01*
X166307200Y-95183800D02*
X168647800Y-97524400D01*
X162987715Y-95183800D02*
X166307200Y-95183800D01*
%TO.N,/STM32F401RCT6/PA0*%
X162733196Y-95633800D02*
X165094000Y-95633800D01*
X166514200Y-97054000D02*
X166514200Y-97549800D01*
X162228400Y-95129004D02*
X162733196Y-95633800D01*
X162228400Y-94083800D02*
X162228400Y-95129004D01*
X165094000Y-95633800D02*
X166514200Y-97054000D01*
%TO.N,/STM32F401RCT6/PA6*%
X174701200Y-98843600D02*
X174701200Y-100203000D01*
X165153400Y-89658800D02*
X166722400Y-89658800D01*
X166722400Y-89658800D02*
X166725600Y-89662000D01*
X174701200Y-100203000D02*
X174701200Y-102476800D01*
%TO.N,/ADC1_IN6*%
X174675800Y-105994200D02*
X174675800Y-104152200D01*
X174675800Y-104152200D02*
X174701200Y-104126800D01*
%TO.N,/STM32F401RCT6/PB10*%
X165996164Y-86158800D02*
X166446200Y-86608836D01*
X166446200Y-87031252D02*
X168569548Y-89154600D01*
X166446200Y-86608836D02*
X166446200Y-87031252D01*
X165153400Y-86158800D02*
X165996164Y-86158800D01*
X169359600Y-109524800D02*
X166128200Y-109524800D01*
X170173196Y-89154600D02*
X173651600Y-92633004D01*
X173651600Y-105232800D02*
X169359600Y-109524800D01*
X173651600Y-92633004D02*
X173651600Y-105232800D01*
X168569548Y-89154600D02*
X170173196Y-89154600D01*
%TO.N,/STM32F401RCT6/PC5*%
X165153400Y-88158800D02*
X166494085Y-88158800D01*
X169817800Y-107314000D02*
X163124400Y-107314000D01*
X173042000Y-104089800D02*
X169817800Y-107314000D01*
X166494085Y-88158800D02*
X167947085Y-89611800D01*
X163124400Y-107314000D02*
X163072000Y-107366400D01*
X167947085Y-89611800D02*
X169774200Y-89611800D01*
X169774200Y-89611800D02*
X173042000Y-92879600D01*
X173042000Y-92879600D02*
X173042000Y-104089800D01*
%TD*%
%TA.AperFunction,Conductor*%
%TO.N,+MAIN_VCC*%
G36*
X172270602Y-113862485D02*
G01*
X172316357Y-113915289D01*
X172322639Y-113932204D01*
X172343554Y-114004195D01*
X172343555Y-114004196D01*
X172343556Y-114004198D01*
X172380981Y-114067481D01*
X172427217Y-114145662D01*
X172427223Y-114145670D01*
X172548951Y-114267398D01*
X172547944Y-114268404D01*
X172583887Y-114318170D01*
X172590979Y-114359992D01*
X172589535Y-114729696D01*
X172569589Y-114796658D01*
X172548434Y-114819687D01*
X172548951Y-114820204D01*
X172543437Y-114825717D01*
X172543435Y-114825719D01*
X172513285Y-114855869D01*
X172427220Y-114941933D01*
X172427217Y-114941937D01*
X172343555Y-115083403D01*
X172343554Y-115083406D01*
X172297702Y-115241226D01*
X172297701Y-115241232D01*
X172294800Y-115278104D01*
X172294800Y-115709496D01*
X172297701Y-115746367D01*
X172297702Y-115746373D01*
X172343554Y-115904193D01*
X172343555Y-115904196D01*
X172427217Y-116045662D01*
X172427223Y-116045670D01*
X172547262Y-116165709D01*
X172580747Y-116227032D01*
X172583580Y-116253871D01*
X172583529Y-116267020D01*
X172563585Y-116333983D01*
X172552350Y-116347870D01*
X172552365Y-116347882D01*
X172547885Y-116353546D01*
X172455789Y-116502859D01*
X172455786Y-116502866D01*
X172400601Y-116669403D01*
X172400601Y-116669404D01*
X172400600Y-116669404D01*
X172390100Y-116772183D01*
X172390100Y-117822201D01*
X172390101Y-117822219D01*
X172400600Y-117924996D01*
X172400601Y-117924999D01*
X172455785Y-118091531D01*
X172455787Y-118091536D01*
X172547889Y-118240857D01*
X172548781Y-118241985D01*
X172549151Y-118242903D01*
X172551680Y-118247003D01*
X172550979Y-118247435D01*
X172574920Y-118306781D01*
X172575512Y-118319378D01*
X172567871Y-120275590D01*
X172547925Y-120342552D01*
X172508032Y-120381217D01*
X170412786Y-121648111D01*
X170348626Y-121666000D01*
X169595799Y-121666000D01*
X169620570Y-126496242D01*
X169601230Y-126563382D01*
X169548661Y-126609407D01*
X169498455Y-126620864D01*
X159713021Y-126769503D01*
X159645691Y-126750839D01*
X159599139Y-126698736D01*
X159587142Y-126646568D01*
X159581727Y-126007653D01*
X159580151Y-125821624D01*
X159599267Y-125754421D01*
X159651682Y-125708220D01*
X159720753Y-125697691D01*
X159784553Y-125726176D01*
X159806782Y-125750989D01*
X159809297Y-125754699D01*
X159809300Y-125754704D01*
X159929063Y-125895700D01*
X160076336Y-126007654D01*
X160244233Y-126085332D01*
X160244234Y-126085332D01*
X160244236Y-126085333D01*
X160299048Y-126097397D01*
X160424903Y-126125100D01*
X160424906Y-126125100D01*
X160563507Y-126125100D01*
X160563513Y-126125100D01*
X160701310Y-126110114D01*
X160876621Y-126051044D01*
X161035136Y-125955670D01*
X161169441Y-125828449D01*
X161273258Y-125675330D01*
X161341731Y-125503475D01*
X161371660Y-125320917D01*
X161361645Y-125136193D01*
X161336527Y-125045725D01*
X161312155Y-124957943D01*
X161312152Y-124957937D01*
X161225501Y-124794497D01*
X161105737Y-124653500D01*
X161026849Y-124593531D01*
X160958464Y-124541546D01*
X160790567Y-124463868D01*
X160790563Y-124463866D01*
X160609897Y-124424100D01*
X160471287Y-124424100D01*
X160471283Y-124424100D01*
X160333488Y-124439086D01*
X160158176Y-124498157D01*
X160158174Y-124498158D01*
X159999662Y-124593531D01*
X159999661Y-124593532D01*
X159865359Y-124720749D01*
X159797716Y-124820517D01*
X159743801Y-124864958D01*
X159674419Y-124873196D01*
X159611597Y-124842616D01*
X159575281Y-124782925D01*
X159571086Y-124751981D01*
X159570939Y-124734663D01*
X159560125Y-123458566D01*
X163266900Y-123458566D01*
X163282336Y-123635003D01*
X163282338Y-123635013D01*
X163343494Y-123863255D01*
X163343496Y-123863259D01*
X163343497Y-123863263D01*
X163367400Y-123914522D01*
X163443364Y-124077428D01*
X163443365Y-124077430D01*
X163578905Y-124271002D01*
X163732004Y-124424100D01*
X163745999Y-124438095D01*
X163782804Y-124463866D01*
X163939565Y-124573632D01*
X163939567Y-124573633D01*
X163939570Y-124573635D01*
X164153737Y-124673503D01*
X164381992Y-124734663D01*
X164570318Y-124751139D01*
X164617399Y-124755259D01*
X164617400Y-124755259D01*
X164617401Y-124755259D01*
X164656634Y-124751826D01*
X164852808Y-124734663D01*
X165081063Y-124673503D01*
X165295229Y-124573635D01*
X165488801Y-124438095D01*
X165655895Y-124271001D01*
X165765826Y-124114001D01*
X165820401Y-124070378D01*
X165889900Y-124063184D01*
X165952255Y-124094706D01*
X165968971Y-124113998D01*
X166027902Y-124198161D01*
X166078906Y-124271003D01*
X166232004Y-124424100D01*
X166245999Y-124438095D01*
X166282804Y-124463866D01*
X166439565Y-124573632D01*
X166439567Y-124573633D01*
X166439570Y-124573635D01*
X166653737Y-124673503D01*
X166881992Y-124734663D01*
X167070318Y-124751139D01*
X167117399Y-124755259D01*
X167117400Y-124755259D01*
X167117401Y-124755259D01*
X167156634Y-124751826D01*
X167352808Y-124734663D01*
X167581063Y-124673503D01*
X167795229Y-124573635D01*
X167988801Y-124438095D01*
X168155895Y-124271001D01*
X168291435Y-124077429D01*
X168391303Y-123863263D01*
X168452463Y-123635008D01*
X168467900Y-123458566D01*
X168467900Y-123090634D01*
X168452463Y-122914192D01*
X168391303Y-122685937D01*
X168291435Y-122471771D01*
X168279336Y-122454491D01*
X168155894Y-122278197D01*
X167988802Y-122111106D01*
X167988795Y-122111101D01*
X167795234Y-121975567D01*
X167795230Y-121975565D01*
X167795228Y-121975564D01*
X167581063Y-121875697D01*
X167581059Y-121875696D01*
X167581055Y-121875694D01*
X167352813Y-121814538D01*
X167352803Y-121814536D01*
X167117401Y-121793941D01*
X167117399Y-121793941D01*
X166881996Y-121814536D01*
X166881986Y-121814538D01*
X166653744Y-121875694D01*
X166653735Y-121875698D01*
X166439571Y-121975564D01*
X166439569Y-121975565D01*
X166245997Y-122111105D01*
X166078905Y-122278197D01*
X165968975Y-122435195D01*
X165914398Y-122478820D01*
X165844900Y-122486014D01*
X165782545Y-122454491D01*
X165765825Y-122435195D01*
X165655894Y-122278197D01*
X165488802Y-122111106D01*
X165488795Y-122111101D01*
X165295234Y-121975567D01*
X165295230Y-121975565D01*
X165295228Y-121975564D01*
X165081063Y-121875697D01*
X165081059Y-121875696D01*
X165081055Y-121875694D01*
X164852813Y-121814538D01*
X164852803Y-121814536D01*
X164617401Y-121793941D01*
X164617399Y-121793941D01*
X164381996Y-121814536D01*
X164381986Y-121814538D01*
X164153744Y-121875694D01*
X164153735Y-121875698D01*
X163939571Y-121975564D01*
X163939569Y-121975565D01*
X163745997Y-122111105D01*
X163578905Y-122278197D01*
X163443365Y-122471769D01*
X163443364Y-122471771D01*
X163343498Y-122685935D01*
X163343494Y-122685944D01*
X163282338Y-122914186D01*
X163282336Y-122914196D01*
X163266900Y-123090634D01*
X163266900Y-123458566D01*
X159560125Y-123458566D01*
X159537400Y-120777000D01*
X159512000Y-118618000D01*
X156896284Y-118714878D01*
X156828562Y-118697688D01*
X156780884Y-118646614D01*
X156767700Y-118592032D01*
X156746403Y-116121648D01*
X156765509Y-116054445D01*
X156817916Y-116008237D01*
X156886986Y-115997698D01*
X156918240Y-116007074D01*
X156918305Y-116006889D01*
X156922415Y-116008327D01*
X156924201Y-116008863D01*
X156924874Y-116009186D01*
X156924878Y-116009189D01*
X157095145Y-116068768D01*
X157095150Y-116068769D01*
X157185646Y-116078965D01*
X157229440Y-116083899D01*
X157229443Y-116083900D01*
X157229446Y-116083900D01*
X158319357Y-116083900D01*
X158319358Y-116083899D01*
X158386504Y-116076334D01*
X158453649Y-116068769D01*
X158453652Y-116068768D01*
X158453655Y-116068768D01*
X158623922Y-116009189D01*
X158776662Y-115913216D01*
X158904216Y-115785662D01*
X158904216Y-115785661D01*
X158905759Y-115784119D01*
X158967082Y-115750634D01*
X158993440Y-115747800D01*
X159054800Y-115747800D01*
X159054800Y-115497921D01*
X159059586Y-115469752D01*
X159058219Y-115469440D01*
X159059765Y-115462661D01*
X159059768Y-115462655D01*
X159079965Y-115283400D01*
X159079368Y-115278104D01*
X159066262Y-115161782D01*
X159078316Y-115092960D01*
X159125665Y-115041580D01*
X159193276Y-115023956D01*
X159239918Y-115034619D01*
X159409992Y-115110342D01*
X159409997Y-115110344D01*
X159595154Y-115149700D01*
X159595155Y-115149700D01*
X159784444Y-115149700D01*
X159784446Y-115149700D01*
X159969603Y-115110344D01*
X160124048Y-115041580D01*
X160137057Y-115035788D01*
X160206307Y-115026503D01*
X160269584Y-115056131D01*
X160273466Y-115059780D01*
X160273959Y-115060170D01*
X160418294Y-115149198D01*
X160418297Y-115149199D01*
X160418303Y-115149203D01*
X160579292Y-115202549D01*
X160678655Y-115212700D01*
X161275344Y-115212699D01*
X161275352Y-115212698D01*
X161275355Y-115212698D01*
X161329760Y-115207140D01*
X161374708Y-115202549D01*
X161535697Y-115149203D01*
X161680044Y-115060168D01*
X161740219Y-114999993D01*
X161801542Y-114966508D01*
X161871234Y-114971492D01*
X161915581Y-114999993D01*
X161950355Y-115034767D01*
X161950359Y-115034770D01*
X162094694Y-115123798D01*
X162094697Y-115123799D01*
X162094703Y-115123803D01*
X162255692Y-115177149D01*
X162355055Y-115187300D01*
X162951744Y-115187299D01*
X162951752Y-115187298D01*
X162951755Y-115187298D01*
X163006160Y-115181740D01*
X163051108Y-115177149D01*
X163212097Y-115123803D01*
X163356444Y-115034768D01*
X163417593Y-114973619D01*
X163478916Y-114940134D01*
X163505274Y-114937300D01*
X164131752Y-114937300D01*
X164135497Y-114937413D01*
X164142842Y-114937857D01*
X164197406Y-114941158D01*
X164237131Y-114933878D01*
X164258421Y-114929977D01*
X164262125Y-114929413D01*
X164279970Y-114927246D01*
X164323672Y-114921940D01*
X164333135Y-114918350D01*
X164354761Y-114912322D01*
X164355693Y-114912151D01*
X164364732Y-114910495D01*
X164421312Y-114885029D01*
X164424742Y-114883609D01*
X164482730Y-114861618D01*
X164491066Y-114855862D01*
X164510621Y-114844834D01*
X164519857Y-114840678D01*
X164527501Y-114834688D01*
X164592413Y-114808839D01*
X164603975Y-114808299D01*
X165108802Y-114808299D01*
X165108808Y-114808299D01*
X165211597Y-114797799D01*
X165378134Y-114742614D01*
X165527456Y-114650512D01*
X165651512Y-114526456D01*
X165743614Y-114377134D01*
X165798799Y-114210597D01*
X165809300Y-114107809D01*
X165809300Y-113966800D01*
X165828985Y-113899761D01*
X165881789Y-113854006D01*
X165933300Y-113842800D01*
X172203563Y-113842800D01*
X172270602Y-113862485D01*
G37*
%TD.AperFunction*%
%TD*%
D48*
X147726400Y-100584000D03*
X144195800Y-111455200D03*
X156455800Y-97282600D03*
X161747200Y-100914200D03*
X147345400Y-106883200D03*
X146659600Y-87020400D03*
X135991600Y-109474000D03*
X151511000Y-122555000D03*
X158140400Y-79171800D03*
X152425400Y-123164600D03*
X142189200Y-80772000D03*
X132198800Y-107823600D03*
X144475200Y-95427800D03*
X170408600Y-112674400D03*
X152715955Y-100800963D03*
X153568899Y-110820699D03*
X171234697Y-89191503D03*
X174980600Y-115493800D03*
X149758400Y-110744000D03*
X138955200Y-124562200D03*
X171300000Y-85700000D03*
X170561000Y-92456000D03*
X174828200Y-117779800D03*
X141554200Y-117373400D03*
X170230800Y-110667800D03*
X160401000Y-101523800D03*
X160223200Y-111988600D03*
X149377400Y-95986600D03*
X166979600Y-111277400D03*
X141579600Y-108686600D03*
X159199000Y-96800000D03*
X141732000Y-115290600D03*
X143222400Y-125603600D03*
X167894000Y-108356400D03*
X145719800Y-102692200D03*
X131521200Y-118973600D03*
X162636200Y-112979200D03*
X171627800Y-109169200D03*
X150843679Y-119561036D03*
X156083000Y-114198400D03*
X175971200Y-97282000D03*
X131470400Y-85877400D03*
X175641000Y-120142000D03*
X148793200Y-119380000D03*
X146659600Y-95504000D03*
X143078200Y-106705400D03*
X156083000Y-115316000D03*
X132198800Y-106807600D03*
X156159200Y-120929400D03*
X149851800Y-91008800D03*
X159689800Y-114249200D03*
X138320200Y-123825600D03*
X165599800Y-102057800D03*
X155399000Y-123113800D03*
X132334000Y-111455200D03*
X133172200Y-112496600D03*
X150952200Y-96113600D03*
X134874000Y-86995000D03*
X163550600Y-96799400D03*
X170505901Y-91368099D03*
X150029600Y-92837600D03*
X130319200Y-119685400D03*
X173507400Y-109220000D03*
X170904253Y-84035547D03*
X154703200Y-81966400D03*
X130352800Y-103124000D03*
X174828200Y-110643000D03*
X136491400Y-113094600D03*
X139216800Y-106756800D03*
X157310500Y-91076100D03*
X141655800Y-110871000D03*
X141681200Y-111963200D03*
X138835900Y-113080800D03*
X138728979Y-114145181D03*
X164795200Y-80707900D03*
X152120600Y-87934800D03*
X162229800Y-84302600D03*
X135358900Y-102463600D03*
X138201400Y-82296000D03*
X134874000Y-94970600D03*
X149098000Y-94488000D03*
X161467800Y-85598000D03*
X149733000Y-98729800D03*
X163118800Y-90652600D03*
X174701200Y-100203000D03*
X166725600Y-89662000D03*
X174675800Y-105994200D03*
X175153400Y-93358800D03*
X175153400Y-90818800D03*
X175153400Y-88278800D03*
X175153400Y-85738800D03*
X173000126Y-81112074D03*
X173013400Y-123238800D03*
X152442600Y-78994600D03*
X149902600Y-78994600D03*
X147362600Y-78994600D03*
X144822600Y-78994600D03*
X160517400Y-125274600D03*
X162117400Y-123274600D03*
X164617400Y-123274600D03*
X167117400Y-123274600D03*
X160215000Y-78969200D03*
X162755000Y-78969200D03*
X165295000Y-78969200D03*
X167835000Y-78969200D03*
X132883400Y-81108800D03*
X132883400Y-123228800D03*
M02*
