M48
; DRILL file {KiCad 7.0.9} date Mon Jan 29 23:24:26 2024
; FORMAT={-:-/ absolute / metric / decimal}
; #@! TF.CreationDate,2024-01-29T23:24:26+02:00
; #@! TF.GenerationSoftware,Kicad,Pcbnew,7.0.9
; #@! TF.FileFunction,Plated,1,4,PTH
FMAT,2
METRIC
; #@! TA.AperFunction,Plated,PTH,ViaDrill
T1C0.400
; #@! TA.AperFunction,Plated,PTH,ComponentDrill
T2C0.950
; #@! TA.AperFunction,Plated,PTH,ComponentDrill
T3C1.000
; #@! TA.AperFunction,Plated,PTH,ComponentDrill
T4C2.200
%
G90
G05
T1
X130.319Y-119.685
X130.353Y-103.124
X131.47Y-85.877
X131.521Y-118.974
X132.199Y-106.808
X132.199Y-107.824
X132.334Y-111.455
X133.172Y-112.497
X134.874Y-86.995
X134.874Y-94.971
X135.359Y-102.464
X135.992Y-109.474
X136.491Y-113.095
X138.201Y-82.296
X138.32Y-123.826
X138.729Y-114.145
X138.836Y-113.081
X138.955Y-124.562
X139.217Y-106.757
X141.554Y-117.373
X141.58Y-108.687
X141.656Y-110.871
X141.681Y-111.963
X141.732Y-115.291
X142.189Y-80.772
X143.078Y-106.705
X143.222Y-125.604
X144.196Y-111.455
X144.475Y-95.428
X145.72Y-102.692
X146.66Y-87.02
X146.66Y-95.504
X147.345Y-106.883
X147.726Y-100.584
X148.793Y-119.38
X149.098Y-94.488
X149.377Y-95.987
X149.733Y-98.73
X149.758Y-110.744
X149.852Y-91.009
X150.03Y-92.838
X150.844Y-119.561
X150.952Y-96.114
X151.511Y-122.555
X152.121Y-87.935
X152.425Y-123.165
X152.716Y-100.801
X153.569Y-110.821
X154.703Y-81.966
X155.399Y-123.114
X156.083Y-114.198
X156.083Y-115.316
X156.159Y-120.929
X156.456Y-97.283
X157.31Y-91.076
X158.14Y-79.172
X159.199Y-96.8
X159.69Y-114.249
X160.223Y-111.989
X160.401Y-101.524
X161.468Y-85.598
X161.747Y-100.914
X162.23Y-84.303
X162.636Y-112.979
X163.119Y-90.653
X163.551Y-96.799
X164.795Y-80.708
X165.6Y-102.058
X166.726Y-89.662
X166.98Y-111.277
X167.894Y-108.356
X170.231Y-110.668
X170.409Y-112.674
X170.506Y-91.368
X170.561Y-92.456
X170.904Y-84.036
X171.235Y-89.192
X171.3Y-85.7
X171.628Y-109.169
X173.507Y-109.22
X174.676Y-105.994
X174.701Y-100.203
X174.828Y-110.643
X174.828Y-117.78
X174.981Y-115.494
X175.641Y-120.142
X175.971Y-97.282
T2
X162.117Y-123.275
X164.617Y-123.275
X167.117Y-123.275
T3
X144.823Y-78.995
X147.363Y-78.995
X149.903Y-78.995
X152.443Y-78.995
X160.215Y-78.969
X162.755Y-78.969
X165.295Y-78.969
X167.835Y-78.969
X175.153Y-85.739
X175.153Y-88.279
X175.153Y-90.819
X175.153Y-93.359
T4
X132.883Y-81.109
X132.883Y-123.229
X173.0Y-81.112
X173.013Y-123.239
T0
M30
